SplineFontDB: 3.0
FontName: CantataOne-Regular
FullName: CantataOne-Regular
FamilyName: Cantata One
Weight: Book
Copyright: Copyright (c) 2011-2012, Sorkin Type Co (www.sorkintype.com)\nwith Reserved Font Name "Cantata"\n\nThis Font Software is licensed under the SIL Open Font License, Version 1.1. This license is copied below, and is also available with a FAQ at: http://scripts.sil.org/OFL
Version: 1.002
ItalicAngle: 0
UnderlinePosition: -103
UnderlineWidth: 102
Ascent: 1638
Descent: 410
LayerCount: 2
Layer: 0 1 "Back"  1
Layer: 1 1 "Fore"  0
XUID: [1021 631 1661839179 12307106]
FSType: 0
OS2Version: 3
OS2_WeightWidthSlopeOnly: 0
OS2_UseTypoMetrics: 1
CreationTime: 1333636560
ModificationTime: 1333626852
PfmFamily: 17
TTFWeight: 400
TTFWidth: 5
LineGap: 0
VLineGap: 0
Panose: 2 6 5 3 7 7 0 6 7 4
OS2TypoAscent: 362
OS2TypoAOffset: 1
OS2TypoDescent: -150
OS2TypoDOffset: 1
OS2TypoLinegap: 0
OS2WinAscent: -40
OS2WinAOffset: 1
OS2WinDescent: 0
OS2WinDOffset: 1
HheadAscent: -40
HheadAOffset: 1
HheadDescent: 0
HheadDOffset: 1
OS2SubXSize: 1434
OS2SubYSize: 1331
OS2SubXOff: 0
OS2SubYOff: 287
OS2SupXSize: 1434
OS2SupYSize: 1331
OS2SupXOff: 0
OS2SupYOff: 977
OS2StrikeYSize: 102
OS2StrikeYPos: 512
OS2Vendor: 'STC '
OS2CodePages: 20000093.00000000
OS2UnicodeRanges: a00000af.5000204a.00000000.00000000
DEI: 91125
TtTable: prep
PUSHW_2
 2048
 2048
MUL
DUP
PUSHB_1
 1
SWAP
WCVTP
DUP
PUSHB_1
 3
SWAP
WCVTF
PUSHB_1
 21
RCVT
DUP
DUP
MPPEM
PUSHB_1
 15
LT
MPPEM
PUSHB_1
 5
GT
AND
IF
PUSHB_1
 52
ELSE
PUSHB_1
 40
EIF
ADD
FLOOR
DUP
ROLL
NEQ
IF
PUSHB_1
 2
CINDEX
SUB
PUSHB_1
 1
RCVT
MUL
SWAP
DIV
PUSHB_1
 2
SWAP
WCVTP
PUSHB_4
 10
 11
 3
 2
CALL
PUSHB_4
 12
 17
 3
 2
CALL
PUSHB_4
 18
 23
 3
 2
CALL
EIF
PUSHB_3
 4
 40
 7
RCVT
GT
WCVTP
PUSHB_4
 12
 17
 4
 2
CALL
PUSHW_1
 511
SCANCTRL
PUSHB_1
 4
SCANTYPE
PUSHB_2
 5
 0
WCVTP
EndTTInstrs
TtTable: fpgm
PUSHB_1
 0
FDEF
DUP
ABS
PUSHB_1
 32
ADD
FLOOR
SWAP
PUSHB_1
 0
LT
IF
NEG
EIF
ENDF
PUSHB_1
 1
FDEF
DUP
ABS
DUP
PUSHB_1
 192
LT
PUSHB_1
 4
MINDEX
AND

StartChar: .notdef
Encoding: 65536 -1 0
Width: 1530
Flags: W
LayerCount: 2
Fore
SplineSet
0 2040 m 1,0,-1
 1530 2040 l 1,1,-1
 1530 -340 l 1,2,-1
 0 -340 l 1,3,-1
 0 2040 l 1,0,-1
1430 -240 m 1,4,-1
 1430 1940 l 1,5,-1
 100 1940 l 1,6,-1
 100 -240 l 1,7,-1
 1430 -240 l 1,4,-1
590 750 m 1,8,9
 800 821 800 821 925 976.5 c 128,-1,10
 1050 1132 1050 1132 1050 1316 c 0,11,12
 1050 1452 1050 1452 965 1535 c 128,-1,13
 880 1618 880 1618 709.5 1618 c 128,-1,14
 539 1618 539 1618 443 1502 c 1,15,16
 495 1487 495 1487 527.5 1444 c 128,-1,17
 560 1401 560 1401 560 1354 c 0,18,19
 560 1275 560 1275 513.5 1227 c 128,-1,20
 467 1179 467 1179 394 1179 c 128,-1,21
 321 1179 321 1179 274 1234 c 1,22,23
 228 1290 228 1290 232 1356 c 0,24,25
 240 1491 240 1491 383 1597.5 c 128,-1,26
 526 1704 526 1704 749 1704 c 128,-1,27
 972 1704 972 1704 1135.5 1587 c 128,-1,28
 1299 1470 1299 1470 1299 1279 c 0,29,30
 1299 1000 1299 1000 1030 826 c 0,31,32
 922 756 922 756 800 730 c 1,33,-1
 747 447 l 1,34,-1
 650 447 l 1,35,-1
 590 750 l 1,8,9
541 141 m 0,36,37
 541 248 541 248 637 290 c 0,38,39
 666 302 666 302 700 302 c 0,40,41
 768 302 768 302 814 256 c 256,42,43
 860 210 860 210 860 141.5 c 128,-1,44
 860 73 860 73 814.5 27.5 c 128,-1,45
 769 -18 769 -18 700.5 -18 c 128,-1,46
 632 -18 632 -18 586.5 27.5 c 128,-1,47
 541 73 541 73 541 141 c 0,36,37
EndSplineSet
EndChar

StartChar: exclam
Encoding: 33 33 23
Width: 852
GlyphClass: 2
Flags: W
LayerCount: 2
Fore
SplineSet
268 1489 m 1,0,1
 265 1504 265 1504 265 1531 c 0,2,3
 265 1592 265 1592 313 1638.5 c 128,-1,4
 361 1685 361 1685 426 1685 c 256,5,6
 491 1685 491 1685 539 1638.5 c 128,-1,7
 587 1592 587 1592 587 1523 c 0,8,9
 587 1504 587 1504 584 1489 c 1,10,-1
 473 447 l 1,11,-1
 379 447 l 1,12,-1
 268 1489 l 1,0,1
267 141 m 0,13,14
 267 248 267 248 363 290 c 0,15,16
 392 302 392 302 426 302 c 0,17,18
 494 302 494 302 540 256 c 256,19,20
 586 210 586 210 586 141.5 c 128,-1,21
 586 73 586 73 540.5 27.5 c 128,-1,22
 495 -18 495 -18 426.5 -18 c 128,-1,23
 358 -18 358 -18 312.5 27.5 c 128,-1,24
 267 73 267 73 267 141 c 0,13,14
EndSplineSet
EndChar

StartChar: quotedbl
Encoding: 34 34 24
Width: 1196
GlyphClass: 2
Flags: W
LayerCount: 2
Fore
SplineSet
283 1559 m 2,0,1
 275 1607 275 1607 315 1645.5 c 128,-1,2
 355 1684 355 1684 410.5 1684 c 128,-1,3
 466 1684 466 1684 494 1659 c 0,4,5
 545 1612 545 1612 534 1556 c 1,6,-1
 445 1020 l 1,7,-1
 367 1020 l 1,8,-1
 283 1559 l 2,0,1
661 1559 m 2,9,10
 653 1607 653 1607 693 1645.5 c 128,-1,11
 733 1684 733 1684 788.5 1684 c 128,-1,12
 844 1684 844 1684 872 1659 c 0,13,14
 923 1612 923 1612 912 1556 c 1,15,-1
 823 1020 l 1,16,-1
 745 1020 l 1,17,-1
 661 1559 l 2,9,10
EndSplineSet
EndChar

StartChar: numbersign
Encoding: 35 35 25
Width: 1707
GlyphClass: 2
Flags: W
LayerCount: 2
Fore
SplineSet
458 392 m 1,0,-1
 201 392 l 1,1,-1
 201 510 l 1,2,-1
 490 510 l 1,3,-1
 595 902 l 1,4,-1
 271 902 l 1,5,-1
 271 1020 l 1,6,-1
 626 1020 l 1,7,-1
 770 1554 l 1,8,-1
 904 1521 l 1,9,-1
 769 1020 l 1,10,-1
 1074 1020 l 1,11,-1
 1218 1554 l 1,12,-1
 1352 1521 l 1,13,-1
 1217 1020 l 1,14,-1
 1506 1020 l 1,15,-1
 1506 902 l 1,16,-1
 1186 902 l 1,17,-1
 1081 510 l 1,18,-1
 1436 510 l 1,19,-1
 1436 392 l 1,20,-1
 1049 392 l 1,21,-1
 917 -102 l 1,22,-1
 783 -69 l 1,23,-1
 906 392 l 1,24,-1
 601 392 l 1,25,-1
 469 -102 l 1,26,-1
 335 -69 l 1,27,-1
 458 392 l 1,0,-1
938 510 m 1,28,-1
 1043 902 l 1,29,-1
 738 902 l 1,30,-1
 633 510 l 1,31,-1
 938 510 l 1,28,-1
EndSplineSet
EndChar

StartChar: dollar
Encoding: 36 36 26
Width: 1366
GlyphClass: 2
Flags: W
LayerCount: 2
Fore
SplineSet
307 116 m 1,0,1
 266 70 266 70 266 0 c 1,2,-1
 177 0 l 1,3,-1
 177 408 l 1,4,-1
 280 408 l 1,5,6
 307 299 307 299 378.5 217.5 c 128,-1,7
 450 136 450 136 556 95 c 1,8,-1
 590 580 l 1,9,10
 260 707 260 707 206 898 c 0,11,12
 188 959 188 959 188 1035 c 0,13,14
 188 1188 188 1188 316.5 1289 c 128,-1,15
 445 1390 445 1390 647 1407 c 1,16,-1
 660 1596 l 1,17,-1
 739 1596 l 1,18,-1
 726 1410 l 1,19,-1
 772 1408 l 2,20,21
 795 1407 795 1407 816 1404 c 1,22,-1
 830 1596 l 1,23,-1
 909 1596 l 1,24,-1
 895 1391 l 1,25,26
 1004 1364 1004 1364 1064 1313 c 1,27,28
 1088 1348 1088 1348 1090 1390 c 1,29,-1
 1183 1390 l 1,30,-1
 1183 1018 l 1,31,-1
 1087 1018 l 1,32,33
 1064 1214 1064 1214 888 1291 c 1,34,-1
 853 788 l 1,35,36
 1079 703 1079 703 1165.5 615.5 c 128,-1,37
 1252 528 1252 528 1252 416 c 0,38,39
 1252 217 1252 217 1122.5 107 c 128,-1,40
 993 -3 993 -3 797 -18 c 1,41,-1
 787 -170 l 1,42,-1
 708 -170 l 1,43,-1
 718 -19 l 1,44,45
 661 -17 661 -17 628 -12 c 1,46,-1
 617 -170 l 1,47,-1
 538 -170 l 1,48,-1
 550 2 l 1,49,50
 392 40 392 40 307 116 c 1,0,1
688 857 m 1,51,-1
 776 819 l 1,52,-1
 810 1316 l 1,53,54
 764 1326 764 1326 720 1327 c 1,55,-1
 688 857 l 1,51,-1
641 1324 m 1,56,57
 466 1305 466 1305 409 1212 c 0,58,59
 390 1182 390 1182 390 1146 c 0,60,61
 390 1068 390 1068 434.5 1013.5 c 128,-1,62
 479 959 479 959 611 893 c 1,63,-1
 641 1324 l 1,56,57
634 73 m 1,64,65
 675 65 675 65 724 63 c 1,66,-1
 755 522 l 1,67,-1
 679 548 l 2,68,69
 671 550 671 550 667 552 c 1,70,-1
 634 73 l 1,64,65
803 66 m 1,71,72
 982 82 982 82 1039 176 c 0,73,74
 1058 208 1058 208 1058 246 c 0,75,76
 1058 327 1058 327 1010.5 382 c 128,-1,77
 963 437 963 437 833 491 c 1,78,-1
 803 66 l 1,71,72
EndSplineSet
EndChar

StartChar: percent
Encoding: 37 37 27
Width: 1877
GlyphClass: 2
Flags: W
LayerCount: 2
Fore
SplineSet
291 925 m 128,-1,1
 198 1027 198 1027 198 1189.5 c 128,-1,2
 198 1352 198 1352 292 1455.5 c 128,-1,3
 386 1559 386 1559 524.5 1559 c 128,-1,4
 663 1559 663 1559 754 1456.5 c 128,-1,5
 845 1354 845 1354 845 1189.5 c 128,-1,6
 845 1025 845 1025 754.5 924 c 128,-1,7
 664 823 664 823 524 823 c 128,-1,0
 384 823 384 823 291 925 c 128,-1,1
522 897 m 0,8,9
 667 897 667 897 667 1189 c 0,10,11
 667 1327 667 1327 644.5 1382.5 c 128,-1,12
 622 1438 622 1438 593.5 1460.5 c 128,-1,13
 565 1483 565 1483 522 1483 c 0,14,15
 440 1483 440 1483 406 1398 c 0,16,17
 378 1329 378 1329 378 1230 c 0,18,19
 378 1054 378 1054 409.5 975.5 c 128,-1,20
 441 897 441 897 522 897 c 0,8,9
1032 345.5 m 128,-1,22
 1032 508 1032 508 1126 611.5 c 128,-1,23
 1220 715 1220 715 1358.5 715 c 128,-1,24
 1497 715 1497 715 1588 612.5 c 128,-1,25
 1679 510 1679 510 1679 345.5 c 128,-1,26
 1679 181 1679 181 1588.5 80 c 128,-1,27
 1498 -21 1498 -21 1357.5 -21 c 128,-1,28
 1217 -21 1217 -21 1124.5 81 c 128,-1,21
 1032 183 1032 183 1032 345.5 c 128,-1,22
1356 53 m 0,29,30
 1501 53 1501 53 1501 345 c 0,31,32
 1501 559 1501 559 1428 618 c 1,33,34
 1399 640 1399 640 1356 640 c 0,35,36
 1274 640 1274 640 1243 562.5 c 128,-1,37
 1212 485 1212 485 1212 386 c 0,38,39
 1212 210 1212 210 1243.5 131.5 c 128,-1,40
 1275 53 1275 53 1356 53 c 0,29,30
1436 1530 m 1,41,-1
 1535 1530 l 1,42,-1
 400 0 l 1,43,-1
 298 0 l 1,44,-1
 1436 1530 l 1,41,-1
EndSplineSet
EndChar

StartChar: ampersand
Encoding: 38 38 28
Width: 1708
GlyphClass: 2
Flags: W
LayerCount: 2
Fore
SplineSet
1262 307 m 1,0,1
 1456 117 1456 117 1572 117 c 0,2,3
 1630 117 1630 117 1667 142 c 1,4,-1
 1704 91 l 1,5,6
 1615 -20 1615 -20 1447.5 -20 c 128,-1,7
 1280 -20 1280 -20 1118 118 c 1,8,9
 959 -20 959 -20 721.5 -20 c 128,-1,10
 484 -20 484 -20 314 93 c 128,-1,11
 144 206 144 206 144 396 c 0,12,13
 144 554 144 554 252 669 c 0,14,15
 340 764 340 764 476 808 c 1,16,17
 308 1012 308 1012 308 1175.5 c 128,-1,18
 308 1339 308 1339 446.5 1434 c 128,-1,19
 585 1529 585 1529 749.5 1529 c 128,-1,20
 914 1529 914 1529 1021 1466 c 128,-1,21
 1128 1403 1128 1403 1138 1297 c 1,22,23
 1142 1283 1142 1283 1142 1262 c 0,24,25
 1142 1211 1142 1211 1100 1170.5 c 128,-1,26
 1058 1130 1058 1130 1002 1130 c 256,27,28
 946 1130 946 1130 905 1171 c 128,-1,29
 864 1212 864 1212 864 1261 c 0,30,31
 864 1357 864 1357 945 1395 c 1,32,33
 883 1452 883 1452 771.5 1452 c 128,-1,34
 660 1452 660 1452 601.5 1397 c 128,-1,35
 543 1342 543 1342 543 1248 c 0,36,37
 543 1108 543 1108 748 866 c 1,38,39
 1138 435 1138 435 1192 379 c 1,40,41
 1266 546 1266 546 1266 769 c 1,42,-1
 1093 769 l 1,43,-1
 1093 847 l 1,44,-1
 1527 847 l 1,45,-1
 1527 769 l 1,46,-1
 1367 769 l 1,47,48
 1361 497 1361 497 1262 307 c 1,0,1
400 518 m 0,49,50
 386 469 386 469 386 406 c 0,51,52
 386 268 386 268 488.5 171.5 c 128,-1,53
 591 75 591 75 759 75 c 128,-1,54
 927 75 927 75 1050 181 c 1,55,56
 971 258 971 258 888 354 c 1,57,-1
 706 556 l 1,58,59
 581 687 581 687 538 736 c 1,60,61
 438 657 438 657 400 518 c 0,49,50
EndSplineSet
EndChar

StartChar: quotesingle
Encoding: 39 39 29
Width: 855
GlyphClass: 2
Flags: W
LayerCount: 2
Fore
SplineSet
301 1559 m 2,0,1
 293 1607 293 1607 333 1645.5 c 128,-1,2
 373 1684 373 1684 428.5 1684 c 128,-1,3
 484 1684 484 1684 512 1659 c 0,4,5
 563 1612 563 1612 552 1556 c 1,6,-1
 463 1020 l 1,7,-1
 385 1020 l 1,8,-1
 301 1559 l 2,0,1
EndSplineSet
EndChar

StartChar: parenleft
Encoding: 40 40 30
Width: 1024
GlyphClass: 2
Flags: W
LayerCount: 2
Fore
SplineSet
511 634 m 0,0,1
 511 -180 511 -180 1023 -503 c 1,2,-1
 975 -560 l 1,3,4
 683 -419 683 -419 479.5 -111 c 128,-1,5
 276 197 276 197 276 610 c 0,6,7
 276 1165 276 1165 632 1516 c 0,8,9
 768 1649 768 1649 975 1765 c 1,10,-1
 1023 1709 l 1,11,12
 613 1419 613 1419 536 926 c 0,13,14
 511 771 511 771 511 634 c 0,0,1
EndSplineSet
EndChar

StartChar: parenright
Encoding: 41 41 31
Width: 1024
GlyphClass: 2
Flags: W
LayerCount: 2
Fore
SplineSet
513 571 m 0,0,1
 513 1385 513 1385 1 1708 c 1,2,-1
 49 1765 l 1,3,4
 341 1624 341 1624 544.5 1316 c 128,-1,5
 748 1008 748 1008 748 595 c 0,6,7
 748 40 748 40 392 -311 c 0,8,9
 256 -444 256 -444 49 -560 c 1,10,-1
 1 -504 l 1,11,12
 411 -214 411 -214 488 279 c 0,13,14
 513 434 513 434 513 571 c 0,0,1
EndSplineSet
EndChar

StartChar: asterisk
Encoding: 42 42 32
Width: 1193
GlyphClass: 2
Flags: W
LayerCount: 2
Fore
SplineSet
470 902 m 2,0,1
 443 843 443 843 386 843 c 128,-1,2
 329 843 329 843 309 866 c 0,3,4
 278 904 278 904 278 938 c 128,-1,5
 278 972 278 972 289 990.5 c 128,-1,6
 300 1009 300 1009 323 1029 c 2,7,-1
 543 1208 l 1,8,-1
 238 1251 l 1,9,10
 195 1256 195 1256 171 1288.5 c 128,-1,11
 147 1321 147 1321 147 1350 c 0,12,13
 147 1399 147 1399 178.5 1426.5 c 128,-1,14
 210 1454 210 1454 245 1454 c 128,-1,15
 280 1454 280 1454 313 1431 c 1,16,-1
 562 1267 l 1,17,-1
 500 1582 l 1,18,-1
 501 1581 l 1,19,20
 498 1593 498 1593 498 1609 c 0,21,22
 498 1644 498 1644 531 1674 c 128,-1,23
 564 1704 564 1704 592 1704 c 0,24,25
 640 1704 640 1704 670 1672 c 128,-1,26
 700 1640 700 1640 700 1616 c 128,-1,27
 700 1592 700 1592 695 1567 c 2,28,-1
 626 1266 l 1,29,-1
 893 1434 l 1,30,31
 918 1448 918 1448 942 1448 c 0,32,33
 986 1448 986 1448 1016 1416.5 c 128,-1,34
 1046 1385 1046 1385 1046 1354 c 0,35,36
 1046 1300 1046 1300 1016 1275.5 c 128,-1,37
 986 1251 986 1251 940 1244 c 1,38,-1
 645 1206 l 1,39,-1
 876 1013 l 2,40,41
 908 986 908 986 908 950 c 0,42,43
 908 891 908 891 878 864 c 128,-1,44
 848 837 848 837 807.5 837 c 128,-1,45
 767 837 767 837 745.5 859 c 128,-1,46
 724 881 724 881 710 911 c 2,47,-1
 592 1171 l 1,48,-1
 470 902 l 2,0,1
EndSplineSet
EndChar

StartChar: plus
Encoding: 43 43 33
Width: 1536
GlyphClass: 2
Flags: W
LayerCount: 2
Fore
SplineSet
270 645 m 1,0,-1
 716 645 l 1,1,-1
 716 1114 l 1,2,-1
 820 1114 l 1,3,-1
 820 645 l 1,4,-1
 1266 645 l 1,5,-1
 1266 545 l 1,6,-1
 820 545 l 1,7,-1
 820 98 l 1,8,-1
 716 98 l 1,9,-1
 716 545 l 1,10,-1
 270 545 l 1,11,-1
 270 645 l 1,0,-1
EndSplineSet
EndChar

StartChar: comma
Encoding: 44 44 34
Width: 683
GlyphClass: 2
Flags: W
LayerCount: 2
Fore
SplineSet
232 267 m 1,0,1
 281 310 281 310 330 310 c 0,2,3
 419 310 419 310 466 257.5 c 128,-1,4
 513 205 513 205 513 122 c 0,5,6
 513 -18 513 -18 434.5 -158.5 c 128,-1,7
 356 -299 356 -299 275 -351 c 1,8,-1
 223 -313 l 1,9,10
 300 -249 300 -249 336 -94 c 0,11,12
 347 -47 347 -47 349 -2 c 1,13,14
 283 -2 283 -2 233.5 43.5 c 128,-1,15
 184 89 184 89 184 156 c 128,-1,16
 184 223 184 223 232 267 c 1,0,1
EndSplineSet
EndChar

StartChar: hyphen
Encoding: 45 45 35
Width: 1198
GlyphClass: 2
Flags: W
LayerCount: 2
Fore
SplineSet
237 646 m 1,0,-1
 961 646 l 1,1,-1
 961 546 l 1,2,-1
 237 546 l 1,3,-1
 237 646 l 1,0,-1
EndSplineSet
EndChar

StartChar: period
Encoding: 46 46 36
Width: 683
GlyphClass: 2
Flags: W
LayerCount: 2
Fore
SplineSet
182 141 m 0,0,1
 182 248 182 248 278 290 c 0,2,3
 307 302 307 302 341 302 c 0,4,5
 409 302 409 302 455 256 c 128,-1,6
 501 210 501 210 501 141.5 c 128,-1,7
 501 73 501 73 455.5 27.5 c 128,-1,8
 410 -18 410 -18 341.5 -18 c 128,-1,9
 273 -18 273 -18 227.5 27.5 c 128,-1,10
 182 73 182 73 182 141 c 0,0,1
EndSplineSet
EndChar

StartChar: slash
Encoding: 47 47 37
Width: 1025
GlyphClass: 2
Flags: W
LayerCount: 2
Fore
SplineSet
862 1683 m 1,0,-1
 1019 1683 l 1,1,-1
 164 -554 l 1,2,-1
 6 -554 l 1,3,-1
 862 1683 l 1,0,-1
EndSplineSet
EndChar

StartChar: zero
Encoding: 48 48 38
Width: 1537
GlyphClass: 2
Flags: W
LayerCount: 2
Fore
SplineSet
1018 35.5 m 128,-1,1
 903 -20 903 -20 770 -20 c 0,2,3
 502 -20 502 -20 322 196.5 c 128,-1,4
 142 413 142 413 142 761 c 256,5,6
 142 1109 142 1109 322.5 1329.5 c 128,-1,7
 503 1550 503 1550 768 1550 c 0,8,9
 902 1550 902 1550 1017 1493 c 128,-1,10
 1132 1436 1132 1436 1216 1332 c 0,11,12
 1395 1112 1395 1112 1395 761.5 c 128,-1,13
 1395 411 1395 411 1216 193 c 0,14,0
 1133 91 1133 91 1018 35.5 c 128,-1,1
768 63 m 0,15,16
 1058 63 1058 63 1093 576 c 0,17,18
 1099 665 1099 665 1099 790 c 0,19,20
 1099 1103 1099 1103 1034 1268 c 0,21,22
 956 1467 956 1467 768 1467 c 0,23,24
 497 1467 497 1467 452 1044 c 0,25,26
 439 915 439 915 439 790 c 128,-1,27
 439 665 439 665 445 576 c 128,-1,28
 451 487 451 487 465 410 c 0,29,30
 495 244 495 244 567.5 153.5 c 128,-1,31
 640 63 640 63 768 63 c 0,15,16
EndSplineSet
EndChar

StartChar: one
Encoding: 49 49 39
Width: 1024
GlyphClass: 2
Flags: W
LayerCount: 2
Fore
SplineSet
204 78 m 1,0,-1
 382 78 l 1,1,-1
 382 1446 l 1,2,-1
 210 1430 l 1,3,-1
 210 1507 l 1,4,-1
 648 1554 l 1,5,-1
 648 78 l 1,6,-1
 827 78 l 1,7,-1
 827 0 l 1,8,-1
 204 0 l 1,9,-1
 204 78 l 1,0,-1
EndSplineSet
EndChar

StartChar: two
Encoding: 50 50 40
Width: 1366
GlyphClass: 2
Flags: W
LayerCount: 2
Fore
SplineSet
984 225 m 2,0,1
 1092 225 1092 225 1123 388 c 1,2,-1
 1197 388 l 1,3,-1
 1197 0 l 1,4,-1
 150 0 l 1,5,-1
 150 89 l 1,6,-1
 296 210 l 1,7,8
 469 360 469 360 618 540 c 0,9,10
 890 868 890 868 890 1146 c 0,11,12
 890 1321 890 1321 813.5 1395.5 c 128,-1,13
 737 1470 737 1470 628 1470 c 0,14,15
 427 1470 427 1470 331 1331 c 1,16,17
 416 1322 416 1322 446 1242 c 0,18,19
 454 1219 454 1219 454 1192 c 0,20,21
 454 1134 454 1134 410.5 1095 c 128,-1,22
 367 1056 367 1056 321 1056 c 0,23,24
 242 1056 242 1056 199 1098 c 128,-1,25
 156 1140 156 1140 156 1210 c 0,26,27
 156 1344 156 1344 308 1448 c 1,28,29
 462 1550 462 1550 677.5 1550 c 128,-1,30
 893 1550 893 1550 1034 1447 c 128,-1,31
 1175 1344 1175 1344 1175 1143 c 0,32,33
 1175 904 1175 904 934 643 c 0,34,35
 797 495 797 495 662 390 c 1,36,-1
 445 225 l 1,37,-1
 984 225 l 2,0,1
EndSplineSet
EndChar

StartChar: three
Encoding: 51 51 41
Width: 1366
GlyphClass: 2
Flags: W
LayerCount: 2
Fore
SplineSet
869 1185 m 0,0,1
 869 1467 869 1467 606 1467 c 0,2,3
 445 1467 445 1467 368 1390 c 1,4,5
 419 1378 419 1378 448 1338.5 c 128,-1,6
 477 1299 477 1299 477 1261 c 0,7,8
 477 1191 477 1191 436 1149 c 128,-1,9
 395 1107 395 1107 344 1107 c 0,10,11
 261 1107 261 1107 225 1153 c 128,-1,12
 189 1199 189 1199 189 1248.5 c 128,-1,13
 189 1298 189 1298 209 1336 c 128,-1,14
 229 1374 229 1374 264 1406 c 1,15,16
 332 1471 332 1471 440.5 1510.5 c 128,-1,17
 549 1550 549 1550 663 1550 c 0,18,19
 894 1550 894 1550 1019.5 1453.5 c 128,-1,20
 1145 1357 1145 1357 1145 1195 c 0,21,22
 1145 1064 1145 1064 1048.5 957 c 128,-1,23
 952 850 952 850 793 819 c 1,24,25
 989 807 989 807 1110.5 706.5 c 128,-1,26
 1232 606 1232 606 1232 451 c 0,27,28
 1232 230 1232 230 1059 105 c 128,-1,29
 886 -20 886 -20 613 -20 c 0,30,31
 431 -20 431 -20 296.5 62 c 128,-1,32
 162 144 162 144 162 278 c 0,33,34
 162 339 162 339 204.5 381.5 c 128,-1,35
 247 424 247 424 293 424 c 0,36,37
 369 424 369 424 412 381 c 128,-1,38
 455 338 455 338 455 286 c 128,-1,39
 455 234 455 234 428.5 194 c 128,-1,40
 402 154 402 154 352 138 c 1,41,42
 423 80 423 80 524 68 c 0,43,44
 566 63 566 63 640 63 c 0,45,46
 790 63 790 63 871.5 156 c 128,-1,47
 953 249 953 249 953 398 c 256,48,49
 953 547 953 547 846.5 645 c 128,-1,50
 740 743 740 743 581 743 c 0,51,52
 526 743 526 743 471 730 c 1,53,-1
 471 823 l 1,54,55
 662 823 662 823 765.5 925 c 128,-1,56
 869 1027 869 1027 869 1185 c 0,0,1
EndSplineSet
EndChar

StartChar: four
Encoding: 52 52 42
Width: 1366
GlyphClass: 2
Flags: W
LayerCount: 2
Fore
SplineSet
40 466 m 1,0,-1
 816 1530 l 1,1,-1
 1003 1530 l 1,2,-1
 1003 485 l 1,3,-1
 1317 485 l 1,4,-1
 1315 399 l 1,5,-1
 1003 399 l 1,6,-1
 1003 78 l 1,7,-1
 1232 78 l 1,8,-1
 1232 0 l 1,9,-1
 469 0 l 1,10,-1
 469 78 l 1,11,-1
 737 78 l 1,12,-1
 737 399 l 1,13,-1
 40 399 l 1,14,-1
 40 466 l 1,0,-1
737 485 m 1,15,-1
 737 1267 l 1,16,-1
 177 485 l 1,17,-1
 737 485 l 1,15,-1
EndSplineSet
EndChar

StartChar: five
Encoding: 53 53 43
Width: 1365
GlyphClass: 2
Flags: W
LayerCount: 2
Fore
SplineSet
626 854 m 0,0,1
 440 854 440 854 252 761 c 1,2,-1
 306 1530 l 1,3,-1
 1183 1530 l 1,4,-1
 1132 1148 l 1,5,-1
 1054 1148 l 1,6,-1
 1048 1211 l 1,7,8
 1039 1294 1039 1294 957 1310 c 0,9,10
 928 1315 928 1315 887 1315 c 2,11,-1
 394 1315 l 1,12,-1
 357 873 l 1,13,14
 454 939 454 939 613 964 c 0,15,16
 661 971 661 971 704 971 c 0,17,18
 951 971 951 971 1088 842 c 128,-1,19
 1225 713 1225 713 1225 503 c 0,20,21
 1225 258 1225 258 1053.5 119 c 128,-1,22
 882 -20 882 -20 610 -20 c 0,23,24
 435 -20 435 -20 300 62.5 c 128,-1,25
 165 145 165 145 165 278 c 0,26,27
 165 339 165 339 207.5 381.5 c 128,-1,28
 250 424 250 424 296 424 c 0,29,30
 372 424 372 424 415 381 c 128,-1,31
 458 338 458 338 458 269.5 c 128,-1,32
 458 201 458 201 394 156 c 0,33,34
 374 142 374 142 347 135 c 1,35,36
 431 60 431 60 600 60 c 0,37,38
 855 60 855 60 930 290 c 0,39,40
 956 370 956 370 956 466 c 0,41,42
 956 649 956 649 864 751.5 c 128,-1,43
 772 854 772 854 626 854 c 0,0,1
EndSplineSet
EndChar

StartChar: six
Encoding: 54 54 44
Width: 1365
GlyphClass: 2
Flags: W
LayerCount: 2
Fore
SplineSet
392 804 m 1,0,1
 544 981 544 981 792 981 c 0,2,3
 869 981 869 981 957 955 c 128,-1,4
 1045 929 1045 929 1114 872 c 0,5,6
 1267 747 1267 747 1267 520 c 128,-1,7
 1267 293 1267 293 1102.5 136.5 c 128,-1,8
 938 -20 938 -20 711 -20 c 0,9,10
 446 -20 446 -20 280.5 177 c 128,-1,11
 115 374 115 374 115 714 c 128,-1,12
 115 1054 115 1054 288 1291 c 0,13,14
 406 1454 406 1454 590 1518 c 0,15,16
 684 1550 684 1550 780 1550 c 0,17,18
 953 1550 953 1550 1059.5 1488.5 c 128,-1,19
 1166 1427 1166 1427 1166 1326 c 0,20,21
 1166 1262 1166 1262 1130.5 1221 c 128,-1,22
 1095 1180 1095 1180 1046 1180 c 0,23,24
 969 1180 969 1180 930.5 1222 c 128,-1,25
 892 1264 892 1264 892 1330 c 128,-1,26
 892 1396 892 1396 947 1430 c 1,27,28
 896 1479 896 1479 792 1479 c 0,29,30
 598 1479 598 1479 498 1297 c 128,-1,31
 398 1115 398 1115 392 804 c 1,0,1
738 881 m 0,32,33
 521 881 521 881 392 676 c 1,34,35
 402 240 402 240 572 108 c 0,36,37
 631 63 631 63 705 63 c 0,38,39
 847 63 847 63 926 177 c 1,40,41
 1003 291 1003 291 1003 480 c 0,42,43
 1003 768 1003 768 852 852 c 0,44,45
 800 881 800 881 738 881 c 0,32,33
EndSplineSet
EndChar

StartChar: seven
Encoding: 55 55 45
Width: 1195
GlyphClass: 2
Flags: W
LayerCount: 2
Fore
SplineSet
421 0 m 1,0,1
 419 30 419 30 419 101 c 128,-1,2
 419 172 419 172 443.5 291 c 128,-1,3
 468 410 468 410 510 528 c 0,4,5
 590 752 590 752 713.5 962 c 128,-1,6
 837 1172 837 1172 960 1315 c 1,7,-1
 411 1315 l 2,8,9
 328 1315 328 1315 275.5 1287.5 c 128,-1,10
 223 1260 223 1260 199 1191 c 0,11,12
 193 1171 193 1171 185 1141 c 2,13,-1
 171 1088 l 1,14,-1
 93 1088 l 1,15,-1
 158 1530 l 1,16,-1
 1126 1530 l 1,17,-1
 1126 1460 l 1,18,19
 845 1023 845 1023 764 481 c 0,20,21
 739 313 739 313 739 189.5 c 128,-1,22
 739 66 739 66 746 0 c 1,23,-1
 421 0 l 1,0,1
EndSplineSet
EndChar

StartChar: eight
Encoding: 56 56 46
Width: 1366
GlyphClass: 2
Flags: W
LayerCount: 2
Fore
SplineSet
193 374 m 0,0,1
 193 604 193 604 487 748 c 1,2,3
 218 911 218 911 218 1129 c 0,4,5
 218 1322 218 1322 384 1442 c 0,6,7
 532 1550 532 1550 706 1550 c 2,8,-1
 716 1550 l 2,9,10
 933 1550 933 1550 1062 1450.5 c 128,-1,11
 1191 1351 1191 1351 1191 1204 c 0,12,13
 1191 1016 1191 1016 1002 896 c 0,14,15
 948 862 948 862 893 840 c 1,16,17
 1061 759 1061 759 1126.5 696.5 c 128,-1,18
 1192 634 1192 634 1222.5 573 c 128,-1,19
 1253 512 1253 512 1253 429 c 128,-1,20
 1253 346 1253 346 1214 264.5 c 128,-1,21
 1175 183 1175 183 1105 120 c 0,22,23
 949 -20 949 -20 714 -20 c 128,-1,24
 479 -20 479 -20 336 89.5 c 128,-1,25
 193 199 193 199 193 374 c 0,0,1
826 873 m 1,26,27
 997 966 997 966 997 1186 c 0,28,29
 997 1338 997 1338 916.5 1403.5 c 128,-1,30
 836 1469 836 1469 718 1469 c 0,31,32
 538 1469 538 1469 469 1334 c 0,33,34
 444 1286 444 1286 444 1223 c 0,35,36
 444 1116 444 1116 554 1028 c 0,37,38
 630 967 630 967 806 883 c 1,39,-1
 826 873 l 1,26,27
492.5 163.5 m 128,-1,41
 591 75 591 75 726.5 75 c 128,-1,42
 862 75 862 75 938 155 c 128,-1,43
 1014 235 1014 235 1014 354 c 128,-1,44
 1014 473 1014 473 811 578 c 2,45,-1
 688 641 l 1,46,47
 623 672 623 672 559 707 c 1,48,49
 481 650 481 650 451 602 c 0,50,51
 394 511 394 511 394 381.5 c 128,-1,40
 394 252 394 252 492.5 163.5 c 128,-1,41
EndSplineSet
EndChar

StartChar: nine
Encoding: 57 57 47
Width: 1365
GlyphClass: 2
Flags: W
LayerCount: 2
Fore
SplineSet
989 726 m 1,0,1
 837 549 837 549 590 549 c 0,2,3
 513 549 513 549 425 576 c 128,-1,4
 337 603 337 603 268 662 c 0,5,6
 115 793 115 793 115 1039 c 0,7,8
 115 1249 115 1249 280 1399.5 c 128,-1,9
 445 1550 445 1550 671 1550 c 0,10,11
 936 1550 936 1550 1101.5 1353 c 128,-1,12
 1267 1156 1267 1156 1267 816 c 128,-1,13
 1267 476 1267 476 1094 239 c 0,14,15
 976 76 976 76 792 12 c 0,16,17
 698 -20 698 -20 602 -20 c 0,18,19
 427 -20 427 -20 325.5 38.5 c 128,-1,20
 224 97 224 97 216 191 c 1,21,-1
 216 204 l 2,22,23
 216 268 216 268 251.5 309 c 128,-1,24
 287 350 287 350 336 350 c 0,25,26
 413 350 413 350 451.5 308 c 128,-1,27
 490 266 490 266 490 201 c 128,-1,28
 490 136 490 136 434 99 c 1,29,30
 489 51 489 51 592 51 c 0,31,32
 784 51 784 51 883.5 233.5 c 128,-1,33
 983 416 983 416 989 726 c 1,0,1
530 680 m 0,34,35
 582 649 582 649 644 649 c 0,36,37
 755 649 755 649 844 705 c 0,38,39
 932 761 932 761 989 854 c 1,40,41
 979 1290 979 1290 810 1422 c 0,42,43
 751 1467 751 1467 677 1467 c 0,44,45
 536 1467 536 1467 457.5 1359.5 c 128,-1,46
 379 1252 379 1252 379 1070 c 0,47,48
 379 768 379 768 530 680 c 0,34,35
361 78 m 1,49,-1
 363 80 l 1,50,-1
 358 80 l 1,51,-1
 361 78 l 1,49,-1
EndSplineSet
EndChar

StartChar: colon
Encoding: 58 58 48
Width: 683
GlyphClass: 2
Flags: W
LayerCount: 2
Fore
SplineSet
182 141 m 0,0,1
 182 248 182 248 278 290 c 0,2,3
 307 302 307 302 341 302 c 0,4,5
 409 302 409 302 455 256 c 128,-1,6
 501 210 501 210 501 141.5 c 128,-1,7
 501 73 501 73 455.5 27.5 c 128,-1,8
 410 -18 410 -18 341.5 -18 c 128,-1,9
 273 -18 273 -18 227.5 27.5 c 128,-1,10
 182 73 182 73 182 141 c 0,0,1
182 141 m 0,11,12
 182 248 182 248 278 290 c 0,13,14
 307 302 307 302 341 302 c 0,15,16
 409 302 409 302 455 256 c 128,-1,17
 501 210 501 210 501 141.5 c 128,-1,18
 501 73 501 73 455.5 27.5 c 128,-1,19
 410 -18 410 -18 341.5 -18 c 128,-1,20
 273 -18 273 -18 227.5 27.5 c 128,-1,21
 182 73 182 73 182 141 c 0,11,12
182 878 m 0,22,23
 182 985 182 985 278 1026 c 0,24,25
 307 1039 307 1039 341 1039 c 0,26,27
 409 1039 409 1039 455 993 c 128,-1,28
 501 947 501 947 501 878.5 c 128,-1,29
 501 810 501 810 455.5 764.5 c 128,-1,30
 410 719 410 719 341.5 719 c 128,-1,31
 273 719 273 719 227.5 764.5 c 128,-1,32
 182 810 182 810 182 878 c 0,22,23
EndSplineSet
EndChar

StartChar: semicolon
Encoding: 59 59 49
Width: 683
GlyphClass: 2
Flags: W
LayerCount: 2
Fore
SplineSet
232 267 m 1,0,1
 281 310 281 310 330 310 c 0,2,3
 419 310 419 310 466 257.5 c 128,-1,4
 513 205 513 205 513 122 c 0,5,6
 513 -18 513 -18 434.5 -158.5 c 128,-1,7
 356 -299 356 -299 275 -351 c 1,8,-1
 223 -313 l 1,9,10
 300 -249 300 -249 336 -94 c 0,11,12
 347 -47 347 -47 349 -2 c 1,13,14
 283 -2 283 -2 233.5 43.5 c 128,-1,15
 184 89 184 89 184 156 c 128,-1,16
 184 223 184 223 232 267 c 1,0,1
182 878 m 0,17,18
 182 985 182 985 278 1027 c 0,19,20
 307 1039 307 1039 341 1039 c 0,21,22
 409 1039 409 1039 455 993 c 128,-1,23
 501 947 501 947 501 878.5 c 128,-1,24
 501 810 501 810 455.5 764.5 c 128,-1,25
 410 719 410 719 341.5 719 c 128,-1,26
 273 719 273 719 227.5 764.5 c 128,-1,27
 182 810 182 810 182 878 c 0,17,18
EndSplineSet
EndChar

StartChar: less
Encoding: 60 60 50
Width: 1535
GlyphClass: 2
Flags: W
LayerCount: 2
Fore
SplineSet
340 582 m 1,0,-1
 1159 1060 l 1,1,-1
 1159 946 l 1,2,-1
 468 545 l 1,3,-1
 1159 154 l 1,4,-1
 1159 30 l 1,5,-1
 340 508 l 1,6,-1
 340 582 l 1,0,-1
EndSplineSet
EndChar

StartChar: equal
Encoding: 61 61 51
Width: 1536
GlyphClass: 2
Flags: W
LayerCount: 2
Fore
SplineSet
270 780 m 1,0,-1
 1266 780 l 1,1,-1
 1266 680 l 1,2,-1
 270 680 l 1,3,-1
 270 780 l 1,0,-1
270 440 m 1,4,-1
 1266 440 l 1,5,-1
 1266 340 l 1,6,-1
 270 340 l 1,7,-1
 270 440 l 1,4,-1
EndSplineSet
EndChar

StartChar: greater
Encoding: 62 62 52
Width: 1535
GlyphClass: 2
Flags: W
LayerCount: 2
Fore
SplineSet
1162 582 m 1,0,-1
 343 1060 l 1,1,-1
 343 946 l 1,2,-1
 1034 545 l 1,3,-1
 343 154 l 1,4,-1
 343 30 l 1,5,-1
 1162 508 l 1,6,-1
 1162 582 l 1,0,-1
EndSplineSet
EndChar

StartChar: question
Encoding: 63 63 53
Width: 1364
GlyphClass: 2
Flags: W
LayerCount: 2
Fore
SplineSet
509 750 m 1,0,1
 719 821 719 821 844 976.5 c 128,-1,2
 969 1132 969 1132 969 1316 c 0,3,4
 969 1452 969 1452 884 1535 c 128,-1,5
 799 1618 799 1618 628.5 1618 c 128,-1,6
 458 1618 458 1618 362 1502 c 1,7,8
 414 1487 414 1487 446.5 1444 c 128,-1,9
 479 1401 479 1401 479 1354 c 0,10,11
 479 1275 479 1275 432.5 1227 c 128,-1,12
 386 1179 386 1179 315.5 1179 c 128,-1,13
 245 1179 245 1179 197.5 1226.5 c 128,-1,14
 150 1274 150 1274 150 1343 c 2,15,-1
 150 1354 l 2,16,17
 150 1359 150 1359 151 1364 c 1,18,19
 151 1423 151 1423 189 1483.5 c 128,-1,20
 227 1544 227 1544 293 1593 c 0,21,22
 443 1704 443 1704 667 1704 c 128,-1,23
 891 1704 891 1704 1054.5 1587 c 128,-1,24
 1218 1470 1218 1470 1218 1279 c 0,25,26
 1218 1000 1218 1000 950 826 c 0,27,28
 841 756 841 756 719 730 c 1,29,-1
 666 447 l 1,30,-1
 569 447 l 1,31,-1
 509 750 l 1,0,1
460 141 m 0,32,33
 460 248 460 248 556 290 c 0,34,35
 585 302 585 302 619 302 c 0,36,37
 687 302 687 302 733 256 c 128,-1,38
 779 210 779 210 779 141.5 c 128,-1,39
 779 73 779 73 733.5 27.5 c 128,-1,40
 688 -18 688 -18 619.5 -18 c 128,-1,41
 551 -18 551 -18 505.5 27.5 c 128,-1,42
 460 73 460 73 460 141 c 0,32,33
EndSplineSet
EndChar

StartChar: at
Encoding: 64 64 54
Width: 2385
GlyphClass: 2
Flags: W
LayerCount: 2
Fore
SplineSet
1838 -299 m 1,0,1
 1551 -420 1551 -420 1184.5 -420 c 128,-1,2
 818 -420 818 -420 544 -238 c 0,3,4
 333 -98 333 -98 246 149 c 0,5,6
 200 278 200 278 200 444.5 c 128,-1,7
 200 611 200 611 245.5 750.5 c 128,-1,8
 291 890 291 890 370 1002 c 0,9,10
 524 1218 524 1218 783 1335.5 c 128,-1,11
 1042 1453 1042 1453 1323 1453 c 0,12,13
 1696 1453 1696 1453 1940 1271 c 128,-1,14
 2184 1089 2184 1089 2184 783.5 c 128,-1,15
 2184 478 2184 478 2017 238 c 0,16,17
 1905 77 1905 77 1741 13 c 0,18,19
 1657 -20 1657 -20 1555.5 -20 c 128,-1,20
 1454 -20 1454 -20 1392 8.5 c 128,-1,21
 1330 37 1330 37 1317 108 c 1,22,23
 1176 -18 1176 -18 999 -18 c 0,24,25
 871 -18 871 -18 777.5 106 c 128,-1,26
 684 230 684 230 684 444 c 0,27,28
 684 709 684 709 860 882 c 0,29,30
 1022 1040 1022 1040 1242 1040 c 0,31,32
 1347 1040 1347 1040 1429 981 c 1,33,-1
 1435 1020 l 1,34,-1
 1675 1020 l 1,35,-1
 1565 219 l 1,36,-1
 1562 204 l 1,37,-1
 1556 153 l 1,38,39
 1556 71 1556 71 1608 71 c 0,40,41
 1733 71 1733 71 1850 180 c 0,42,43
 2018 338 2018 338 2076 611 c 0,44,45
 2094 696 2094 696 2094 807.5 c 128,-1,46
 2094 919 2094 919 2040 1028.5 c 128,-1,47
 1986 1138 1986 1138 1886 1214 c 0,48,49
 1679 1371 1679 1371 1323 1371 c 0,50,51
 1037 1371 1037 1371 801.5 1256 c 128,-1,52
 566 1141 566 1141 429.5 929.5 c 128,-1,53
 293 718 293 718 293 446 c 128,-1,54
 293 174 293 174 422 -2.5 c 128,-1,55
 551 -179 551 -179 750.5 -260.5 c 128,-1,56
 950 -342 950 -342 1167 -342 c 0,57,58
 1520 -342 1520 -342 1807 -222 c 1,59,-1
 1838 -299 l 1,0,1
1417 895 m 1,60,61
 1359 944 1359 944 1283.5 944 c 128,-1,62
 1208 944 1208 944 1161 923 c 128,-1,63
 1114 902 1114 902 1078 867 c 0,64,65
 1012 803 1012 803 977 694 c 128,-1,66
 942 585 942 585 942 514.5 c 128,-1,67
 942 444 942 444 945.5 404 c 128,-1,68
 949 364 949 364 958 324 c 0,69,70
 1001 123 1001 123 1130 123 c 0,71,72
 1232 123 1232 123 1323 234 c 1,73,-1
 1417 895 l 1,60,61
EndSplineSet
EndChar

StartChar: A
Encoding: 65 65 55
Width: 1534
GlyphClass: 2
Flags: W
LayerCount: 2
Fore
SplineSet
21 78 m 1,0,-1
 129 78 l 1,1,-1
 693 1530 l 1,2,-1
 809 1530 l 1,3,-1
 1412 78 l 1,4,-1
 1514 78 l 1,5,-1
 1514 0 l 1,6,-1
 969 0 l 1,7,-1
 969 78 l 1,8,-1
 1119 78 l 1,9,-1
 975 427 l 1,10,-1
 368 427 l 1,11,-1
 236 78 l 1,12,-1
 416 78 l 1,13,-1
 416 0 l 1,14,-1
 21 0 l 1,15,-1
 21 78 l 1,0,-1
943 505 m 1,16,-1
 659 1196 l 1,17,-1
 398 505 l 1,18,-1
 943 505 l 1,16,-1
EndSplineSet
EndChar

StartChar: B
Encoding: 66 66 56
Width: 1534
GlyphClass: 2
Flags: W
LayerCount: 2
Fore
SplineSet
106 78 m 1,0,-1
 276 78 l 1,1,-1
 277 1452 l 1,2,-1
 106 1452 l 1,3,-1
 106 1530 l 1,4,-1
 860 1530 l 2,5,6
 1095 1530 1095 1530 1209.5 1422.5 c 128,-1,7
 1324 1315 1324 1315 1324 1146 c 0,8,9
 1324 949 1324 949 1142 855 c 0,10,11
 1088 827 1088 827 1028 811 c 1,12,13
 1221 788 1221 788 1323 687 c 128,-1,14
 1425 586 1425 586 1425 439 c 0,15,16
 1425 237 1425 237 1277.5 118.5 c 128,-1,17
 1130 0 1130 0 856 0 c 2,18,-1
 106 0 l 1,19,-1
 106 78 l 1,0,-1
791 832 m 2,20,21
 1008 832 1008 832 1050 1018 c 0,22,23
 1063 1074 1063 1074 1063 1138 c 0,24,25
 1063 1290 1063 1290 1014 1358 c 1,26,27
 948 1452 948 1452 764 1452 c 2,28,-1
 546 1452 l 1,29,-1
 546 832 l 1,30,-1
 791 832 l 2,20,21
778 78 m 2,31,32
 960 78 960 78 1056.5 165 c 128,-1,33
 1153 252 1153 252 1153 412 c 0,34,35
 1153 647 1153 647 966 726 c 0,36,37
 898 755 898 755 800 755 c 2,38,-1
 546 755 l 1,39,-1
 546 78 l 1,40,-1
 778 78 l 2,31,32
EndSplineSet
EndChar

StartChar: C
Encoding: 67 67 57
Width: 1534
GlyphClass: 2
Flags: W
LayerCount: 2
Fore
SplineSet
1307 1422 m 1,0,1
 1347 1469 1347 1469 1349 1530 c 1,2,-1
 1431 1530 l 1,3,-1
 1431 1111 l 1,4,-1
 1346 1111 l 1,5,6
 1317 1277 1317 1277 1187.5 1372 c 128,-1,7
 1058 1467 1058 1467 906 1467 c 0,8,9
 400 1467 400 1467 404 760 c 1,10,11
 407 479 407 479 516 293 c 0,12,13
 642 78 642 78 882 78 c 0,14,15
 1065 78 1065 78 1191.5 142.5 c 128,-1,16
 1318 207 1318 207 1390 317 c 1,17,-1
 1442 269 l 1,18,19
 1404 178 1404 178 1284 95 c 0,20,21
 1119 -20 1119 -20 870 -20 c 0,22,23
 516 -20 516 -20 306 200.5 c 128,-1,24
 96 421 96 421 96 762 c 128,-1,25
 96 1103 96 1103 305.5 1326.5 c 128,-1,26
 515 1550 515 1550 888 1550 c 0,27,28
 1090 1550 1090 1550 1240 1468 c 0,29,30
 1282 1445 1282 1445 1307 1422 c 1,0,1
EndSplineSet
EndChar

StartChar: D
Encoding: 68 68 58
Width: 1707
GlyphClass: 2
Flags: W
LayerCount: 2
Fore
SplineSet
83 78 m 1,0,-1
 283 78 l 1,1,-1
 284 1452 l 1,2,-1
 83 1452 l 1,3,-1
 83 1530 l 1,4,-1
 757 1530 l 2,5,6
 1360 1530 1360 1530 1537 1149 c 0,7,8
 1610 992 1610 992 1610 777 c 0,9,10
 1610 491 1610 491 1444 278 c 0,11,12
 1310 107 1310 107 1055 37 c 0,13,14
 921 0 921 0 743 0 c 2,15,-1
 83 0 l 1,16,-1
 83 78 l 1,0,-1
731 78 m 2,17,18
 1046 78 1046 78 1182 235 c 128,-1,19
 1318 392 1318 392 1318 770 c 2,20,-1
 1318 801 l 1,21,22
 1312 1163 1312 1163 1172.5 1307.5 c 128,-1,23
 1033 1452 1033 1452 744 1452 c 2,24,-1
 553 1452 l 1,25,-1
 553 78 l 1,26,-1
 731 78 l 2,17,18
EndSplineSet
EndChar

StartChar: E
Encoding: 69 69 59
Width: 1535
GlyphClass: 2
Flags: W
LayerCount: 2
Fore
SplineSet
71 79 m 1,0,-1
 271 79 l 1,1,-1
 272 1452 l 1,2,-1
 71 1452 l 1,3,-1
 71 1530 l 1,4,-1
 1364 1530 l 1,5,-1
 1364 1094 l 1,6,-1
 1286 1094 l 1,7,8
 1281 1177 1281 1177 1272 1241.5 c 128,-1,9
 1263 1306 1263 1306 1234 1351 c 0,10,11
 1176 1443 1176 1443 998 1452 c 1,12,-1
 541 1452 l 1,13,-1
 541 824 l 1,14,-1
 791 824 l 2,15,16
 876 824 876 824 921.5 851.5 c 128,-1,17
 967 879 967 879 977 948 c 0,18,19
 979 968 979 968 980.5 990.5 c 128,-1,20
 982 1013 982 1013 984 1035 c 1,21,-1
 1068 1035 l 1,22,-1
 1068 519 l 1,23,-1
 984 519 l 1,24,25
 982 542 982 542 980.5 572 c 128,-1,26
 979 602 979 602 977 622 c 0,27,28
 967 691 967 691 920.5 718.5 c 128,-1,29
 874 746 874 746 791 746 c 2,30,-1
 541 746 l 1,31,-1
 541 78 l 1,32,-1
 969 78 l 2,33,34
 1232 78 1232 78 1288 321 c 0,35,36
 1304 391 1304 391 1309 465 c 1,37,-1
 1387 465 l 1,38,-1
 1387 0 l 1,39,-1
 71 0 l 1,40,-1
 71 79 l 1,0,-1
EndSplineSet
EndChar

StartChar: F
Encoding: 70 70 60
Width: 1367
GlyphClass: 2
Flags: W
LayerCount: 2
Fore
SplineSet
53 78 m 1,0,-1
 252 78 l 1,1,-1
 253 1452 l 1,2,-1
 52 1452 l 1,3,-1
 52 1530 l 1,4,-1
 1305 1530 l 1,5,-1
 1305 1089 l 1,6,-1
 1227 1089 l 1,7,8
 1216 1277 1216 1277 1166 1348 c 0,9,10
 1100 1443 1100 1443 919 1452 c 1,11,-1
 522 1452 l 1,12,-1
 522 795 l 1,13,-1
 738 795 l 2,14,15
 822 795 822 795 872.5 823 c 128,-1,16
 923 851 923 851 933 919 c 0,17,18
 935 939 935 939 936.5 964.5 c 128,-1,19
 938 990 938 990 940 1012 c 1,20,-1
 1022 1012 l 1,21,-1
 1022 489 l 1,22,-1
 940 489 l 1,23,24
 938 512 938 512 936.5 542.5 c 128,-1,25
 935 573 935 573 933 593 c 0,26,27
 915 717 915 717 738 717 c 2,28,-1
 522 717 l 1,29,-1
 522 78 l 1,30,-1
 846 78 l 1,31,-1
 846 0 l 1,32,-1
 53 0 l 1,33,-1
 53 78 l 1,0,-1
EndSplineSet
EndChar

StartChar: G
Encoding: 71 71 61
Width: 1707
GlyphClass: 2
Flags: W
LayerCount: 2
Fore
SplineSet
896 1550 m 0,0,1
 1240 1550 1240 1550 1382 1421 c 1,2,3
 1404 1446 1404 1446 1426 1530 c 1,4,-1
 1507 1530 l 1,5,-1
 1507 1111 l 1,6,-1
 1422 1111 l 1,7,8
 1374 1290 1374 1290 1240 1378.5 c 128,-1,9
 1106 1467 1106 1467 917 1467 c 0,10,11
 566 1467 566 1467 450 1108 c 0,12,13
 380 892 380 892 416 602 c 0,14,15
 467 198 467 198 752 92 c 0,16,17
 832 63 832 63 922 63 c 128,-1,18
 1012 63 1012 63 1075 79 c 128,-1,19
 1138 95 1138 95 1184.5 118.5 c 128,-1,20
 1231 142 1231 142 1258 168.5 c 128,-1,21
 1285 195 1285 195 1288 216 c 1,22,-1
 1288 601 l 1,23,-1
 1027 601 l 1,24,-1
 1027 679 l 1,25,-1
 1659 679 l 1,26,-1
 1659 601 l 1,27,-1
 1530 601 l 1,28,-1
 1530 192 l 1,29,30
 1469 107 1469 107 1292 43.5 c 128,-1,31
 1115 -20 1115 -20 926.5 -20 c 128,-1,32
 738 -20 738 -20 584.5 41.5 c 128,-1,33
 431 103 431 103 325 210 c 0,34,35
 107 430 107 430 107 759.5 c 128,-1,36
 107 1089 107 1089 326 1314 c 0,37,38
 471 1464 471 1464 688 1521 c 0,39,40
 798 1550 798 1550 896 1550 c 0,0,1
EndSplineSet
EndChar

StartChar: H
Encoding: 72 72 62
Width: 1707
GlyphClass: 2
Flags: W
LayerCount: 2
Fore
SplineSet
55 78 m 1,0,-1
 211 78 l 1,1,-1
 212 1452 l 1,2,-1
 55 1452 l 1,3,-1
 55 1530 l 1,4,-1
 650 1530 l 1,5,-1
 650 1452 l 1,6,-1
 481 1452 l 1,7,-1
 481 806 l 1,8,-1
 1225 806 l 1,9,-1
 1226 1452 l 1,10,-1
 1057 1452 l 1,11,-1
 1057 1530 l 1,12,-1
 1652 1530 l 1,13,-1
 1652 1452 l 1,14,-1
 1495 1452 l 1,15,-1
 1495 78 l 1,16,-1
 1651 78 l 1,17,-1
 1651 0 l 1,18,-1
 1057 0 l 1,19,-1
 1057 78 l 1,20,-1
 1225 78 l 1,21,-1
 1225 728 l 1,22,-1
 481 728 l 1,23,-1
 481 78 l 1,24,-1
 649 78 l 1,25,-1
 649 0 l 1,26,-1
 55 0 l 1,27,-1
 55 78 l 1,0,-1
EndSplineSet
EndChar

StartChar: I
Encoding: 73 73 63
Width: 854
GlyphClass: 2
Flags: W
LayerCount: 2
Fore
SplineSet
95 78 m 1,0,-1
 292 78 l 1,1,-1
 293 1452 l 1,2,-1
 95 1452 l 1,3,-1
 95 1530 l 1,4,-1
 759 1530 l 1,5,-1
 759 1452 l 1,6,-1
 562 1452 l 1,7,-1
 562 78 l 1,8,-1
 759 78 l 1,9,-1
 759 0 l 1,10,-1
 95 0 l 1,11,-1
 95 78 l 1,0,-1
EndSplineSet
EndChar

StartChar: J
Encoding: 74 74 64
Width: 854
GlyphClass: 2
Flags: W
LayerCount: 2
Fore
SplineSet
213.5 -240 m 128,-1,1
 248 -190 248 -190 268.5 -88.5 c 128,-1,2
 289 13 289 13 289 381 c 2,3,-1
 289 1452 l 1,4,-1
 101 1452 l 1,5,-1
 101 1530 l 1,6,-1
 756 1530 l 1,7,-1
 756 1452 l 1,8,-1
 559 1452 l 1,9,-1
 559 135 l 2,10,11
 559 -81 559 -81 445.5 -213 c 128,-1,12
 332 -345 332 -345 159 -391 c 1,13,-1
 118 -318 l 1,14,0
 179 -290 179 -290 213.5 -240 c 128,-1,1
EndSplineSet
EndChar

StartChar: K
Encoding: 75 75 65
Width: 1707
GlyphClass: 2
Flags: W
LayerCount: 2
Fore
SplineSet
141 78 m 1,0,-1
 331 78 l 1,1,-1
 332 1452 l 1,2,-1
 141 1452 l 1,3,-1
 141 1530 l 1,4,-1
 806 1530 l 1,5,-1
 806 1452 l 1,6,-1
 601 1452 l 1,7,-1
 601 755 l 1,8,-1
 1303 1452 l 1,9,-1
 1154 1452 l 1,10,-1
 1154 1530 l 1,11,-1
 1601 1530 l 1,12,-1
 1601 1452 l 1,13,-1
 1426 1452 l 1,14,-1
 878 908 l 1,15,-1
 1556 78 l 1,16,-1
 1698 78 l 1,17,-1
 1698 0 l 1,18,-1
 1068 0 l 1,19,-1
 1068 78 l 1,20,-1
 1215 78 l 1,21,-1
 700 732 l 1,22,-1
 601 634 l 1,23,-1
 601 78 l 1,24,-1
 806 78 l 1,25,-1
 806 0 l 1,26,-1
 141 0 l 1,27,-1
 141 78 l 1,0,-1
EndSplineSet
EndChar

StartChar: L
Encoding: 76 76 66
Width: 1367
GlyphClass: 2
Flags: W
LayerCount: 2
Fore
SplineSet
71 79 m 1,0,-1
 285 78 l 1,1,-1
 286 1453 l 1,2,-1
 118 1453 l 1,3,-1
 118 1530 l 1,4,-1
 733 1530 l 1,5,-1
 733 1453 l 1,6,-1
 555 1453 l 1,7,-1
 555 78 l 1,8,-1
 861 78 l 2,9,10
 1124 78 1124 78 1180 321 c 0,11,12
 1196 391 1196 391 1201 465 c 1,13,-1
 1279 465 l 1,14,-1
 1279 0 l 1,15,-1
 71 0 l 1,16,-1
 71 79 l 1,0,-1
EndSplineSet
EndChar

StartChar: M
Encoding: 77 77 67
Width: 2049
GlyphClass: 2
Flags: W
LayerCount: 2
Fore
SplineSet
62 78 m 1,0,-1
 246 78 l 1,1,-1
 246 1452 l 1,2,-1
 60 1452 l 1,3,-1
 60 1530 l 1,4,-1
 582 1530 l 1,5,-1
 1033 417 l 1,6,-1
 1481 1530 l 1,7,-1
 1986 1530 l 1,8,-1
 1986 1452 l 1,9,-1
 1791 1452 l 1,10,-1
 1791 78 l 1,11,-1
 2004 78 l 1,12,-1
 2004 0 l 1,13,-1
 1339 0 l 1,14,-1
 1339 78 l 1,15,-1
 1521 78 l 1,16,-1
 1522 1409 l 1,17,-1
 966 21 l 1,18,-1
 926 21 l 1,19,-1
 337 1416 l 1,20,-1
 337 78 l 1,21,-1
 518 78 l 1,22,-1
 518 0 l 1,23,-1
 62 0 l 1,24,-1
 62 78 l 1,0,-1
EndSplineSet
EndChar

StartChar: N
Encoding: 78 78 68
Width: 1707
GlyphClass: 2
Flags: W
LayerCount: 2
Fore
SplineSet
93 78 m 1,0,-1
 267 78 l 1,1,-1
 267 1452 l 1,2,-1
 93 1452 l 1,3,-1
 93 1530 l 1,4,-1
 546 1530 l 1,5,-1
 1356 325 l 1,6,-1
 1356 1452 l 1,7,-1
 1162 1452 l 1,8,-1
 1162 1530 l 1,9,-1
 1637 1530 l 1,10,-1
 1637 1452 l 1,11,-1
 1454 1452 l 1,12,-1
 1454 0 l 1,13,-1
 1268 0 l 1,14,-1
 365 1327 l 1,15,-1
 365 78 l 1,16,-1
 568 78 l 1,17,-1
 568 0 l 1,18,-1
 93 0 l 1,19,-1
 93 78 l 1,0,-1
EndSplineSet
EndChar

StartChar: O
Encoding: 79 79 69
Width: 1711
GlyphClass: 2
Flags: W
LayerCount: 2
Fore
SplineSet
119.5 565.5 m 128,-1,1
 98 664 98 664 98 764.5 c 128,-1,2
 98 865 98 865 119.5 961.5 c 128,-1,3
 141 1058 141 1058 183 1145 c 0,4,5
 271 1328 271 1328 442.5 1439 c 128,-1,6
 614 1550 614 1550 855 1550 c 0,7,8
 1221 1550 1221 1550 1428 1306 c 1,9,10
 1613 1086 1613 1086 1613 762 c 128,-1,11
 1613 438 1613 438 1426 218 c 0,12,13
 1298 68 1298 68 1089 10 c 0,14,15
 983 -20 983 -20 856.5 -20 c 128,-1,16
 730 -20 730 -20 625 9.5 c 128,-1,17
 520 39 520 39 436 92 c 128,-1,18
 352 145 352 145 288.5 218.5 c 128,-1,19
 225 292 225 292 183 379.5 c 128,-1,0
 141 467 141 467 119.5 565.5 c 128,-1,1
1216 296 m 0,20,21
 1254 365 1254 365 1289.5 481 c 128,-1,22
 1325 597 1325 597 1325 724.5 c 128,-1,23
 1325 852 1325 852 1313.5 937.5 c 128,-1,24
 1302 1023 1302 1023 1278 1100 c 0,25,26
 1225 1266 1225 1266 1119.5 1366.5 c 128,-1,27
 1014 1467 1014 1467 855 1467 c 0,28,29
 607 1467 607 1467 486 1245 c 0,30,31
 383 1054 383 1054 386.5 770.5 c 128,-1,32
 390 487 390 487 490 296 c 1,33,34
 614 63 614 63 851 63 c 128,-1,35
 1088 63 1088 63 1216 296 c 0,20,21
EndSplineSet
EndChar

StartChar: P
Encoding: 80 80 70
Width: 1364
GlyphClass: 2
Flags: W
LayerCount: 2
Fore
SplineSet
51 78 m 1,0,-1
 222 78 l 1,1,-1
 223 1452 l 1,2,-1
 52 1452 l 1,3,-1
 52 1530 l 1,4,-1
 701 1530 l 2,5,6
 1011 1530 1011 1530 1155.5 1403 c 128,-1,7
 1300 1276 1300 1276 1300 1041 c 128,-1,8
 1300 806 1300 806 1149.5 659.5 c 128,-1,9
 999 513 999 513 705 513 c 2,10,-1
 492 513 l 1,11,-1
 492 78 l 1,12,-1
 745 78 l 1,13,-1
 745 0 l 1,14,-1
 51 0 l 1,15,-1
 51 78 l 1,0,-1
680 582 m 2,16,17
 919 582 919 582 992 842 c 0,18,19
 1019 935 1019 935 1019 1034 c 0,20,21
 1019 1232 1019 1232 940 1336 c 1,22,23
 855 1452 855 1452 682 1452 c 2,24,-1
 492 1452 l 1,25,-1
 492 582 l 1,26,-1
 680 582 l 2,16,17
EndSplineSet
EndChar

StartChar: Q
Encoding: 81 81 71
Width: 1711
GlyphClass: 2
Flags: W
LayerCount: 2
Fore
SplineSet
650 -305 m 0,0,1
 523 -305 523 -305 416 -421 c 1,2,-1
 363 -387 l 1,3,4
 396 -297 396 -297 570 -181 c 0,5,6
 616 -150 616 -150 657 -127 c 2,7,-1
 852 -20 l 1,8,9
 614 -20 614 -20 443 88 c 128,-1,10
 272 196 272 196 185 375 c 128,-1,11
 98 554 98 554 98 767 c 0,12,13
 98 1084 98 1084 288 1306 c 0,14,15
 498 1550 498 1550 859.5 1550 c 128,-1,16
 1221 1550 1221 1550 1428 1306 c 1,17,18
 1613 1086 1613 1086 1613 783 c 128,-1,19
 1613 480 1613 480 1468 274 c 1,20,21
 1312 49 1312 49 1029 -4 c 1,22,-1
 833 -122 l 1,23,24
 882 -135 882 -135 927 -154 c 1,25,26
 927 -154 927 -154 1020 -190 c 1,27,28
 1132 -231 1132 -231 1224 -231 c 0,29,30
 1347 -231 1347 -231 1453 -115 c 1,31,-1
 1505 -149 l 1,32,33
 1476 -232 1476 -232 1378 -333.5 c 128,-1,34
 1280 -435 1280 -435 1170 -435 c 0,35,36
 1099 -435 1099 -435 1030.5 -414.5 c 128,-1,37
 962 -394 962 -394 895 -370 c 0,38,39
 714 -305 714 -305 650 -305 c 0,0,1
1216 296 m 0,40,41
 1254 365 1254 365 1289.5 481 c 128,-1,42
 1325 597 1325 597 1325 724.5 c 128,-1,43
 1325 852 1325 852 1313.5 937.5 c 128,-1,44
 1302 1023 1302 1023 1278 1100 c 0,45,46
 1225 1266 1225 1266 1119.5 1366.5 c 128,-1,47
 1014 1467 1014 1467 855 1467 c 0,48,49
 607 1467 607 1467 486 1245 c 0,50,51
 383 1054 383 1054 386.5 770.5 c 128,-1,52
 390 487 390 487 490 296 c 1,53,54
 614 63 614 63 851 63 c 128,-1,55
 1088 63 1088 63 1216 296 c 0,40,41
EndSplineSet
EndChar

StartChar: R
Encoding: 82 82 72
Width: 1534
GlyphClass: 2
Flags: W
LayerCount: 2
Fore
SplineSet
755 1530 m 2,0,1
 1330 1530 1330 1530 1330 1144 c 0,2,3
 1330 969 1330 969 1224 865 c 128,-1,4
 1118 761 1118 761 940 732 c 1,5,6
 1175 693 1175 693 1262 490 c 0,7,8
 1297 408 1297 408 1323.5 309.5 c 128,-1,9
 1350 211 1350 211 1371 170 c 0,10,11
 1417 78 1417 78 1507 78 c 2,12,-1
 1547 78 l 1,13,-1
 1549 -5 l 1,14,-1
 1408 -5 l 2,15,16
 1212 -5 1212 -5 1144 48 c 0,17,18
 1075 102 1075 102 1039 261 c 0,19,20
 1006 406 1006 406 985 459 c 0,21,22
 941 573 941 573 871 638 c 128,-1,23
 801 703 801 703 690 703 c 2,24,-1
 507 703 l 1,25,-1
 507 78 l 1,26,-1
 741 78 l 1,27,-1
 741 0 l 1,28,-1
 76 0 l 1,29,-1
 76 78 l 1,30,-1
 237 78 l 1,31,-1
 238 1452 l 1,32,-1
 76 1452 l 1,33,-1
 76 1530 l 1,34,-1
 755 1530 l 2,0,1
737 772 m 2,35,36
 919 772 919 772 993 889 c 0,37,38
 1047 974 1047 974 1047 1130 c 128,-1,39
 1047 1286 1047 1286 984 1360 c 0,40,41
 906 1452 906 1452 719 1452 c 2,42,-1
 507 1452 l 1,43,-1
 507 772 l 1,44,-1
 737 772 l 2,35,36
EndSplineSet
EndChar

StartChar: S
Encoding: 83 83 73
Width: 1366
GlyphClass: 2
Flags: W
LayerCount: 2
Fore
SplineSet
307 116 m 1,0,1
 266 70 266 70 266 0 c 1,2,-1
 177 0 l 1,3,-1
 177 408 l 1,4,-1
 280 408 l 1,5,6
 319 254 319 254 442.5 158.5 c 128,-1,7
 566 63 566 63 741 63 c 0,8,9
 960 63 960 63 1034 184 c 0,10,11
 1058 225 1058 225 1058 276 c 0,12,13
 1058 385 1058 385 981 463 c 128,-1,14
 904 541 904 541 717.5 609.5 c 128,-1,15
 531 678 531 678 435.5 735 c 128,-1,16
 340 792 340 792 285 855 c 0,17,18
 188 966 188 966 188 1146 c 128,-1,19
 188 1326 188 1326 342.5 1438 c 128,-1,20
 497 1550 497 1550 718 1550 c 0,21,22
 843 1550 843 1550 930.5 1521 c 128,-1,23
 1018 1492 1018 1492 1064 1453 c 1,24,25
 1088 1488 1088 1488 1090 1530 c 1,26,-1
 1183 1530 l 1,27,-1
 1183 1158 l 1,28,-1
 1087 1158 l 1,29,30
 1072 1306 1072 1306 963.5 1386.5 c 128,-1,31
 855 1467 855 1467 712.5 1467 c 128,-1,32
 570 1467 570 1467 480 1408.5 c 128,-1,33
 390 1350 390 1350 390 1249 c 128,-1,34
 390 1148 390 1148 474 1072 c 128,-1,35
 558 996 558 996 817 882 c 1,36,37
 1060 783 1060 783 1156 681.5 c 128,-1,38
 1252 580 1252 580 1252 431 c 0,39,40
 1252 221 1252 221 1104.5 100.5 c 128,-1,41
 957 -20 957 -20 747.5 -20 c 128,-1,42
 538 -20 538 -20 383 64 c 0,43,44
 337 89 337 89 307 116 c 1,0,1
EndSplineSet
EndChar

StartChar: T
Encoding: 84 84 74
Width: 1535
GlyphClass: 2
Flags: W
LayerCount: 2
Fore
SplineSet
433 78 m 1,0,-1
 632 78 l 1,1,-1
 633 1453 l 1,2,-1
 447 1453 l 1,3,4
 282 1442 282 1442 217 1331 c 0,5,6
 167 1246 167 1246 158 1049 c 1,7,-1
 80 1049 l 1,8,-1
 80 1530 l 1,9,-1
 1454 1530 l 1,10,-1
 1454 1049 l 1,11,-1
 1376 1049 l 1,12,13
 1367 1244 1367 1244 1316 1331 c 0,14,15
 1251 1442 1251 1442 1087 1453 c 1,16,-1
 902 1453 l 1,17,-1
 902 78 l 1,18,-1
 1102 78 l 1,19,-1
 1102 0 l 1,20,-1
 433 0 l 1,21,-1
 433 78 l 1,0,-1
EndSplineSet
EndChar

StartChar: U
Encoding: 85 85 75
Width: 1539
GlyphClass: 2
Flags: W
LayerCount: 2
Fore
SplineSet
183 1452 m 1,0,-1
 46 1452 l 1,1,-1
 46 1530 l 1,2,-1
 598 1530 l 1,3,-1
 598 1452 l 1,4,-1
 452 1452 l 1,5,-1
 452 525 l 2,6,7
 452 162 452 162 656 95 c 0,8,9
 724 73 724 73 788.5 73 c 128,-1,10
 853 73 853 73 900.5 79 c 128,-1,11
 948 85 948 85 995 102 c 0,12,13
 1100 142 1100 142 1167.5 246 c 128,-1,14
 1235 350 1235 350 1235 543 c 2,15,-1
 1235 1452 l 1,16,-1
 1079 1452 l 1,17,-1
 1079 1530 l 1,18,-1
 1479 1530 l 1,19,-1
 1479 1452 l 1,20,-1
 1333 1452 l 1,21,-1
 1333 529 l 2,22,23
 1333 252 1333 252 1189 116 c 128,-1,24
 1045 -20 1045 -20 798 -20 c 0,25,26
 333 -20 333 -20 214 332 c 0,27,28
 182 426 182 426 182 559 c 2,29,-1
 183 1452 l 1,0,-1
EndSplineSet
EndChar

StartChar: V
Encoding: 86 86 76
Width: 1539
GlyphClass: 2
Flags: W
LayerCount: 2
Fore
SplineSet
121 1452 m 1,0,-1
 -13 1452 l 1,1,-1
 -13 1530 l 1,2,-1
 627 1530 l 1,3,-1
 627 1452 l 1,4,-1
 434 1452 l 1,5,-1
 877 317 l 1,6,-1
 1293 1452 l 1,7,-1
 1105 1452 l 1,8,-1
 1105 1530 l 1,9,-1
 1555 1530 l 1,10,-1
 1555 1452 l 1,11,-1
 1401 1452 l 1,12,-1
 846 -20 l 1,13,-1
 761 -20 l 1,14,-1
 121 1452 l 1,0,-1
EndSplineSet
EndChar

StartChar: W
Encoding: 87 87 77
Width: 2220
GlyphClass: 2
Flags: W
LayerCount: 2
Fore
SplineSet
98 1452 m 1,0,-1
 -49 1452 l 1,1,-1
 -49 1530 l 1,2,-1
 596 1530 l 1,3,-1
 596 1452 l 1,4,-1
 396 1452 l 1,5,-1
 773 343 l 1,6,-1
 1165 1530 l 1,7,-1
 1238 1530 l 1,8,-1
 1673 348 l 1,9,-1
 2034 1452 l 1,10,-1
 1843 1452 l 1,11,-1
 1843 1530 l 1,12,-1
 2293 1530 l 1,13,-1
 2293 1452 l 1,14,-1
 2138 1452 l 1,15,-1
 1642 -20 l 1,16,-1
 1550 -20 l 1,17,-1
 1115 1088 l 1,18,-1
 743 -20 l 1,19,-1
 653 -20 l 1,20,-1
 98 1452 l 1,0,-1
EndSplineSet
EndChar

StartChar: X
Encoding: 88 88 78
Width: 1538
GlyphClass: 2
Flags: W
LayerCount: 2
Fore
SplineSet
17 78 m 1,0,-1
 187 78 l 1,1,-1
 655 705 l 1,2,-1
 161 1452 l 1,3,-1
 15 1452 l 1,4,-1
 15 1530 l 1,5,-1
 650 1530 l 1,6,-1
 650 1452 l 1,7,-1
 465 1452 l 1,8,-1
 831 906 l 1,9,-1
 1233 1452 l 1,10,-1
 1064 1452 l 1,11,-1
 1064 1531 l 1,12,-1
 1514 1531 l 1,13,-1
 1514 1452 l 1,14,-1
 1343 1452 l 1,15,-1
 883 828 l 1,16,-1
 1387 78 l 1,17,-1
 1523 78 l 1,18,-1
 1523 0 l 1,19,-1
 889 0 l 1,20,-1
 889 78 l 1,21,-1
 1071 78 l 1,22,-1
 707 626 l 1,23,-1
 301 78 l 1,24,-1
 484 78 l 1,25,-1
 484 0 l 1,26,-1
 17 0 l 1,27,-1
 17 78 l 1,0,-1
EndSplineSet
EndChar

StartChar: Y
Encoding: 89 89 79
Width: 1539
GlyphClass: 2
Flags: W
LayerCount: 2
Fore
SplineSet
448 78 m 1,0,-1
 646 78 l 1,1,-1
 647 590 l 1,2,-1
 135 1452 l 1,3,-1
 10 1452 l 1,4,-1
 10 1530 l 1,5,-1
 654 1530 l 1,6,-1
 654 1452 l 1,7,-1
 451 1452 l 1,8,-1
 860 733 l 1,9,-1
 1266 1452 l 1,10,-1
 1082 1452 l 1,11,-1
 1082 1530 l 1,12,-1
 1524 1530 l 1,13,-1
 1524 1452 l 1,14,-1
 1373 1452 l 1,15,-1
 916 652 l 1,16,-1
 916 78 l 1,17,-1
 1115 78 l 1,18,-1
 1115 0 l 1,19,-1
 448 0 l 1,20,-1
 448 78 l 1,0,-1
EndSplineSet
EndChar

StartChar: Z
Encoding: 90 90 80
Width: 1538
GlyphClass: 2
Flags: W
LayerCount: 2
Fore
SplineSet
140 117 m 1,0,-1
 1091 1452 l 1,1,-1
 646 1452 l 2,2,3
 453 1452 453 1452 386 1372 c 128,-1,4
 319 1292 319 1292 304 1091 c 1,5,-1
 212 1091 l 1,6,-1
 212 1530 l 1,7,-1
 1375 1530 l 1,8,-1
 1375 1415 l 1,9,-1
 437 78 l 1,10,-1
 1010 78 l 2,11,12
 1202 78 1202 78 1268 180 c 0,13,14
 1315 252 1315 252 1320 437 c 1,15,-1
 1413 437 l 1,16,-1
 1413 0 l 1,17,-1
 140 0 l 1,18,-1
 140 117 l 1,0,-1
EndSplineSet
EndChar

StartChar: bracketleft
Encoding: 91 91 81
Width: 1024
GlyphClass: 2
Flags: W
LayerCount: 2
Fore
SplineSet
341 1767 m 1,0,-1
 809 1767 l 1,1,-1
 809 1689 l 1,2,-1
 544 1689 l 1,3,-1
 544 -482 l 1,4,-1
 808 -482 l 1,5,-1
 808 -560 l 1,6,-1
 341 -560 l 1,7,-1
 341 1767 l 1,0,-1
EndSplineSet
EndChar

StartChar: backslash
Encoding: 92 92 82
Width: 1025
GlyphClass: 2
Flags: W
LayerCount: 2
Fore
SplineSet
163 1683 m 1,0,-1
 6 1683 l 1,1,-1
 861 -554 l 1,2,-1
 1019 -554 l 1,3,-1
 163 1683 l 1,0,-1
EndSplineSet
EndChar

StartChar: bracketright
Encoding: 93 93 83
Width: 1024
GlyphClass: 2
Flags: W
LayerCount: 2
Fore
SplineSet
683 1767 m 1,0,-1
 215 1767 l 1,1,-1
 215 1689 l 1,2,-1
 480 1689 l 1,3,-1
 480 -482 l 1,4,-1
 216 -482 l 1,5,-1
 216 -560 l 1,6,-1
 683 -560 l 1,7,-1
 683 1767 l 1,0,-1
EndSplineSet
EndChar

StartChar: asciicircum
Encoding: 94 94 84
Width: 1707
GlyphClass: 2
Flags: W
LayerCount: 2
Fore
SplineSet
816 1527 m 1,0,-1
 891 1527 l 1,1,-1
 1364 543 l 1,2,-1
 1245 543 l 1,3,-1
 850 1389 l 1,4,-1
 460 543 l 1,5,-1
 341 543 l 1,6,-1
 816 1527 l 1,0,-1
EndSplineSet
EndChar

StartChar: underscore
Encoding: 95 95 85
Width: 1368
GlyphClass: 2
Flags: W
LayerCount: 2
Fore
SplineSet
1378 -205 m 1,0,-1
 1378 -333 l 1,1,-1
 -10 -333 l 1,2,-1
 -10 -205 l 1,3,-1
 1378 -205 l 1,0,-1
EndSplineSet
EndChar

StartChar: grave
Encoding: 96 96 86
Width: 1707
GlyphClass: 2
Flags: W
LayerCount: 2
Fore
SplineSet
466 1406 m 2,0,1
 407 1442 407 1442 412 1517 c 1,2,3
 414 1566 414 1566 452 1594 c 128,-1,4
 490 1622 490 1622 530.5 1617.5 c 128,-1,5
 571 1613 571 1613 591 1597.5 c 128,-1,6
 611 1582 611 1582 631 1552 c 2,7,-1
 851 1218 l 1,8,-1
 820 1184 l 1,9,-1
 466 1406 l 2,0,1
EndSplineSet
EndChar

StartChar: a
Encoding: 97 97 87
Width: 1195
GlyphClass: 2
Flags: W
LayerCount: 2
Fore
SplineSet
765 113 m 1,0,1
 649 -20 649 -20 454 -20 c 0,2,3
 306 -20 306 -20 199 62.5 c 128,-1,4
 92 145 92 145 92 278.5 c 128,-1,5
 92 412 92 412 197 488.5 c 128,-1,6
 302 565 302 565 467.5 565 c 128,-1,7
 633 565 633 565 744 482 c 1,8,-1
 744 720 l 2,9,10
 744 841 744 841 714 884 c 128,-1,11
 684 927 684 927 643.5 944 c 128,-1,12
 603 961 603 961 554 961 c 0,13,14
 477 961 477 961 424 943.5 c 128,-1,15
 371 926 371 926 353 908 c 1,16,17
 399 894 399 894 424 838 c 0,18,19
 432 818 432 818 432 790 c 0,20,21
 432 735 432 735 392 698.5 c 128,-1,22
 352 662 352 662 312 662 c 0,23,24
 242 662 242 662 203 699 c 128,-1,25
 164 736 164 736 164 788 c 128,-1,26
 164 840 164 840 183 873.5 c 128,-1,27
 202 907 202 907 234 934 c 0,28,29
 295 985 295 985 387.5 1012 c 128,-1,30
 480 1039 480 1039 561 1039 c 0,31,32
 786 1039 786 1039 894 948 c 128,-1,33
 1002 857 1002 857 1002 694 c 2,34,-1
 1002 161 l 2,35,36
 1002 78 1002 78 1043 78 c 128,-1,37
 1084 78 1084 78 1122 128 c 1,38,-1
 1174 85 l 1,39,40
 1106 -18 1106 -18 952 -18 c 0,41,42
 898 -18 898 -18 842.5 16 c 128,-1,43
 787 50 787 50 765 113 c 1,0,1
747 393 m 1,44,45
 662 476 662 476 561 476 c 128,-1,46
 460 476 460 476 409 428.5 c 128,-1,47
 358 381 358 381 358 276 c 0,48,49
 358 121 358 121 467 88 c 0,50,51
 498 78 498 78 530 78 c 0,52,53
 621 78 621 78 704 148 c 0,54,55
 728 169 728 169 747 193 c 1,56,-1
 747 393 l 1,44,45
EndSplineSet
EndChar

StartChar: b
Encoding: 98 98 88
Width: 1365
GlyphClass: 2
Flags: W
LayerCount: 2
Fore
SplineSet
471 914 m 1,0,1
 587 1040 587 1040 826 1040 c 0,2,3
 904 1040 904 1040 989.5 1009.5 c 128,-1,4
 1075 979 1075 979 1140 914 c 0,5,6
 1279 773 1279 773 1279 520 c 128,-1,7
 1279 267 1279 267 1134 123.5 c 128,-1,8
 989 -20 989 -20 780 -20 c 0,9,10
 646 -20 646 -20 533 35 c 0,11,12
 498 52 498 52 471 73 c 1,13,-1
 471 0 l 1,14,-1
 61 0 l 1,15,-1
 61 78 l 1,16,-1
 211 78 l 1,17,-1
 211 1604 l 1,18,-1
 61 1604 l 1,19,-1
 61 1684 l 1,20,-1
 471 1684 l 1,21,-1
 471 914 l 1,0,1
738 66 m 0,22,23
 999 66 999 66 999 506 c 0,24,25
 999 833 999 833 858 918 c 0,26,27
 809 948 809 948 733 947 c 128,-1,28
 657 946 657 946 586.5 904 c 128,-1,29
 516 862 516 862 471 793 c 1,30,-1
 471 180 l 1,31,32
 546 99 546 99 668 74 c 0,33,34
 704 66 704 66 738 66 c 0,22,23
EndSplineSet
EndChar

StartChar: c
Encoding: 99 99 89
Width: 1026
GlyphClass: 2
Flags: W
LayerCount: 2
Fore
SplineSet
998 144 m 1,0,1
 870 -20 870 -20 604 -20 c 0,2,3
 510 -20 510 -20 407 16 c 128,-1,4
 304 52 304 52 228 121 c 0,5,6
 67 269 67 269 67 513.5 c 128,-1,7
 67 758 67 758 224.5 899 c 128,-1,8
 382 1040 382 1040 624 1040 c 0,9,10
 762 1040 762 1040 879.5 978.5 c 128,-1,11
 997 917 997 917 997 805 c 0,12,13
 997 745 997 745 959 707 c 128,-1,14
 921 669 921 669 878 669 c 0,15,16
 807 669 807 669 768 702 c 128,-1,17
 729 735 729 735 729 791 c 0,18,19
 729 882 729 882 802 917 c 1,20,21
 728 963 728 963 631 963 c 0,22,23
 343 963 343 963 343 514 c 0,24,25
 343 198 343 198 517 106 c 0,26,27
 575 76 575 76 652 76 c 0,28,29
 834 76 834 76 946 192 c 1,30,-1
 998 144 l 1,0,1
EndSplineSet
EndChar

StartChar: d
Encoding: 100 100 90
Width: 1365
GlyphClass: 2
Flags: W
LayerCount: 2
Fore
SplineSet
925 104 m 1,0,1
 807 -20 807 -20 572 -20 c 0,2,3
 494 -20 494 -20 408.5 10.5 c 128,-1,4
 323 41 323 41 258.5 106 c 128,-1,5
 194 171 194 171 156.5 271.5 c 128,-1,6
 119 372 119 372 119 504 c 0,7,8
 119 752 119 752 264 896 c 128,-1,9
 409 1040 409 1040 618 1040 c 0,10,11
 750 1040 750 1040 862 986 c 0,12,13
 898 969 898 969 925 948 c 1,14,-1
 925 1606 l 1,15,-1
 718 1606 l 1,16,-1
 718 1684 l 1,17,-1
 1185 1684 l 1,18,-1
 1185 78 l 1,19,-1
 1333 78 l 1,20,-1
 1333 0 l 1,21,-1
 925 0 l 1,22,-1
 925 104 l 1,0,1
660 954 m 0,23,24
 399 954 399 954 399 514 c 0,25,26
 399 187 399 187 540 102 c 0,27,28
 589 72 589 72 664.5 72.5 c 128,-1,29
 740 73 740 73 809.5 114 c 128,-1,30
 879 155 879 155 925 224 c 1,31,-1
 925 842 l 1,32,33
 848 922 848 922 729 946 c 0,34,35
 693 954 693 954 660 954 c 0,23,24
EndSplineSet
EndChar

StartChar: e
Encoding: 101 101 91
Width: 1194
GlyphClass: 2
Flags: W
LayerCount: 2
Fore
SplineSet
1072 175 m 1,0,1
 915 -20 915 -20 625 -20 c 0,2,3
 529 -20 529 -20 425 20.5 c 128,-1,4
 321 61 321 61 248 132 c 1,5,6
 97 282 97 282 97 514.5 c 128,-1,7
 97 747 97 747 249 893 c 128,-1,8
 401 1039 401 1039 635 1039 c 0,9,10
 979 1039 979 1039 1068 751 c 0,11,12
 1097 659 1097 659 1097 544 c 1,13,-1
 373 544 l 1,14,-1
 373 514 l 2,15,16
 373 205 373 205 548 108 c 0,17,18
 607 75 607 75 689 75 c 0,19,20
 871 75 871 75 1019 223 c 1,21,-1
 1072 175 l 1,0,1
828 626 m 1,22,23
 826 786 826 786 779 870.5 c 128,-1,24
 732 955 732 955 625 955 c 0,25,26
 408 955 408 955 378 626 c 1,27,-1
 828 626 l 1,22,23
EndSplineSet
EndChar

StartChar: f
Encoding: 102 102 92
Width: 855
GlyphClass: 2
Flags: W
LayerCount: 2
Fore
SplineSet
720 1430 m 0,0,1
 720 1546 720 1546 826 1563 c 1,2,3
 815 1587 815 1587 778.5 1604 c 128,-1,4
 742 1621 742 1621 696 1621 c 0,5,6
 610 1621 610 1621 579 1548.5 c 128,-1,7
 548 1476 548 1476 548 1325 c 2,8,-1
 548 1023 l 1,9,-1
 752 1023 l 1,10,-1
 772 945 l 1,11,-1
 547 945 l 1,12,-1
 547 78 l 1,13,-1
 757 78 l 1,14,-1
 757 0 l 1,15,-1
 125 0 l 1,16,-1
 125 78 l 1,17,-1
 287 78 l 1,18,-1
 287 945 l 1,19,-1
 125 945 l 1,20,-1
 125 1023 l 1,21,-1
 287 1023 l 1,22,-1
 287 1276 l 2,23,24
 287 1484 287 1484 391 1592 c 128,-1,25
 495 1700 495 1700 668 1700 c 0,26,27
 803 1700 803 1700 886.5 1630 c 128,-1,28
 970 1560 970 1560 970 1464 c 128,-1,29
 970 1368 970 1368 889 1334 c 0,30,31
 866 1325 866 1325 829 1325 c 128,-1,32
 792 1325 792 1325 756 1357 c 128,-1,33
 720 1389 720 1389 720 1430 c 0,0,1
EndSplineSet
EndChar

StartChar: g
Encoding: 103 103 93
Width: 1194
GlyphClass: 2
Flags: W
LayerCount: 2
Fore
SplineSet
687 130 m 2,0,1
 1161 130 1161 130 1161 -181 c 0,2,3
 1161 -367 1161 -367 1002 -463.5 c 128,-1,4
 843 -560 843 -560 612 -560 c 0,5,6
 262 -560 262 -560 142 -421 c 0,7,8
 98 -371 98 -371 98 -314 c 0,9,10
 98 -220 98 -220 158 -156 c 128,-1,11
 218 -92 218 -92 311 -65 c 1,12,13
 230 -51 230 -51 176 3 c 256,14,15
 122 57 122 57 122 112 c 0,16,17
 122 202 122 202 172.5 265.5 c 128,-1,18
 223 329 223 329 299 368 c 1,19,20
 144 473 144 473 144 647 c 128,-1,21
 144 821 144 821 275.5 930 c 128,-1,22
 407 1039 407 1039 579.5 1039 c 128,-1,23
 752 1039 752 1039 871 964 c 1,24,25
 928 974 928 974 961 1001 c 1,26,27
 897 1038 897 1038 897 1096.5 c 128,-1,28
 897 1155 897 1155 923 1182 c 0,29,30
 970 1232 970 1232 1022 1232 c 128,-1,31
 1074 1232 1074 1232 1110.5 1197 c 128,-1,32
 1147 1162 1147 1162 1147 1099 c 128,-1,33
 1147 1036 1147 1036 1078.5 979.5 c 128,-1,34
 1010 923 1010 923 941 909 c 1,35,36
 1052 800 1052 800 1052 646 c 128,-1,37
 1052 492 1052 492 919.5 388.5 c 128,-1,38
 787 285 787 285 593 285 c 0,39,40
 464 285 464 285 362 332 c 1,41,42
 256 287 256 287 256 215 c 0,43,44
 256 130 256 130 406 130 c 2,45,-1
 687 130 l 2,0,1
592 368 m 0,46,47
 808 368 808 368 808 662 c 128,-1,48
 808 956 808 956 597 956 c 0,49,50
 429 956 429 956 398 772 c 0,51,52
 388 717 388 717 388 655 c 0,53,54
 388 445 388 445 490 390 c 0,55,56
 530 368 530 368 592 368 c 0,46,47
293 -284 m 0,57,58
 293 -477 293 -477 622 -477 c 0,59,60
 790 -477 790 -477 882.5 -417 c 128,-1,61
 975 -357 975 -357 975 -267 c 0,62,63
 975 -143 975 -143 856 -95 c 0,64,65
 813 -78 813 -78 751 -78 c 2,66,-1
 446 -78 l 1,67,68
 378 -96 378 -96 335.5 -152 c 128,-1,69
 293 -208 293 -208 293 -284 c 0,57,58
EndSplineSet
EndChar

StartChar: h
Encoding: 104 104 94
Width: 1363
GlyphClass: 2
Flags: W
LayerCount: 2
Fore
SplineSet
55 78 m 1,0,-1
 217 78 l 1,1,-1
 217 1606 l 1,2,-1
 45 1606 l 1,3,-1
 45 1684 l 1,4,-1
 477 1684 l 1,5,-1
 477 899 l 1,6,7
 623 1040 623 1040 821 1040 c 0,8,9
 954 1040 954 1040 1058 972 c 1,10,11
 1190 884 1190 884 1190 692 c 2,12,-1
 1190 78 l 1,13,-1
 1352 78 l 1,14,-1
 1352 0 l 1,15,-1
 768 0 l 1,16,-1
 768 78 l 1,17,-1
 930 78 l 1,18,-1
 930 712 l 2,19,20
 930 829 930 829 905.5 871 c 128,-1,21
 881 913 881 913 850.5 929 c 128,-1,22
 820 945 820 945 757.5 945 c 128,-1,23
 695 945 695 945 617 907 c 128,-1,24
 539 869 539 869 477 793 c 1,25,-1
 477 78 l 1,26,-1
 639 78 l 1,27,-1
 639 0 l 1,28,-1
 55 0 l 1,29,-1
 55 78 l 1,0,-1
EndSplineSet
EndChar

StartChar: i
Encoding: 105 105 95
Width: 683
GlyphClass: 2
Flags: W
LayerCount: 2
Fore
SplineSet
356 1227 m 128,-1,1
 299 1227 299 1227 258 1266.5 c 128,-1,2
 217 1306 217 1306 217 1350 c 0,3,4
 217 1424 217 1424 257 1464 c 128,-1,5
 297 1504 297 1504 355 1504 c 0,6,7
 447 1504 447 1504 482 1420 c 0,8,9
 493 1395 493 1395 493 1366 c 0,10,11
 493 1307 493 1307 453 1267 c 128,-1,0
 413 1227 413 1227 356 1227 c 128,-1,1
61 78 m 1,12,-1
 223 78 l 1,13,-1
 223 945 l 1,14,-1
 75 945 l 1,15,-1
 75 1023 l 1,16,-1
 488 1023 l 1,17,-1
 488 78 l 1,18,-1
 650 78 l 1,19,-1
 650 0 l 1,20,-1
 61 0 l 1,21,-1
 61 78 l 1,12,-1
EndSplineSet
EndChar

StartChar: j
Encoding: 106 106 96
Width: 683
GlyphClass: 2
Flags: W
LayerCount: 2
Fore
SplineSet
369 1227 m 128,-1,1
 312 1227 312 1227 271 1266.5 c 128,-1,2
 230 1306 230 1306 230 1350 c 0,3,4
 230 1424 230 1424 270 1464 c 128,-1,5
 310 1504 310 1504 368 1504 c 0,6,7
 460 1504 460 1504 496 1420 c 0,8,9
 506 1395 506 1395 506 1366 c 0,10,11
 506 1306 506 1306 466 1266.5 c 128,-1,0
 426 1227 426 1227 369 1227 c 128,-1,1
233 945 m 1,12,-1
 86 945 l 1,13,-1
 86 1023 l 1,14,-1
 498 1023 l 1,15,-1
 498 -45 l 2,16,17
 498 -410 498 -410 276 -518 c 0,18,19
 191 -560 191 -560 83 -560 c 1,20,-1
 63 -484 l 1,21,22
 119 -484 119 -484 152.5 -458.5 c 128,-1,23
 186 -433 186 -433 209.5 -358 c 128,-1,24
 233 -283 233 -283 233 7 c 2,25,-1
 233 945 l 1,12,-1
EndSplineSet
EndChar

StartChar: k
Encoding: 107 107 97
Width: 1367
GlyphClass: 2
Flags: W
LayerCount: 2
Fore
SplineSet
59 78 m 1,0,-1
 212 78 l 1,1,-1
 212 1606 l 1,2,-1
 59 1606 l 1,3,-1
 59 1684 l 1,4,-1
 472 1684 l 1,5,-1
 472 516 l 1,6,-1
 978 946 l 1,7,-1
 792 946 l 1,8,-1
 792 1023 l 1,9,-1
 1238 1023 l 1,10,-1
 1238 946 l 1,11,-1
 1107 946 l 1,12,-1
 784 676 l 1,13,-1
 1200 78 l 1,14,-1
 1337 78 l 1,15,-1
 1337 0 l 1,16,-1
 762 0 l 1,17,-1
 762 78 l 1,18,-1
 903 78 l 1,19,-1
 601 523 l 1,20,-1
 472 415 l 1,21,-1
 472 78 l 1,22,-1
 620 78 l 1,23,-1
 620 0 l 1,24,-1
 59 0 l 1,25,-1
 59 78 l 1,0,-1
EndSplineSet
EndChar

StartChar: l
Encoding: 108 108 98
Width: 683
GlyphClass: 2
Flags: W
LayerCount: 2
Fore
SplineSet
60 78 m 1,0,-1
 216 78 l 1,1,-1
 216 1605 l 1,2,-1
 53 1605 l 1,3,-1
 53 1684 l 1,4,-1
 481 1684 l 1,5,-1
 481 78 l 1,6,-1
 649 78 l 1,7,-1
 649 0 l 1,8,-1
 60 0 l 1,9,-1
 60 78 l 1,0,-1
EndSplineSet
EndChar

StartChar: m
Encoding: 109 109 99
Width: 2042
GlyphClass: 2
Flags: W
LayerCount: 2
Fore
SplineSet
752 944 m 0,0,1
 598 944 598 944 482 807 c 1,2,-1
 482 78 l 1,3,-1
 645 78 l 1,4,-1
 645 0 l 1,5,-1
 60 0 l 1,6,-1
 60 78 l 1,7,-1
 222 78 l 1,8,-1
 222 947 l 1,9,-1
 59 947 l 1,10,-1
 59 1023 l 1,11,-1
 482 1023 l 1,12,-1
 482 909 l 1,13,14
 625 1040 625 1040 791.5 1040 c 128,-1,15
 958 1040 958 1040 1063 949 c 0,16,17
 1101 916 1101 916 1126 867 c 1,18,19
 1284 1040 1284 1040 1485 1040 c 0,20,21
 1618 1040 1618 1040 1722 972 c 1,22,23
 1854 884 1854 884 1854 692 c 2,24,-1
 1854 78 l 1,25,-1
 2017 78 l 1,26,-1
 2017 0 l 1,27,-1
 1422 0 l 1,28,-1
 1422 78 l 1,29,-1
 1594 78 l 1,30,-1
 1594 722 l 2,31,32
 1594 831 1594 831 1568 872 c 128,-1,33
 1542 913 1542 913 1511.5 928.5 c 128,-1,34
 1481 944 1481 944 1436 944 c 0,35,36
 1349 944 1349 944 1276 900 c 128,-1,37
 1203 856 1203 856 1155 783 c 1,38,39
 1162 741 1162 741 1162 706 c 2,40,-1
 1162 78 l 1,41,-1
 1325 78 l 1,42,-1
 1325 0 l 1,43,-1
 740 0 l 1,44,-1
 740 78 l 1,45,-1
 902 78 l 1,46,-1
 902 729 l 2,47,48
 902 834 902 834 879 873.5 c 128,-1,49
 856 913 856 913 826.5 928.5 c 128,-1,50
 797 944 797 944 752 944 c 0,0,1
EndSplineSet
EndChar

StartChar: n
Encoding: 110 110 100
Width: 1365
GlyphClass: 2
Flags: W
LayerCount: 2
Fore
SplineSet
774 945 m 0,0,1
 611 945 611 945 479 794 c 1,2,-1
 479 78 l 1,3,-1
 661 78 l 1,4,-1
 661 0 l 1,5,-1
 57 0 l 1,6,-1
 57 78 l 1,7,-1
 219 78 l 1,8,-1
 219 945 l 1,9,-1
 56 945 l 1,10,-1
 56 1023 l 1,11,-1
 479 1023 l 1,12,-1
 479 895 l 1,13,14
 629 1040 629 1040 822 1040 c 0,15,16
 955 1040 955 1040 1058 972 c 0,17,18
 1191 884 1191 884 1191 692 c 2,19,-1
 1191 78 l 1,20,-1
 1353 78 l 1,21,-1
 1353 0 l 1,22,-1
 749 0 l 1,23,-1
 749 78 l 1,24,-1
 931 78 l 1,25,-1
 931 712 l 2,26,27
 931 829 931 829 906.5 871 c 128,-1,28
 882 913 882 913 851.5 929 c 128,-1,29
 821 945 821 945 774 945 c 0,0,1
EndSplineSet
EndChar

StartChar: o
Encoding: 111 111 101
Width: 1194
GlyphClass: 2
Flags: W
LayerCount: 2
Fore
SplineSet
222 894 m 128,-1,1
 372 1040 372 1040 599.5 1040 c 128,-1,2
 827 1040 827 1040 974.5 894.5 c 128,-1,3
 1122 749 1122 749 1122 512.5 c 128,-1,4
 1122 276 1122 276 975.5 128 c 128,-1,5
 829 -20 829 -20 600 -20 c 128,-1,6
 371 -20 371 -20 221.5 128 c 128,-1,7
 72 276 72 276 72 512 c 128,-1,0
 72 748 72 748 222 894 c 128,-1,1
597 63 m 0,8,9
 799 63 799 63 834 338 c 0,10,11
 844 420 844 420 844 514 c 0,12,13
 844 725 844 725 796 830 c 1,14,15
 737 956 737 956 597 956 c 0,16,17
 395 956 395 956 360 690 c 0,18,19
 350 609 350 609 350 514 c 0,20,21
 350 302 350 302 398 194 c 1,22,23
 458 63 458 63 597 63 c 0,8,9
EndSplineSet
EndChar

StartChar: p
Encoding: 112 112 102
Width: 1365
GlyphClass: 2
Flags: W
LayerCount: 2
Fore
SplineSet
470 914 m 1,0,1
 586 1040 586 1040 824 1040 c 0,2,3
 903 1040 903 1040 988.5 1009.5 c 128,-1,4
 1074 979 1074 979 1138 914 c 0,5,6
 1278 773 1278 773 1278 520 c 128,-1,7
 1278 267 1278 267 1133 123.5 c 128,-1,8
 988 -20 988 -20 779 -20 c 0,9,10
 645 -20 645 -20 532 35 c 0,11,12
 497 52 497 52 470 73 c 1,13,-1
 470 -482 l 1,14,-1
 651 -482 l 1,15,-1
 651 -560 l 1,16,-1
 60 -560 l 1,17,-1
 60 -482 l 1,18,-1
 210 -482 l 1,19,-1
 210 943 l 1,20,-1
 50 943 l 1,21,-1
 50 1023 l 1,22,-1
 470 1023 l 1,23,-1
 470 914 l 1,0,1
737 66 m 0,24,25
 998 66 998 66 998 506 c 0,26,27
 998 833 998 833 857 918 c 0,28,29
 808 948 808 948 732 947 c 128,-1,30
 656 946 656 946 585.5 904 c 128,-1,31
 515 862 515 862 470 793 c 1,32,-1
 470 180 l 1,33,34
 545 99 545 99 667 74 c 0,35,36
 703 66 703 66 737 66 c 0,24,25
EndSplineSet
EndChar

StartChar: q
Encoding: 113 113 103
Width: 1365
GlyphClass: 2
Flags: W
LayerCount: 2
Fore
SplineSet
910 104 m 1,0,1
 792 -20 792 -20 556 -20 c 0,2,3
 479 -20 479 -20 393.5 10.5 c 128,-1,4
 308 41 308 41 243.5 106 c 128,-1,5
 179 171 179 171 141.5 271.5 c 128,-1,6
 104 372 104 372 104 504 c 0,7,8
 104 753 104 753 249 896.5 c 128,-1,9
 394 1040 394 1040 603 1040 c 0,10,11
 735 1040 735 1040 848 986 c 0,12,13
 883 969 883 969 910 948 c 1,14,-1
 910 1023 l 1,15,-1
 1318 1023 l 1,16,-1
 1318 945 l 1,17,-1
 1170 945 l 1,18,-1
 1170 -482 l 1,19,-1
 1320 -482 l 1,20,-1
 1320 -560 l 1,21,-1
 729 -560 l 1,22,-1
 729 -482 l 1,23,-1
 910 -482 l 1,24,-1
 910 104 l 1,0,1
645 954 m 0,25,26
 384 954 384 954 384 514 c 0,27,28
 384 187 384 187 525 102 c 0,29,30
 574 72 574 72 649.5 72.5 c 128,-1,31
 725 73 725 73 794.5 114 c 128,-1,32
 864 155 864 155 910 224 c 1,33,-1
 910 842 l 1,34,35
 833 922 833 922 714 946 c 0,36,37
 678 954 678 954 645 954 c 0,25,26
EndSplineSet
EndChar

StartChar: r
Encoding: 114 114 104
Width: 1024
GlyphClass: 2
Flags: W
LayerCount: 2
Fore
SplineSet
498 885 m 1,0,1
 659 1040 659 1040 846 1040 c 0,2,3
 906 1040 906 1040 952 1000 c 128,-1,4
 998 960 998 960 998 897.5 c 128,-1,5
 998 835 998 835 959 796 c 128,-1,6
 920 757 920 757 864 757 c 256,7,8
 808 757 808 757 769.5 795.5 c 128,-1,9
 731 834 731 834 731 891 c 0,10,11
 731 914 731 914 739 938 c 1,12,13
 594 894 594 894 498 789 c 1,14,-1
 498 77 l 1,15,-1
 717 77 l 1,16,-1
 717 0 l 1,17,-1
 87 0 l 1,18,-1
 87 77 l 1,19,-1
 236 77 l 1,20,-1
 236 945 l 1,21,-1
 86 945 l 1,22,-1
 86 1023 l 1,23,-1
 498 1023 l 1,24,-1
 498 885 l 1,0,1
EndSplineSet
EndChar

StartChar: s
Encoding: 115 115 105
Width: 1024
GlyphClass: 2
Flags: W
LayerCount: 2
Fore
SplineSet
267 73 m 1,0,1
 235 51 235 51 231 0 c 1,2,-1
 135 0 l 1,3,-1
 139 301 l 1,4,-1
 231 301 l 1,5,6
 231 224 231 224 327.5 143 c 128,-1,7
 424 62 424 62 572 62 c 128,-1,8
 720 62 720 62 760 148 c 0,9,10
 771 173 771 173 771 200 c 0,11,12
 771 250 771 250 702.5 292 c 128,-1,13
 634 334 634 334 477.5 390 c 128,-1,14
 321 446 321 446 231 534.5 c 128,-1,15
 141 623 141 623 141 750.5 c 128,-1,16
 141 878 141 878 255 959 c 128,-1,17
 369 1040 369 1040 518.5 1040 c 128,-1,18
 668 1040 668 1040 759 966 c 1,19,20
 787 975 787 975 803 1010 c 0,21,22
 809 1022 809 1022 809 1039 c 1,23,-1
 885 1039 l 1,24,-1
 885 760 l 1,25,-1
 797 760 l 1,26,27
 780 854 780 854 706.5 906.5 c 128,-1,28
 633 959 633 959 534 959 c 128,-1,29
 435 959 435 959 381.5 920.5 c 128,-1,30
 328 882 328 882 328 827 c 128,-1,31
 328 772 328 772 389.5 726.5 c 128,-1,32
 451 681 451 681 563.5 641.5 c 128,-1,33
 676 602 676 602 740 572 c 0,34,35
 945 473 945 473 945 285.5 c 128,-1,36
 945 98 945 98 735 13 c 0,37,38
 653 -20 653 -20 568 -20 c 0,39,40
 391 -20 391 -20 267 73 c 1,0,1
EndSplineSet
EndChar

StartChar: t
Encoding: 116 116 106
Width: 853
GlyphClass: 2
Flags: W
LayerCount: 2
Fore
SplineSet
535 -20 m 0,0,1
 178 -20 178 -20 178 312 c 2,2,-1
 178 945 l 1,3,-1
 57 945 l 1,4,-1
 57 1023 l 1,5,-1
 178 1023 l 1,6,-1
 178 1329 l 1,7,8
 269 1329 269 1329 400 1376 c 0,9,10
 430 1387 430 1387 443 1395 c 1,11,-1
 443 1023 l 1,12,-1
 772 1023 l 1,13,-1
 772 945 l 1,14,-1
 443 945 l 1,15,-1
 443 240 l 2,16,17
 443 148 443 148 481.5 107.5 c 128,-1,18
 520 67 520 67 584 67 c 0,19,20
 684 67 684 67 764 156 c 1,21,-1
 817 109 l 1,22,23
 745 20 745 20 621 -10 c 0,24,25
 580 -20 580 -20 535 -20 c 0,0,1
EndSplineSet
EndChar

StartChar: u
Encoding: 117 117 107
Width: 1366
GlyphClass: 2
Flags: W
LayerCount: 2
Fore
SplineSet
888 98 m 1,0,1
 755 -20 755 -20 600.5 -20 c 128,-1,2
 446 -20 446 -20 339 42 c 0,3,4
 191 129 191 129 191 333 c 2,5,-1
 191 945 l 1,6,-1
 49 945 l 1,7,-1
 49 1023 l 1,8,-1
 451 1023 l 1,9,-1
 451 287 l 2,10,11
 451 76 451 76 646 76 c 0,12,13
 781 76 781 76 888 200 c 1,14,-1
 888 945 l 1,15,-1
 715 945 l 1,16,-1
 715 1023 l 1,17,-1
 1146 1023 l 1,18,-1
 1146 78 l 1,19,-1
 1275 78 l 1,20,-1
 1275 0 l 1,21,-1
 888 0 l 1,22,-1
 888 98 l 1,0,1
EndSplineSet
EndChar

StartChar: v
Encoding: 118 118 108
Width: 1195
GlyphClass: 2
Flags: W
LayerCount: 2
Fore
SplineSet
103 945 m 1,0,-1
 -1 945 l 1,1,-1
 -1 1023 l 1,2,-1
 526 1023 l 1,3,-1
 526 945 l 1,4,-1
 397 945 l 1,5,-1
 697 258 l 1,6,-1
 967 945 l 1,7,-1
 832 945 l 1,8,-1
 832 1023 l 1,9,-1
 1196 1023 l 1,10,-1
 1196 945 l 1,11,-1
 1066 945 l 1,12,-1
 670 -20 l 1,13,-1
 565 -20 l 1,14,-1
 103 945 l 1,0,-1
EndSplineSet
EndChar

StartChar: w
Encoding: 119 119 109
Width: 1706
GlyphClass: 2
Flags: W
LayerCount: 2
Fore
SplineSet
69 945 m 1,0,-1
 0 945 l 1,1,-1
 0 1023 l 1,2,-1
 472 1023 l 1,3,-1
 472 945 l 1,4,-1
 352 945 l 1,5,-1
 629 315 l 1,6,-1
 913 1023 l 1,7,-1
 983 1023 l 1,8,-1
 1301 317 l 1,9,-1
 1539 945 l 1,10,-1
 1393 945 l 1,11,-1
 1393 1023 l 1,12,-1
 1739 1023 l 1,13,-1
 1739 945 l 1,14,-1
 1628 945 l 1,15,-1
 1263 -20 l 1,16,-1
 1183 -20 l 1,17,-1
 862 673 l 1,18,-1
 584 -20 l 1,19,-1
 505 -20 l 1,20,-1
 69 945 l 1,0,-1
EndSplineSet
EndChar

StartChar: x
Encoding: 120 120 110
Width: 1195
GlyphClass: 2
Flags: W
LayerCount: 2
Fore
SplineSet
48 78 m 1,0,-1
 188 78 l 1,1,-1
 501 450 l 1,2,-1
 130 945 l 1,3,-1
 31 945 l 1,4,-1
 31 1023 l 1,5,-1
 565 1023 l 1,6,-1
 565 945 l 1,7,-1
 422 945 l 1,8,-1
 658 633 l 1,9,-1
 915 945 l 1,10,-1
 776 945 l 1,11,-1
 776 1023 l 1,12,-1
 1140 1023 l 1,13,-1
 1140 945 l 1,14,-1
 1026 945 l 1,15,-1
 709 566 l 1,16,-1
 1080 78 l 1,17,-1
 1181 78 l 1,18,-1
 1181 0 l 1,19,-1
 652 0 l 1,20,-1
 652 78 l 1,21,-1
 780 78 l 1,22,-1
 552 383 l 1,23,-1
 300 78 l 1,24,-1
 433 78 l 1,25,-1
 433 0 l 1,26,-1
 48 0 l 1,27,-1
 48 78 l 1,0,-1
EndSplineSet
EndChar

StartChar: y
Encoding: 121 121 111
Width: 1195
GlyphClass: 2
Flags: W
LayerCount: 2
Fore
SplineSet
144.5 -283.5 m 128,-1,1
 169 -273 169 -273 215.5 -273 c 128,-1,2
 262 -273 262 -273 295.5 -308.5 c 128,-1,3
 329 -344 329 -344 329 -386 c 128,-1,4
 329 -428 329 -428 304 -462 c 1,5,6
 342 -456 342 -456 381 -403.5 c 128,-1,7
 420 -351 420 -351 473 -242 c 1,8,-1
 565 -20 l 1,9,-1
 103 945 l 1,10,-1
 -4 945 l 1,11,-1
 -4 1023 l 1,12,-1
 535 1023 l 1,13,-1
 535 945 l 1,14,-1
 396 945 l 1,15,-1
 698 259 l 1,16,-1
 968 945 l 1,17,-1
 793 945 l 1,18,-1
 793 1023 l 1,19,-1
 1168 1023 l 1,20,-1
 1168 945 l 1,21,-1
 1066 945 l 1,22,-1
 670 -20 l 1,23,-1
 549 -292 l 1,24,25
 478 -433 478 -433 428.5 -480 c 128,-1,26
 379 -527 379 -527 339 -543.5 c 128,-1,27
 299 -560 299 -560 256 -560 c 0,28,29
 175 -560 175 -560 121 -515.5 c 128,-1,30
 67 -471 67 -471 67 -410 c 128,-1,31
 67 -349 67 -349 93.5 -321.5 c 128,-1,0
 120 -294 120 -294 144.5 -283.5 c 128,-1,1
EndSplineSet
EndChar

StartChar: z
Encoding: 122 122 112
Width: 1024
GlyphClass: 2
Flags: W
LayerCount: 2
Fore
SplineSet
81 78 m 1,0,-1
 657 947 l 1,1,-1
 433 947 l 2,2,3
 307 947 307 947 256.5 886.5 c 128,-1,4
 206 826 206 826 184 696 c 1,5,-1
 113 696 l 1,6,-1
 113 1023 l 1,7,-1
 939 1023 l 1,8,-1
 939 946 l 1,9,-1
 369 76 l 1,10,-1
 648 76 l 2,11,12
 790 76 790 76 843 144 c 0,13,14
 880 192 880 192 894 317 c 1,15,-1
 963 317 l 1,16,-1
 963 0 l 1,17,-1
 81 0 l 1,18,-1
 81 78 l 1,0,-1
EndSplineSet
EndChar

StartChar: braceleft
Encoding: 123 123 113
Width: 1024
GlyphClass: 2
Flags: W
LayerCount: 2
Fore
SplineSet
907 1701 m 1,0,1
 630 1640 630 1640 630 1352 c 0,2,3
 630 1300 630 1300 634 1251 c 2,4,-1
 641 1150 l 1,5,6
 652 1009 652 1009 652 966 c 0,7,8
 652 641 652 641 327 605 c 1,9,-1
 327 597 l 1,10,11
 652 556 652 556 652 206 c 0,12,13
 652 173 652 173 648 128 c 2,14,-1
 634 -56 l 2,15,16
 630 -100 630 -100 630 -150 c 0,17,18
 630 -435 630 -435 907 -497 c 1,19,-1
 887 -560 l 1,20,21
 635 -520 635 -520 512 -370 c 0,22,23
 415 -253 415 -253 415 -90 c 1,24,-1
 438 262 l 1,25,26
 438 401 438 401 390 462 c 0,27,28
 324 547 324 547 141 567 c 1,29,-1
 141 635 l 1,30,31
 402 664 402 664 430 810 c 0,32,33
 438 856 438 856 438 910 c 1,34,-1
 415 1294 l 1,35,36
 415 1556 415 1556 657 1690 c 0,37,38
 748 1741 748 1741 887 1764 c 1,39,-1
 907 1701 l 1,0,1
EndSplineSet
EndChar

StartChar: bar
Encoding: 124 124 114
Width: 512
GlyphClass: 2
Flags: W
LayerCount: 2
Fore
SplineSet
192 1686 m 1,0,-1
 320 1686 l 1,1,-1
 320 -300 l 1,2,-1
 192 -300 l 1,3,-1
 192 1686 l 1,0,-1
EndSplineSet
EndChar

StartChar: braceright
Encoding: 125 125 115
Width: 1024
GlyphClass: 2
Flags: W
LayerCount: 2
Fore
SplineSet
117 1701 m 1,0,1
 394 1640 394 1640 394 1352 c 0,2,3
 394 1300 394 1300 390 1251 c 2,4,-1
 383 1150 l 1,5,6
 372 1009 372 1009 372 966 c 0,7,8
 372 641 372 641 697 605 c 1,9,-1
 697 597 l 1,10,11
 372 556 372 556 372 206 c 0,12,13
 372 173 372 173 376 128 c 2,14,-1
 390 -56 l 2,15,16
 394 -100 394 -100 394 -150 c 0,17,18
 394 -435 394 -435 117 -497 c 1,19,-1
 137 -560 l 1,20,21
 389 -520 389 -520 512 -370 c 0,22,23
 609 -253 609 -253 609 -90 c 1,24,-1
 586 262 l 1,25,26
 586 401 586 401 634 462 c 0,27,28
 700 547 700 547 883 567 c 1,29,-1
 883 635 l 1,30,31
 622 664 622 664 594 810 c 0,32,33
 586 856 586 856 586 910 c 1,34,-1
 609 1294 l 1,35,36
 609 1556 609 1556 367 1690 c 0,37,38
 276 1741 276 1741 137 1764 c 1,39,-1
 117 1701 l 1,0,1
EndSplineSet
EndChar

StartChar: asciitilde
Encoding: 126 126 116
Width: 1236
GlyphClass: 2
Flags: W
LayerCount: 2
Fore
SplineSet
1022 850 m 1,0,1
 911 614 911 614 761 614 c 0,2,3
 683 614 683 614 594.5 649.5 c 128,-1,4
 506 685 506 685 459.5 701 c 128,-1,5
 413 717 413 717 370.5 717 c 128,-1,6
 328 717 328 717 293.5 689 c 128,-1,7
 259 661 259 661 223 621 c 1,8,-1
 181 651 l 1,9,10
 237 751 237 751 276 794 c 0,11,12
 356 882 356 882 425 882 c 128,-1,13
 494 882 494 882 545.5 866.5 c 128,-1,14
 597 851 597 851 644 833 c 1,15,-1
 736 800 l 2,16,17
 781 784 781 784 818 784 c 0,18,19
 880 784 880 784 914.5 808.5 c 128,-1,20
 949 833 949 833 978 875 c 1,21,-1
 1022 850 l 1,0,1
EndSplineSet
EndChar

StartChar: exclamdown
Encoding: 161 161 118
Width: 852
GlyphClass: 2
Flags: W
LayerCount: 2
Fore
SplineSet
584 72 m 1,0,1
 587 57 587 57 587 30 c 0,2,3
 587 -31 587 -31 539 -77.5 c 128,-1,4
 491 -124 491 -124 426 -124 c 256,5,6
 361 -124 361 -124 313 -77.5 c 128,-1,7
 265 -31 265 -31 265 38 c 0,8,9
 265 57 265 57 268 72 c 1,10,-1
 379 1114 l 1,11,-1
 473 1114 l 1,12,-1
 584 72 l 1,0,1
585 1420 m 0,13,14
 585 1313 585 1313 489 1271 c 0,15,16
 460 1259 460 1259 426 1259 c 0,17,18
 358 1259 358 1259 312 1305 c 256,19,20
 266 1351 266 1351 266 1419.5 c 128,-1,21
 266 1488 266 1488 311.5 1533.5 c 128,-1,22
 357 1579 357 1579 425.5 1579 c 128,-1,23
 494 1579 494 1579 539.5 1533.5 c 128,-1,24
 585 1488 585 1488 585 1420 c 0,13,14
EndSplineSet
EndChar

StartChar: cent
Encoding: 162 162 119
Width: 1197
GlyphClass: 2
Flags: W
LayerCount: 2
Fore
SplineSet
748 76 m 0,0,1
 930 76 930 76 1042 192 c 1,2,-1
 1094 144 l 1,3,4
 1011 38 1011 38 853 -4 c 0,5,6
 795 -20 795 -20 756 -20 c 2,7,-1
 712 -20 l 2,8,9
 705 -20 705 -20 698 -19 c 1,10,-1
 680 -255 l 1,11,-1
 602 -255 l 1,12,-1
 620 -12 l 1,13,14
 414 17 414 17 288.5 157 c 128,-1,15
 163 297 163 297 163 526 c 128,-1,16
 163 755 163 755 317 895.5 c 128,-1,17
 471 1036 471 1036 710 1040 c 1,18,-1
 730 1255 l 1,19,-1
 809 1255 l 1,20,-1
 789 1035 l 1,21,22
 989 1013 989 1013 1066 898 c 0,23,24
 1093 857 1093 857 1093 816 c 0,25,26
 1093 745 1093 745 1054.5 703 c 128,-1,27
 1016 661 1016 661 974 661 c 0,28,29
 903 661 903 661 864 698.5 c 128,-1,30
 825 736 825 736 825 791 c 0,31,32
 825 881 825 881 900 917 c 1,33,34
 885 928 885 928 840.5 941.5 c 128,-1,35
 796 955 796 955 727 955 c 0,36,37
 439 955 439 955 439 514 c 0,38,39
 439 198 439 198 613 106 c 0,40,41
 671 76 671 76 748 76 c 0,0,1
EndSplineSet
EndChar

StartChar: sterling
Encoding: 163 163 120
Width: 1367
GlyphClass: 2
Flags: W
LayerCount: 2
Fore
SplineSet
604 601 m 1,0,-1
 605 578 l 1,1,2
 605 480 605 480 581.5 429.5 c 128,-1,3
 558 379 558 379 500 332 c 1,4,5
 565 324 565 324 622 300 c 2,6,7
 622 300 622 300 736 252 c 1,8,9
 880 186 880 186 970 186 c 0,10,11
 1051 186 1051 186 1154 320 c 2,12,-1
 1187 363 l 1,13,-1
 1250 316 l 1,14,-1
 1212 250 l 1,15,16
 1053 -22 1053 -22 901 -22 c 0,17,18
 820 -22 820 -22 747 2 c 128,-1,19
 674 26 674 26 604 55 c 128,-1,20
 534 84 534 84 465 108 c 128,-1,21
 396 132 396 132 346 132 c 128,-1,22
 296 132 296 132 269 117 c 0,23,24
 219 89 219 89 162 30 c 1,25,-1
 115 -22 l 1,26,-1
 56 23 l 1,27,28
 96 84 96 84 178 166 c 1,29,30
 356 373 356 373 343 559 c 1,31,-1
 339 601 l 1,32,-1
 40 601 l 1,33,-1
 47 679 l 1,34,-1
 331 679 l 1,35,-1
 305 850 l 1,36,-1
 60 850 l 1,37,-1
 67 928 l 1,38,-1
 295 928 l 1,39,40
 263 1178 263 1178 322 1308 c 0,41,42
 358 1388 358 1388 420 1440 c 1,43,44
 542 1545 542 1545 722.5 1545 c 128,-1,45
 903 1545 903 1545 1003.5 1468 c 128,-1,46
 1104 1391 1104 1391 1104 1281 c 0,47,48
 1104 1224 1104 1224 1066 1186 c 128,-1,49
 1028 1148 1028 1148 978 1148 c 128,-1,50
 928 1148 928 1148 891.5 1181 c 128,-1,51
 855 1214 855 1214 855 1254 c 0,52,53
 855 1320 855 1320 887 1352 c 128,-1,54
 919 1384 919 1384 961 1388 c 1,55,56
 945 1421 945 1421 892.5 1443.5 c 128,-1,57
 840 1466 840 1466 769 1466 c 0,58,59
 540 1466 540 1466 545 1120 c 0,60,61
 545 1057 545 1057 563 928 c 1,62,-1
 898 928 l 1,63,-1
 891 850 l 1,64,-1
 575 850 l 1,65,-1
 588 764 l 2,66,67
 595 721 595 721 599 679 c 1,68,-1
 878 679 l 1,69,-1
 871 601 l 1,70,-1
 604 601 l 1,0,-1
EndSplineSet
EndChar

StartChar: currency
Encoding: 164 164 121
Width: 1368
GlyphClass: 2
Flags: W
LayerCount: 2
Fore
SplineSet
904 263 m 1,0,1
 803 198 803 198 682.5 198 c 128,-1,2
 562 198 562 198 462 265 c 1,3,-1
 308 112 l 1,4,-1
 208 212 l 1,5,-1
 359 363 l 1,6,7
 282 472 282 472 282 601.5 c 128,-1,8
 282 731 282 731 361 840 c 1,9,-1
 210 992 l 1,10,-1
 310 1093 l 1,11,-1
 464 938 l 1,12,13
 566 1004 566 1004 684.5 1004 c 128,-1,14
 803 1004 803 1004 905 938 c 1,15,-1
 1060 1093 l 1,16,-1
 1160 992 l 1,17,-1
 1008 840 l 1,18,19
 1088 733 1088 733 1088 600 c 128,-1,20
 1088 467 1088 467 1008 360 c 1,21,-1
 1159 209 l 1,22,-1
 1059 108 l 1,23,-1
 904 263 l 1,0,1
684 868 m 256,24,25
 574 868 574 868 498.5 789 c 128,-1,26
 423 710 423 710 423 600.5 c 128,-1,27
 423 491 423 491 498.5 412 c 128,-1,28
 574 333 574 333 684 333 c 256,29,30
 794 333 794 333 870.5 411.5 c 128,-1,31
 947 490 947 490 947 600.5 c 128,-1,32
 947 711 947 711 870.5 789.5 c 128,-1,33
 794 868 794 868 684 868 c 256,24,25
EndSplineSet
EndChar

StartChar: yen
Encoding: 165 165 122
Width: 1539
GlyphClass: 2
Flags: W
LayerCount: 2
Fore
SplineSet
242 418 m 1,0,-1
 649 418 l 1,1,-1
 650 589 l 1,2,-1
 643 601 l 1,3,-1
 255 601 l 1,4,-1
 262 679 l 1,5,-1
 596 679 l 1,6,-1
 135 1452 l 1,7,-1
 10 1452 l 1,8,-1
 10 1530 l 1,9,-1
 654 1530 l 1,10,-1
 654 1452 l 1,11,-1
 451 1452 l 1,12,-1
 863 733 l 1,13,-1
 1266 1452 l 1,14,-1
 1082 1452 l 1,15,-1
 1082 1530 l 1,16,-1
 1524 1530 l 1,17,-1
 1524 1452 l 1,18,-1
 1374 1452 l 1,19,-1
 934 679 l 1,20,-1
 1303 679 l 1,21,-1
 1296 601 l 1,22,-1
 919 601 l 1,23,-1
 919 418 l 1,24,-1
 1283 418 l 1,25,-1
 1276 340 l 1,26,-1
 919 340 l 1,27,-1
 919 78 l 1,28,-1
 1068 78 l 1,29,-1
 1068 0 l 1,30,-1
 501 0 l 1,31,-1
 501 78 l 1,32,-1
 649 78 l 1,33,-1
 649 340 l 1,34,-1
 235 340 l 1,35,-1
 242 418 l 1,0,-1
EndSplineSet
EndChar

StartChar: brokenbar
Encoding: 166 166 123
Width: 512
GlyphClass: 2
Flags: W
LayerCount: 2
Fore
SplineSet
194 1684 m 1,0,-1
 322 1684 l 1,1,-1
 322 820 l 1,2,-1
 194 820 l 1,3,-1
 194 1684 l 1,0,-1
192 528 m 1,4,-1
 320 528 l 1,5,-1
 320 -300 l 1,6,-1
 192 -300 l 1,7,-1
 192 528 l 1,4,-1
EndSplineSet
EndChar

StartChar: section
Encoding: 167 167 124
Width: 1366
GlyphClass: 2
Flags: W
LayerCount: 2
Fore
SplineSet
275 -204 m 1,0,1
 234 -250 234 -250 234 -320 c 1,2,-1
 145 -320 l 1,3,-1
 145 88 l 1,4,-1
 248 88 l 1,5,6
 287 -67 287 -67 407 -162 c 128,-1,7
 527 -257 527 -257 699 -257 c 0,8,9
 924 -257 924 -257 1000 -152 c 0,10,11
 1026 -117 1026 -117 1026 -72 c 0,12,13
 1026 23 1026 23 951 88.5 c 128,-1,14
 876 154 876 154 687.5 216 c 128,-1,15
 499 278 499 278 403.5 331 c 128,-1,16
 308 384 308 384 253 442 c 0,17,18
 156 546 156 546 156 695.5 c 128,-1,19
 156 845 156 845 250.5 936 c 128,-1,20
 345 1027 345 1027 506 1062 c 1,21,22
 219 1186 219 1186 172 1365 c 0,23,24
 156 1423 156 1423 156 1501 c 128,-1,25
 156 1579 156 1579 198.5 1650 c 128,-1,26
 241 1721 241 1721 314 1770 c 0,27,28
 466 1871 466 1871 691 1871 c 128,-1,29
 916 1871 916 1871 1032 1775 c 1,30,31
 1056 1808 1056 1808 1058 1851 c 1,32,-1
 1151 1851 l 1,33,-1
 1151 1479 l 1,34,-1
 1055 1479 l 1,35,36
 1040 1629 1040 1629 934.5 1708.5 c 128,-1,37
 829 1788 829 1788 686.5 1788 c 128,-1,38
 544 1788 544 1788 451 1739 c 128,-1,39
 358 1690 358 1690 358 1599.5 c 128,-1,40
 358 1509 358 1509 440 1440 c 128,-1,41
 522 1371 522 1371 785 1263 c 1,42,43
 1027 1176 1027 1176 1123.5 1085 c 128,-1,44
 1220 994 1220 994 1220 862 c 0,45,46
 1220 694 1220 694 1117 591 c 128,-1,47
 1014 488 1014 488 841 461 c 1,48,49
 1053 379 1053 379 1136.5 292.5 c 128,-1,50
 1220 206 1220 206 1220 92 c 0,51,52
 1220 -116 1220 -116 1070.5 -228 c 128,-1,53
 921 -340 921 -340 710 -340 c 128,-1,54
 499 -340 499 -340 350 -256 c 0,55,56
 305 -231 305 -231 275 -204 c 1,0,1
709 524 m 2,57,58
 928 524 928 524 1002 629 c 0,59,60
 1026 664 1026 664 1026 709 c 0,61,62
 1026 804 1026 804 952 868 c 128,-1,63
 878 932 878 932 654 1006 c 1,64,65
 526 1002 526 1002 442 953.5 c 128,-1,66
 358 905 358 905 358 821 c 128,-1,67
 358 737 358 737 422.5 673 c 128,-1,68
 487 609 487 609 683 524 c 1,69,-1
 709 524 l 2,57,58
EndSplineSet
EndChar

StartChar: dieresis
Encoding: 168 168 125
Width: 1019
GlyphClass: 2
Flags: W
LayerCount: 2
Fore
SplineSet
861 1377 m 0,0,1
 861 1285 861 1285 785 1254 c 0,2,3
 762 1244 762 1244 736 1244 c 0,4,5
 687 1244 687 1244 650.5 1278.5 c 128,-1,6
 614 1313 614 1313 614 1352 c 0,7,8
 614 1416 614 1416 650 1452 c 1,9,10
 687 1487 687 1487 724 1487 c 0,11,12
 789 1487 789 1487 825 1451 c 128,-1,13
 861 1415 861 1415 861 1377 c 0,0,1
405 1377 m 0,14,15
 405 1285 405 1285 329 1254 c 0,16,17
 306 1244 306 1244 280 1244 c 0,18,19
 231 1244 231 1244 194.5 1278.5 c 128,-1,20
 158 1313 158 1313 158 1352 c 0,21,22
 158 1416 158 1416 194 1452 c 1,23,24
 231 1487 231 1487 268 1487 c 0,25,26
 333 1487 333 1487 369 1451 c 128,-1,27
 405 1415 405 1415 405 1377 c 0,14,15
EndSplineSet
EndChar

StartChar: copyright
Encoding: 169 169 126
Width: 2243
GlyphClass: 2
Flags: W
LayerCount: 2
Fore
SplineSet
2124 515 m 256,0,1
 2124 248 2124 248 1991.5 22.5 c 128,-1,2
 1859 -203 1859 -203 1632.5 -335.5 c 128,-1,3
 1406 -468 1406 -468 1138 -468 c 128,-1,4
 870 -468 870 -468 644.5 -335.5 c 128,-1,5
 419 -203 419 -203 287 21.5 c 128,-1,6
 155 246 155 246 155 514.5 c 128,-1,7
 155 783 155 783 287 1009 c 128,-1,8
 419 1235 419 1235 645.5 1368 c 128,-1,9
 872 1501 872 1501 1138.5 1501 c 128,-1,10
 1405 1501 1405 1501 1632 1368.5 c 128,-1,11
 1859 1236 1859 1236 1991.5 1009 c 128,-1,12
 2124 782 2124 782 2124 515 c 256,0,1
261 512 m 0,13,14
 261 141 261 141 514 -122 c 0,15,16
 594 -205 594 -205 692 -264 c 0,17,18
 896 -386 896 -386 1139.5 -386 c 128,-1,19
 1383 -386 1383 -386 1583 -266 c 128,-1,20
 1783 -146 1783 -146 1900 60 c 256,21,22
 2017 266 2017 266 2017 511.5 c 128,-1,23
 2017 757 2017 757 1900 965 c 128,-1,24
 1783 1173 1783 1173 1583 1295 c 128,-1,25
 1383 1417 1383 1417 1139.5 1417 c 128,-1,26
 896 1417 896 1417 695 1294.5 c 128,-1,27
 494 1172 494 1172 377.5 964.5 c 128,-1,28
 261 757 261 757 261 512 c 0,13,14
1206 1040 m 0,29,30
 1362 1040 1362 1040 1463 945 c 1,31,32
 1484 977 1484 977 1490 1023 c 1,33,-1
 1580 1023 l 1,34,-1
 1580 720 l 1,35,-1
 1490 720 l 1,36,37
 1472 800 1472 800 1396.5 860.5 c 128,-1,38
 1321 921 1321 921 1232.5 921 c 128,-1,39
 1144 921 1144 921 1092 890 c 0,40,41
 936 796 936 796 936 516 c 128,-1,42
 936 236 936 236 1084 136 c 0,43,44
 1140 98 1140 98 1204 98 c 0,45,46
 1307 98 1307 98 1381.5 149.5 c 128,-1,47
 1456 201 1456 201 1487 270 c 1,48,-1
 1573 219 l 1,49,50
 1517 66 1517 66 1339 4 c 0,51,52
 1273 -19 1273 -19 1163.5 -19 c 128,-1,53
 1054 -19 1054 -19 949.5 22.5 c 128,-1,54
 845 64 845 64 773 136 c 0,55,56
 625 284 625 284 625 509.5 c 128,-1,57
 625 735 625 735 775.5 887.5 c 128,-1,58
 926 1040 926 1040 1206 1040 c 0,29,30
EndSplineSet
EndChar

StartChar: ordfeminine
Encoding: 170 170 127
Width: 1028
GlyphClass: 2
Flags: W
LayerCount: 2
Fore
SplineSet
649 1114 m 1,0,1
 567 1040 567 1040 427 1040 c 0,2,3
 331 1040 331 1040 267 1092.5 c 128,-1,4
 203 1145 203 1145 203 1223.5 c 128,-1,5
 203 1302 203 1302 273.5 1352 c 128,-1,6
 344 1402 344 1402 450 1402 c 128,-1,7
 556 1402 556 1402 633 1361 c 1,8,-1
 633 1502 l 2,9,10
 633 1570 633 1570 610 1593 c 0,11,12
 566 1635 566 1635 495 1635 c 128,-1,13
 424 1635 424 1635 377 1617 c 1,14,15
 430 1596 430 1596 430 1551.5 c 128,-1,16
 430 1507 430 1507 399.5 1481 c 128,-1,17
 369 1455 369 1455 338 1455 c 0,18,19
 285 1455 285 1455 255.5 1479.5 c 128,-1,20
 226 1504 226 1504 226 1542 c 0,21,22
 226 1611 226 1611 317 1653.5 c 128,-1,23
 408 1696 408 1696 505 1696 c 0,24,25
 665 1696 665 1696 741.5 1640 c 128,-1,26
 818 1584 818 1584 818 1487 c 2,27,-1
 818 1161 l 2,28,29
 818 1112 818 1112 845 1112 c 128,-1,30
 872 1112 872 1112 894 1137 c 1,31,-1
 934 1103 l 1,32,33
 914 1077 914 1077 873 1058.5 c 128,-1,34
 832 1040 832 1040 787 1040 c 0,35,36
 685 1040 685 1040 649 1114 c 1,0,1
505 1334 m 0,37,38
 392 1334 392 1334 392 1223 c 0,39,40
 392 1142 392 1142 464 1116 c 0,41,42
 483 1109 483 1109 502 1109 c 0,43,44
 575 1109 575 1109 635 1186 c 1,45,-1
 635 1282 l 1,46,47
 574 1334 574 1334 505 1334 c 0,37,38
EndSplineSet
EndChar

StartChar: guillemotleft
Encoding: 171 171 128
Width: 1705
GlyphClass: 2
Flags: W
LayerCount: 2
Fore
SplineSet
218 538 m 1,0,1
 510 715 510 715 626.5 804.5 c 128,-1,2
 743 894 743 894 812 956 c 1,3,-1
 858 906 l 1,4,5
 772 787 772 787 681 688 c 2,6,-1
 505 499 l 1,7,-1
 681 310 l 2,8,9
 772 211 772 211 858 91 c 1,10,-1
 812 41 l 1,11,12
 741 101 741 101 665 158 c 1,13,14
 468 299 468 299 377 357 c 2,15,-1
 218 459 l 1,16,-1
 218 538 l 1,0,1
848 538 m 1,17,18
 1140 715 1140 715 1256.5 804.5 c 128,-1,19
 1373 894 1373 894 1442 956 c 1,20,-1
 1488 906 l 1,21,22
 1402 787 1402 787 1311 688 c 2,23,-1
 1135 499 l 1,24,-1
 1311 310 l 2,25,26
 1402 211 1402 211 1488 91 c 1,27,-1
 1442 41 l 1,28,29
 1371 101 1371 101 1295 158 c 1,30,31
 1098 299 1098 299 1007 357 c 2,32,-1
 848 459 l 1,33,-1
 848 538 l 1,17,18
EndSplineSet
EndChar

StartChar: logicalnot
Encoding: 172 172 129
Width: 1536
GlyphClass: 2
Flags: W
LayerCount: 2
Fore
SplineSet
310 645 m 1,0,-1
 1179 645 l 1,1,-1
 1179 227 l 1,2,-1
 1075 227 l 1,3,-1
 1075 545 l 1,4,-1
 310 545 l 1,5,-1
 310 645 l 1,0,-1
EndSplineSet
EndChar

StartChar: registered
Encoding: 174 174 131
Width: 1695
GlyphClass: 2
Flags: W
LayerCount: 2
Fore
SplineSet
1644 1146 m 256,0,1
 1644 926 1644 926 1536.5 741 c 128,-1,2
 1429 556 1429 556 1245 447.5 c 128,-1,3
 1061 339 1061 339 842.5 339 c 128,-1,4
 624 339 624 339 439 447.5 c 128,-1,5
 254 556 254 556 146.5 741 c 128,-1,6
 39 926 39 926 39 1146 c 256,7,8
 39 1366 39 1366 148 1555 c 0,9,10
 311 1838 311 1838 628 1927 c 0,11,12
 730 1956 730 1956 841.5 1956 c 128,-1,13
 953 1956 953 1956 1056 1927 c 128,-1,14
 1159 1898 1159 1898 1248 1846 c 0,15,16
 1429 1739 1429 1739 1536.5 1552.5 c 128,-1,17
 1644 1366 1644 1366 1644 1146 c 256,0,1
136 1145 m 0,18,19
 136 844 136 844 341.5 632.5 c 128,-1,20
 547 421 547 421 843.5 421 c 128,-1,21
 1140 421 1140 421 1344 633.5 c 128,-1,22
 1548 846 1548 846 1548 1145.5 c 128,-1,23
 1548 1445 1548 1445 1344 1658 c 0,24,25
 1216 1793 1216 1793 1033 1846 c 0,26,27
 942 1873 942 1873 842.5 1873 c 128,-1,28
 743 1873 743 1873 652 1846.5 c 128,-1,29
 561 1820 561 1820 482 1772 c 0,30,31
 324 1677 324 1677 230 1510 c 128,-1,32
 136 1343 136 1343 136 1145 c 0,18,19
1205 1330 m 0,33,34
 1205 1162 1205 1162 1003 1105 c 1,35,36
 1131 1073 1131 1073 1167 936 c 0,37,38
 1189 854 1189 854 1211 831 c 128,-1,39
 1233 808 1233 808 1269 808 c 2,40,-1
 1294 808 l 1,41,-1
 1294 734 l 1,42,-1
 1180 734 l 2,43,44
 1082 734 1082 734 1055.5 755 c 128,-1,45
 1029 776 1029 776 1018 804 c 128,-1,46
 1007 832 1007 832 999 869 c 0,47,48
 979 961 979 961 946 1004 c 1,49,50
 894 1076 894 1076 788 1076 c 2,51,-1
 676 1076 l 1,52,-1
 676 815 l 1,53,-1
 822 815 l 1,54,-1
 822 737 l 1,55,-1
 405 737 l 1,56,-1
 405 815 l 1,57,-1
 502 815 l 1,58,-1
 503 1499 l 1,59,-1
 419 1499 l 1,60,-1
 419 1577 l 1,61,-1
 828 1577 l 2,62,63
 1111 1577 1111 1577 1182 1432 c 0,64,65
 1205 1385 1205 1385 1205 1330 c 0,33,34
819 1151 m 2,66,67
 928 1151 928 1151 973.5 1201.5 c 128,-1,68
 1019 1252 1019 1252 1019 1303 c 0,69,70
 1019 1402 1019 1402 974 1450.5 c 128,-1,71
 929 1499 929 1499 809 1499 c 2,72,-1
 676 1499 l 1,73,-1
 676 1151 l 1,74,-1
 819 1151 l 2,66,67
EndSplineSet
EndChar

StartChar: macron
Encoding: 175 175 132
Width: 1707
GlyphClass: 2
Flags: W
LayerCount: 2
Fore
SplineSet
505 1414 m 1,0,-1
 1162 1414 l 1,1,-1
 1162 1291 l 1,2,-1
 505 1291 l 1,3,-1
 505 1414 l 1,0,-1
EndSplineSet
EndChar

StartChar: degree
Encoding: 176 176 133
Width: 1028
GlyphClass: 2
Flags: W
LayerCount: 2
Fore
SplineSet
271 1116.5 m 128,-1,1
 169 1210 169 1210 169 1360 c 128,-1,2
 169 1510 169 1510 271.5 1603 c 128,-1,3
 374 1696 374 1696 516 1696 c 128,-1,4
 658 1696 658 1696 758.5 1603 c 128,-1,5
 859 1510 859 1510 859 1360 c 128,-1,6
 859 1210 859 1210 759.5 1116.5 c 128,-1,7
 660 1023 660 1023 516.5 1023 c 128,-1,0
 373 1023 373 1023 271 1116.5 c 128,-1,1
515 1126 m 0,8,9
 618 1126 618 1126 669 1196.5 c 128,-1,10
 720 1267 720 1267 720 1361 c 0,11,12
 720 1513 720 1513 611 1572 c 0,13,14
 572 1593 572 1593 515 1593 c 0,15,16
 410 1593 410 1593 359 1523.5 c 128,-1,17
 308 1454 308 1454 308 1361 c 0,18,19
 308 1210 308 1210 418 1148 c 0,20,21
 458 1126 458 1126 515 1126 c 0,8,9
EndSplineSet
EndChar

StartChar: plusminus
Encoding: 177 177 134
Width: 1536
GlyphClass: 2
Flags: W
LayerCount: 2
Fore
SplineSet
270 100 m 1,0,-1
 716 100 l 1,1,-1
 716 545 l 1,2,-1
 270 545 l 1,3,-1
 270 645 l 1,4,-1
 716 645 l 1,5,-1
 716 1114 l 1,6,-1
 820 1114 l 1,7,-1
 820 645 l 1,8,-1
 1266 645 l 1,9,-1
 1266 545 l 1,10,-1
 820 545 l 1,11,-1
 820 100 l 1,12,-1
 1266 100 l 1,13,-1
 1266 0 l 1,14,-1
 270 0 l 1,15,-1
 270 100 l 1,0,-1
EndSplineSet
EndChar

StartChar: twosuperior
Encoding: 178 178 135
Width: 854
GlyphClass: 2
Flags: W
LayerCount: 2
Fore
SplineSet
382 1694 m 0,0,1
 683 1694 683 1694 683 1476 c 0,2,3
 683 1344 683 1344 484 1202 c 0,4,5
 417 1154 417 1154 330 1102 c 1,6,-1
 610 1102 l 2,7,8
 652 1102 652 1102 667 1170 c 1,9,-1
 719 1170 l 1,10,-1
 719 963 l 1,11,-1
 153 963 l 1,12,-1
 153 1018 l 1,13,-1
 274 1118 l 2,14,15
 508 1311 508 1311 508 1485 c 0,16,17
 508 1593 508 1593 423 1624 c 0,18,19
 398 1633 398 1633 357.5 1633 c 128,-1,20
 317 1633 317 1633 282 1613 c 1,21,22
 328 1595 328 1595 328 1540.5 c 128,-1,23
 328 1486 328 1486 280 1462 c 0,24,25
 263 1453 263 1453 240 1453 c 0,26,27
 194 1453 194 1453 170.5 1479.5 c 128,-1,28
 147 1506 147 1506 147 1544 c 0,29,30
 147 1615 147 1615 227.5 1654.5 c 128,-1,31
 308 1694 308 1694 382 1694 c 0,0,1
EndSplineSet
EndChar

StartChar: threesuperior
Encoding: 179 179 136
Width: 854
GlyphClass: 2
Flags: W
LayerCount: 2
Fore
SplineSet
283 1615 m 1,0,1
 326 1596 326 1596 326 1542.5 c 128,-1,2
 326 1489 326 1489 277 1462 c 0,3,4
 261 1454 261 1454 238 1454 c 0,5,6
 193 1454 193 1454 169 1484 c 128,-1,7
 145 1514 145 1514 145 1552 c 0,8,9
 145 1624 145 1624 232 1663 c 0,10,11
 301 1694 301 1694 390 1694 c 0,12,13
 541 1694 541 1694 606.5 1648 c 128,-1,14
 672 1602 672 1602 672 1535 c 0,15,16
 672 1411 672 1411 521 1354 c 1,17,18
 601 1350 601 1350 657.5 1303 c 128,-1,19
 714 1256 714 1256 714 1174 c 128,-1,20
 714 1092 714 1092 632 1024 c 128,-1,21
 550 956 550 956 410 956 c 0,22,23
 220 956 220 956 148 1039 c 0,24,25
 122 1069 122 1069 122 1096 c 0,26,27
 122 1141 122 1141 145.5 1169 c 128,-1,28
 169 1197 169 1197 204 1197 c 0,29,30
 256 1197 256 1197 279.5 1169 c 128,-1,31
 303 1141 303 1141 303 1100 c 128,-1,32
 303 1059 303 1059 266 1038 c 1,33,34
 313 1021 313 1021 357 1021 c 0,35,36
 438 1021 438 1021 491.5 1067 c 128,-1,37
 545 1113 545 1113 545 1175 c 0,38,39
 545 1263 545 1263 444 1296 c 0,40,41
 411 1306 411 1306 370 1306 c 128,-1,42
 329 1306 329 1306 286 1296 c 1,43,-1
 285 1350 l 1,44,45
 454 1361 454 1361 495 1470 c 0,46,47
 506 1499 506 1499 506 1537.5 c 128,-1,48
 506 1576 506 1576 469 1605 c 128,-1,49
 432 1634 432 1634 375.5 1634 c 128,-1,50
 319 1634 319 1634 283 1615 c 1,0,1
EndSplineSet
EndChar

StartChar: acute
Encoding: 180 180 137
Width: 1707
GlyphClass: 2
Flags: W
LayerCount: 2
Fore
SplineSet
528 1218 m 1,0,-1
 748 1552 l 2,1,2
 787 1610 787 1610 825 1615 c 0,3,4
 889 1623 889 1623 926 1595 c 128,-1,5
 963 1567 963 1567 966 1527 c 0,6,7
 972 1443 972 1443 913 1406 c 2,8,-1
 559 1184 l 1,9,-1
 528 1218 l 1,0,-1
EndSplineSet
EndChar

StartChar: mu
Encoding: 181 181 138
Width: 1366
GlyphClass: 2
Flags: W
LayerCount: 2
Fore
SplineSet
830 96 m 1,0,1
 705 -20 705 -20 550 -20 c 128,-1,2
 395 -20 395 -20 294 91 c 1,3,4
 349 -161 349 -161 445 -387 c 1,5,6
 451 -405 451 -405 451 -427 c 0,7,8
 451 -476 451 -476 409 -518 c 128,-1,9
 367 -560 367 -560 331 -560 c 0,10,11
 268 -560 268 -560 226 -530 c 128,-1,12
 184 -500 184 -500 184 -441 c 2,13,-1
 184 1023 l 1,14,-1
 444 1023 l 1,15,-1
 444 297 l 2,16,17
 444 76 444 76 614 76 c 0,18,19
 724 76 724 76 826 193 c 1,20,-1
 826 1023 l 1,21,-1
 1084 1023 l 1,22,-1
 1084 320 l 2,23,24
 1084 113 1084 113 1184 113 c 0,25,26
 1204 113 1204 113 1243 127 c 1,27,-1
 1266 65 l 1,28,29
 1118 -20 1118 -20 984.5 -20 c 128,-1,30
 851 -20 851 -20 830 96 c 1,0,1
EndSplineSet
EndChar

StartChar: paragraph
Encoding: 182 182 139
Width: 1707
GlyphClass: 2
Flags: W
LayerCount: 2
Fore
SplineSet
798 666 m 1,0,1
 529 668 529 668 374.5 806 c 128,-1,2
 220 944 220 944 220 1182.5 c 128,-1,3
 220 1421 220 1421 382 1552.5 c 128,-1,4
 544 1684 544 1684 804 1684 c 2,5,-1
 1520 1684 l 1,6,-1
 1520 1606 l 1,7,-1
 1349 1606 l 1,8,-1
 1349 -302 l 1,9,-1
 1189 -302 l 1,10,-1
 1190 1606 l 1,11,-1
 958 1606 l 1,12,-1
 958 -302 l 1,13,-1
 798 -302 l 1,14,-1
 798 666 l 1,0,1
EndSplineSet
EndChar

StartChar: periodcentered
Encoding: 183 183 140
Width: 683
GlyphClass: 2
Flags: W
LayerCount: 2
Fore
SplineSet
455.5 653.5 m 128,-1,1
 410 608 410 608 341.5 608 c 128,-1,2
 273 608 273 608 227.5 653.5 c 128,-1,3
 182 699 182 699 182 767 c 0,4,5
 182 874 182 874 278 916 c 0,6,7
 307 928 307 928 341 928 c 0,8,9
 409 928 409 928 455 882 c 128,-1,10
 501 836 501 836 501 767.5 c 128,-1,0
 501 699 501 699 455.5 653.5 c 128,-1,1
EndSplineSet
EndChar

StartChar: cedilla
Encoding: 184 184 141
Width: 1707
GlyphClass: 2
Flags: W
LayerCount: 2
Fore
SplineSet
673 -332 m 0,0,1
 673 -247 673 -247 527 -247 c 0,2,3
 519 -247 519 -247 508 -248 c 1,4,-1
 484 -248 l 1,5,6
 462 -249 462 -249 438 -252 c 1,7,-1
 493 17 l 1,8,-1
 586 14 l 1,9,-1
 559 -127 l 1,10,11
 568 -126 568 -126 577 -126 c 2,12,-1
 596 -126 l 2,13,14
 763 -126 763 -126 826 -207 c 0,15,16
 850 -239 850 -239 850 -286 c 128,-1,17
 850 -333 850 -333 829 -369.5 c 128,-1,18
 808 -406 808 -406 773 -436 c 0,19,20
 704 -494 704 -494 596 -527 c 128,-1,21
 488 -560 488 -560 394 -560 c 1,22,-1
 386 -485 l 1,23,24
 569 -471 569 -471 643 -402 c 0,25,26
 673 -374 673 -374 673 -332 c 0,0,1
EndSplineSet
EndChar

StartChar: onesuperior
Encoding: 185 185 142
Width: 854
GlyphClass: 2
Flags: W
LayerCount: 2
Fore
SplineSet
205 1022 m 1,0,-1
 323 1022 l 1,1,-1
 323 1617 l 1,2,-1
 210 1619 l 1,3,-1
 210 1673 l 1,4,-1
 509 1683 l 1,5,-1
 509 1022 l 1,6,-1
 642 1022 l 1,7,-1
 642 963 l 1,8,-1
 205 963 l 1,9,-1
 205 1022 l 1,0,-1
EndSplineSet
EndChar

StartChar: ordmasculine
Encoding: 186 186 143
Width: 1028
GlyphClass: 2
Flags: W
LayerCount: 2
Fore
SplineSet
253.5 1133.5 m 128,-1,1
 151 1227 151 1227 151 1370.5 c 128,-1,2
 151 1514 151 1514 255 1605 c 128,-1,3
 359 1696 359 1696 514.5 1696 c 128,-1,4
 670 1696 670 1696 773 1606 c 128,-1,5
 876 1516 876 1516 876 1371 c 128,-1,6
 876 1226 876 1226 775 1133 c 128,-1,7
 674 1040 674 1040 515 1040 c 128,-1,0
 356 1040 356 1040 253.5 1133.5 c 128,-1,1
362 1372 m 0,8,9
 362 1102 362 1102 513 1102 c 128,-1,10
 664 1102 664 1102 664 1372 c 0,11,12
 664 1495 664 1495 634 1557 c 1,13,14
 599 1633 599 1633 514 1633 c 0,15,16
 390 1633 390 1633 368 1474 c 0,17,18
 362 1426 362 1426 362 1372 c 0,8,9
EndSplineSet
EndChar

StartChar: guillemotright
Encoding: 187 187 144
Width: 1700
GlyphClass: 2
Flags: W
LayerCount: 2
Fore
SplineSet
857 538 m 1,0,1
 565 715 565 715 448.5 804.5 c 128,-1,2
 332 894 332 894 263 956 c 1,3,-1
 217 906 l 1,4,5
 303 787 303 787 394 688 c 2,6,-1
 570 499 l 1,7,-1
 394 310 l 2,8,9
 303 211 303 211 217 91 c 1,10,-1
 263 41 l 1,11,12
 334 101 334 101 410 158 c 1,13,14
 607 299 607 299 698 357 c 2,15,-1
 857 459 l 1,16,-1
 857 538 l 1,0,1
1483 538 m 1,17,18
 1191 715 1191 715 1074.5 804.5 c 128,-1,19
 958 894 958 894 889 956 c 1,20,-1
 843 906 l 1,21,22
 929 787 929 787 1020 688 c 2,23,-1
 1196 499 l 1,24,-1
 1020 310 l 2,25,26
 929 211 929 211 843 91 c 1,27,-1
 889 41 l 1,28,29
 960 101 960 101 1036 158 c 1,30,31
 1233 299 1233 299 1324 357 c 2,32,-1
 1483 459 l 1,33,-1
 1483 538 l 1,17,18
EndSplineSet
EndChar

StartChar: onequarter
Encoding: 188 188 145
Width: 1712
GlyphClass: 2
Flags: W
LayerCount: 2
Fore
SplineSet
893 238 m 1,0,-1
 1245 719 l 1,1,-1
 1405 719 l 1,2,-1
 1405 238 l 1,3,-1
 1542 238 l 1,4,-1
 1510 174 l 1,5,-1
 1404 174 l 1,6,-1
 1404 58 l 1,7,-1
 1522 58 l 1,8,-1
 1522 -1 l 1,9,-1
 1085 -1 l 1,10,-1
 1085 58 l 1,11,-1
 1218 58 l 1,12,-1
 1218 174 l 1,13,-1
 893 174 l 1,14,-1
 893 238 l 1,0,-1
1218 238 m 1,15,-1
 1218 571 l 1,16,-1
 975 238 l 1,17,-1
 1218 238 l 1,15,-1
231 889 m 1,18,-1
 349 889 l 1,19,-1
 349 1484 l 1,20,-1
 236 1486 l 1,21,-1
 236 1540 l 1,22,-1
 535 1550 l 1,23,-1
 535 889 l 1,24,-1
 668 889 l 1,25,-1
 668 830 l 1,26,-1
 231 830 l 1,27,-1
 231 889 l 1,18,-1
1377 1530 m 1,28,-1
 1476 1530 l 1,29,-1
 341 0 l 1,30,-1
 239 0 l 1,31,-1
 1377 1530 l 1,28,-1
EndSplineSet
EndChar

StartChar: onehalf
Encoding: 189 189 146
Width: 1707
GlyphClass: 2
Flags: W
LayerCount: 2
Fore
SplineSet
213 891 m 1,0,-1
 331 891 l 1,1,-1
 331 1486 l 1,2,-1
 218 1488 l 1,3,-1
 218 1542 l 1,4,-1
 517 1552 l 1,5,-1
 517 891 l 1,6,-1
 650 891 l 1,7,-1
 650 832 l 1,8,-1
 213 832 l 1,9,-1
 213 891 l 1,0,-1
1218 731 m 0,10,11
 1519 731 1519 731 1519 513 c 0,12,13
 1519 381 1519 381 1320 239 c 0,14,15
 1253 191 1253 191 1166 139 c 1,16,-1
 1446 139 l 2,17,18
 1488 139 1488 139 1503 207 c 1,19,-1
 1555 207 l 1,20,-1
 1555 0 l 1,21,-1
 989 0 l 1,22,-1
 989 55 l 1,23,-1
 1110 155 l 2,24,25
 1344 348 1344 348 1344 522 c 0,26,27
 1344 630 1344 630 1259 661 c 0,28,29
 1234 670 1234 670 1193.5 670 c 128,-1,30
 1153 670 1153 670 1118 650 c 1,31,32
 1164 632 1164 632 1164 577.5 c 128,-1,33
 1164 523 1164 523 1116 499 c 0,34,35
 1099 490 1099 490 1076 490 c 0,36,37
 1030 490 1030 490 1006.5 516.5 c 128,-1,38
 983 543 983 543 983 581 c 0,39,40
 983 652 983 652 1063.5 691.5 c 128,-1,41
 1144 731 1144 731 1218 731 c 0,10,11
1377 1530 m 1,42,-1
 1476 1530 l 1,43,-1
 341 0 l 1,44,-1
 239 0 l 1,45,-1
 1377 1530 l 1,42,-1
EndSplineSet
EndChar

StartChar: threequarters
Encoding: 190 190 147
Width: 1712
GlyphClass: 2
Flags: W
LayerCount: 2
Fore
SplineSet
893 238 m 1,0,-1
 1245 719 l 1,1,-1
 1405 719 l 1,2,-1
 1405 238 l 1,3,-1
 1542 238 l 1,4,-1
 1510 174 l 1,5,-1
 1404 174 l 1,6,-1
 1404 58 l 1,7,-1
 1522 58 l 1,8,-1
 1522 -1 l 1,9,-1
 1085 -1 l 1,10,-1
 1085 58 l 1,11,-1
 1218 58 l 1,12,-1
 1218 174 l 1,13,-1
 893 174 l 1,14,-1
 893 238 l 1,0,-1
1218 238 m 1,15,-1
 1218 571 l 1,16,-1
 975 238 l 1,17,-1
 1218 238 l 1,15,-1
319 1201 m 1,18,19
 540 1215 540 1215 540 1388 c 0,20,21
 540 1427 540 1427 503 1456 c 128,-1,22
 466 1485 466 1485 409.5 1485 c 128,-1,23
 353 1485 353 1485 317 1466 c 1,24,25
 360 1447 360 1447 360 1393.5 c 128,-1,26
 360 1340 360 1340 311 1314 c 0,27,28
 295 1305 295 1305 272 1305 c 0,29,30
 226 1305 226 1305 202.5 1335 c 128,-1,31
 179 1365 179 1365 179 1402 c 0,32,33
 179 1475 179 1475 266 1514 c 0,34,35
 335 1545 335 1545 424 1545 c 0,36,37
 574 1545 574 1545 640 1498.5 c 128,-1,38
 706 1452 706 1452 706 1386 c 0,39,40
 706 1262 706 1262 555 1205 c 1,41,42
 635 1201 635 1201 691.5 1154 c 128,-1,43
 748 1107 748 1107 748 1025 c 128,-1,44
 748 943 748 943 666 875 c 128,-1,45
 584 807 584 807 444 807 c 0,46,47
 254 807 254 807 182 890 c 0,48,49
 156 920 156 920 156 948 c 0,50,51
 156 992 156 992 179.5 1020 c 128,-1,52
 203 1048 203 1048 238 1048 c 0,53,54
 290 1048 290 1048 313.5 1020 c 128,-1,55
 337 992 337 992 337 951 c 128,-1,56
 337 910 337 910 300 889 c 1,57,58
 347 872 347 872 391 872 c 0,59,60
 472 872 472 872 525.5 918 c 128,-1,61
 579 964 579 964 579 1026 c 0,62,63
 579 1114 579 1114 478 1146 c 0,64,65
 445 1157 445 1157 404 1157 c 128,-1,66
 363 1157 363 1157 320 1147 c 1,67,-1
 319 1201 l 1,18,19
1377 1530 m 1,68,-1
 1476 1530 l 1,69,-1
 341 0 l 1,70,-1
 239 0 l 1,71,-1
 1377 1530 l 1,68,-1
EndSplineSet
EndChar

StartChar: questiondown
Encoding: 191 191 148
Width: 1364
GlyphClass: 2
Flags: W
LayerCount: 2
Fore
SplineSet
855 807 m 1,0,1
 645 736 645 736 520 580.5 c 128,-1,2
 395 425 395 425 395 241 c 0,3,4
 395 105 395 105 480 22 c 128,-1,5
 565 -61 565 -61 735.5 -61 c 128,-1,6
 906 -61 906 -61 1002 55 c 1,7,8
 950 70 950 70 917.5 113 c 128,-1,9
 885 156 885 156 885 203 c 0,10,11
 885 282 885 282 931.5 330 c 128,-1,12
 978 378 978 378 1048.5 378 c 128,-1,13
 1119 378 1119 378 1166.5 330.5 c 128,-1,14
 1214 283 1214 283 1214 214 c 2,15,-1
 1214 203 l 2,16,17
 1214 198 1214 198 1213 193 c 1,18,19
 1213 134 1213 134 1175 73.5 c 128,-1,20
 1137 13 1137 13 1071 -36 c 0,21,22
 921 -147 921 -147 697 -147 c 128,-1,23
 473 -147 473 -147 309.5 -30 c 128,-1,24
 146 87 146 87 146 278 c 0,25,26
 146 557 146 557 414 731 c 0,27,28
 523 801 523 801 645 827 c 1,29,-1
 698 1110 l 1,30,-1
 795 1110 l 1,31,-1
 855 807 l 1,0,1
904 1416 m 0,32,33
 904 1309 904 1309 808 1267 c 0,34,35
 779 1255 779 1255 745 1255 c 0,36,37
 677 1255 677 1255 631 1301 c 128,-1,38
 585 1347 585 1347 585 1415.5 c 128,-1,39
 585 1484 585 1484 630.5 1529.5 c 128,-1,40
 676 1575 676 1575 744.5 1575 c 128,-1,41
 813 1575 813 1575 858.5 1529.5 c 128,-1,42
 904 1484 904 1484 904 1416 c 0,32,33
EndSplineSet
EndChar

StartChar: Agrave
Encoding: 192 192 149
Width: 1534
GlyphClass: 2
Flags: W
LayerCount: 2
Fore
SplineSet
21 78 m 1,0,-1
 129 78 l 1,1,-1
 693 1530 l 1,2,-1
 809 1530 l 1,3,-1
 1412 78 l 1,4,-1
 1514 78 l 1,5,-1
 1514 0 l 1,6,-1
 969 0 l 1,7,-1
 969 78 l 1,8,-1
 1119 78 l 1,9,-1
 975 427 l 1,10,-1
 368 427 l 1,11,-1
 236 78 l 1,12,-1
 416 78 l 1,13,-1
 416 0 l 1,14,-1
 21 0 l 1,15,-1
 21 78 l 1,0,-1
943 505 m 1,16,-1
 659 1196 l 1,17,-1
 398 505 l 1,18,-1
 943 505 l 1,16,-1
472 1774 m 1,19,20
 407 1796 407 1796 393.5 1856.5 c 128,-1,21
 380 1917 380 1917 409.5 1954 c 128,-1,22
 439 1991 439 1991 479 1997 c 128,-1,23
 519 2003 519 2003 543 1992.5 c 128,-1,24
 567 1982 567 1982 593 1959 c 2,25,-1
 892 1692 l 1,26,-1
 871 1651 l 1,27,-1
 472 1774 l 1,19,20
EndSplineSet
EndChar

StartChar: Aacute
Encoding: 193 193 150
Width: 1534
GlyphClass: 2
Flags: W
LayerCount: 2
Fore
SplineSet
21 78 m 1,0,-1
 129 78 l 1,1,-1
 693 1530 l 1,2,-1
 809 1530 l 1,3,-1
 1412 78 l 1,4,-1
 1514 78 l 1,5,-1
 1514 0 l 1,6,-1
 969 0 l 1,7,-1
 969 78 l 1,8,-1
 1119 78 l 1,9,-1
 975 427 l 1,10,-1
 368 427 l 1,11,-1
 236 78 l 1,12,-1
 416 78 l 1,13,-1
 416 0 l 1,14,-1
 21 0 l 1,15,-1
 21 78 l 1,0,-1
943 505 m 1,16,-1
 659 1196 l 1,17,-1
 398 505 l 1,18,-1
 943 505 l 1,16,-1
627 1679 m 1,19,-1
 916 1956 l 1,20,21
 970 2005 970 2005 1007 2001 c 0,22,23
 1070 1993 1070 1993 1100 1957.5 c 128,-1,24
 1130 1922 1130 1922 1123 1882 c 0,25,26
 1110 1800 1110 1800 1044 1776 c 1,27,-1
 649 1639 l 1,28,-1
 627 1679 l 1,19,-1
EndSplineSet
EndChar

StartChar: Acircumflex
Encoding: 194 194 151
Width: 1534
GlyphClass: 2
Flags: W
LayerCount: 2
Fore
SplineSet
21 78 m 1,0,-1
 129 78 l 1,1,-1
 693 1530 l 1,2,-1
 809 1530 l 1,3,-1
 1412 78 l 1,4,-1
 1514 78 l 1,5,-1
 1514 0 l 1,6,-1
 969 0 l 1,7,-1
 969 78 l 1,8,-1
 1119 78 l 1,9,-1
 975 427 l 1,10,-1
 368 427 l 1,11,-1
 236 78 l 1,12,-1
 416 78 l 1,13,-1
 416 0 l 1,14,-1
 21 0 l 1,15,-1
 21 78 l 1,0,-1
943 505 m 1,16,-1
 659 1196 l 1,17,-1
 398 505 l 1,18,-1
 943 505 l 1,16,-1
382 1646 m 1,19,-1
 645 1936 l 2,20,21
 703 2000 703 2000 738.5 2000 c 128,-1,22
 774 2000 774 2000 791 1992 c 1,23,24
 823 1979 823 1979 850 1950 c 1,25,-1
 1116 1647 l 1,26,-1
 1088 1610 l 1,27,-1
 754 1794 l 1,28,-1
 410 1610 l 1,29,-1
 382 1646 l 1,19,-1
EndSplineSet
EndChar

StartChar: Atilde
Encoding: 195 195 152
Width: 1534
GlyphClass: 2
Flags: W
LayerCount: 2
Fore
SplineSet
21 78 m 1,0,-1
 129 78 l 1,1,-1
 693 1530 l 1,2,-1
 809 1530 l 1,3,-1
 1412 78 l 1,4,-1
 1514 78 l 1,5,-1
 1514 0 l 1,6,-1
 969 0 l 1,7,-1
 969 78 l 1,8,-1
 1119 78 l 1,9,-1
 975 427 l 1,10,-1
 368 427 l 1,11,-1
 236 78 l 1,12,-1
 416 78 l 1,13,-1
 416 0 l 1,14,-1
 21 0 l 1,15,-1
 21 78 l 1,0,-1
943 505 m 1,16,-1
 659 1196 l 1,17,-1
 398 505 l 1,18,-1
 943 505 l 1,16,-1
379 1734 m 1,19,20
 435 1834 435 1834 474 1877 c 0,21,22
 554 1965 554 1965 623.5 1965 c 128,-1,23
 693 1965 693 1965 762 1932 c 2,24,-1
 865 1882 l 1,25,26
 899 1867 899 1867 935.5 1867 c 128,-1,27
 972 1867 972 1867 1004.5 1891.5 c 128,-1,28
 1037 1916 1037 1916 1073 1956 c 1,29,-1
 1119 1923 l 1,30,31
 1063 1823 1063 1823 1024 1780 c 0,32,33
 944 1692 944 1692 863 1692 c 1,34,35
 807 1689 807 1689 740 1723.5 c 128,-1,36
 673 1758 673 1758 637 1774 c 128,-1,37
 601 1790 601 1790 563.5 1790 c 128,-1,38
 526 1790 526 1790 493.5 1765.5 c 128,-1,39
 461 1741 461 1741 425 1701 c 1,40,-1
 379 1734 l 1,19,20
EndSplineSet
EndChar

StartChar: Adieresis
Encoding: 196 196 153
Width: 1534
GlyphClass: 2
Flags: W
LayerCount: 2
Fore
SplineSet
21 78 m 1,0,-1
 129 78 l 1,1,-1
 693 1530 l 1,2,-1
 809 1530 l 1,3,-1
 1412 78 l 1,4,-1
 1514 78 l 1,5,-1
 1514 0 l 1,6,-1
 969 0 l 1,7,-1
 969 78 l 1,8,-1
 1119 78 l 1,9,-1
 975 427 l 1,10,-1
 368 427 l 1,11,-1
 236 78 l 1,12,-1
 416 78 l 1,13,-1
 416 0 l 1,14,-1
 21 0 l 1,15,-1
 21 78 l 1,0,-1
943 505 m 1,16,-1
 659 1196 l 1,17,-1
 398 505 l 1,18,-1
 943 505 l 1,16,-1
1078 1834 m 0,19,20
 1078 1740 1078 1740 1002 1708 c 0,21,22
 979 1699 979 1699 953 1699 c 0,23,24
 903 1699 903 1699 867 1735 c 128,-1,25
 831 1771 831 1771 831 1809 c 0,26,27
 831 1874 831 1874 868 1910 c 128,-1,28
 905 1946 905 1946 942 1946 c 0,29,30
 1005 1946 1005 1946 1041.5 1909.5 c 128,-1,31
 1078 1873 1078 1873 1078 1834 c 0,19,20
662 1834 m 0,32,33
 662 1740 662 1740 586 1708 c 0,34,35
 563 1699 563 1699 537 1699 c 0,36,37
 487 1699 487 1699 451 1735 c 128,-1,38
 415 1771 415 1771 415 1809 c 0,39,40
 415 1874 415 1874 452 1910 c 128,-1,41
 489 1946 489 1946 526 1946 c 0,42,43
 589 1946 589 1946 625.5 1909.5 c 128,-1,44
 662 1873 662 1873 662 1834 c 0,32,33
EndSplineSet
EndChar

StartChar: Aring
Encoding: 197 197 154
Width: 1534
GlyphClass: 2
Flags: W
LayerCount: 2
Fore
SplineSet
21 78 m 1,0,-1
 129 78 l 1,1,-1
 693 1530 l 1,2,-1
 809 1530 l 1,3,-1
 1412 78 l 1,4,-1
 1514 78 l 1,5,-1
 1514 0 l 1,6,-1
 969 0 l 1,7,-1
 969 78 l 1,8,-1
 1119 78 l 1,9,-1
 975 427 l 1,10,-1
 368 427 l 1,11,-1
 236 78 l 1,12,-1
 416 78 l 1,13,-1
 416 0 l 1,14,-1
 21 0 l 1,15,-1
 21 78 l 1,0,-1
943 505 m 1,16,-1
 659 1196 l 1,17,-1
 398 505 l 1,18,-1
 943 505 l 1,16,-1
601 1678 m 128,-1,20
 539 1729 539 1729 539 1811.5 c 128,-1,21
 539 1894 539 1894 601 1945 c 256,22,23
 663 1996 663 1996 756.5 1996 c 128,-1,24
 850 1996 850 1996 910.5 1945 c 128,-1,25
 971 1894 971 1894 971 1811.5 c 128,-1,26
 971 1729 971 1729 910.5 1678 c 128,-1,27
 850 1627 850 1627 756.5 1627 c 128,-1,19
 663 1627 663 1627 601 1678 c 128,-1,20
657 1811 m 128,-1,29
 657 1679 657 1679 755.5 1679 c 128,-1,30
 854 1679 854 1679 854 1811 c 128,-1,31
 854 1943 854 1943 755.5 1943 c 128,-1,28
 657 1943 657 1943 657 1811 c 128,-1,29
EndSplineSet
EndChar

StartChar: AE
Encoding: 198 198 155
Width: 2218
GlyphClass: 2
Flags: W
LayerCount: 2
Fore
SplineSet
871 1452 m 1,0,-1
 748 1452 l 1,1,-1
 748 1530 l 1,2,-1
 2041 1530 l 1,3,-1
 2041 1094 l 1,4,-1
 1963 1094 l 1,5,6
 1958 1177 1958 1177 1949 1241.5 c 128,-1,7
 1940 1306 1940 1306 1912 1351 c 0,8,9
 1853 1443 1853 1443 1675 1452 c 1,10,-1
 1228 1452 l 1,11,-1
 1228 803 l 1,12,-1
 1468 803 l 2,13,14
 1553 803 1553 803 1598.5 830.5 c 128,-1,15
 1644 858 1644 858 1654 927 c 0,16,17
 1656 947 1656 947 1657.5 969.5 c 128,-1,18
 1659 992 1659 992 1661 1014 c 1,19,-1
 1745 1014 l 1,20,-1
 1745 498 l 1,21,-1
 1661 498 l 1,22,23
 1659 521 1659 521 1657.5 551 c 128,-1,24
 1656 581 1656 581 1654 601 c 0,25,26
 1644 670 1644 670 1597.5 697.5 c 128,-1,27
 1551 725 1551 725 1468 725 c 2,28,-1
 1228 725 l 1,29,-1
 1228 78 l 1,30,-1
 1646 78 l 2,31,32
 1909 78 1909 78 1965 321 c 0,33,34
 1981 391 1981 391 1986 465 c 1,35,-1
 2064 465 l 1,36,-1
 2064 0 l 1,37,-1
 748 0 l 1,38,-1
 748 79 l 1,39,-1
 958 79 l 1,40,-1
 958 725 l 1,41,-1
 541 725 l 1,42,-1
 154 78 l 1,43,-1
 340 78 l 1,44,-1
 340 0 l 1,45,-1
 -109 0 l 1,46,-1
 -109 78 l 1,47,-1
 37 78 l 1,48,-1
 871 1452 l 1,0,-1
958 804 m 1,49,-1
 959 1422 l 1,50,-1
 589 804 l 1,51,-1
 958 804 l 1,49,-1
EndSplineSet
EndChar

StartChar: Ccedilla
Encoding: 199 199 156
Width: 1534
GlyphClass: 2
Flags: W
LayerCount: 2
Fore
SplineSet
932 -332 m 0,0,1
 932 -247 932 -247 786 -247 c 0,2,3
 778 -247 778 -247 766 -248 c 1,4,-1
 742 -248 l 1,5,6
 721 -249 721 -249 697 -252 c 1,7,-1
 746 -12 l 1,8,9
 445 28 445 28 270.5 241.5 c 128,-1,10
 96 455 96 455 96 779 c 128,-1,11
 96 1103 96 1103 305.5 1326.5 c 128,-1,12
 515 1550 515 1550 888 1550 c 0,13,14
 1090 1550 1090 1550 1240 1468 c 0,15,16
 1282 1445 1282 1445 1307 1422 c 1,17,18
 1347 1469 1347 1469 1349 1530 c 1,19,-1
 1431 1530 l 1,20,-1
 1431 1111 l 1,21,-1
 1346 1111 l 1,22,23
 1317 1277 1317 1277 1187.5 1372 c 128,-1,24
 1058 1467 1058 1467 906 1467 c 0,25,26
 400 1467 400 1467 404 760 c 1,27,28
 407 479 407 479 516 293 c 0,29,30
 642 78 642 78 882 78 c 0,31,32
 1065 78 1065 78 1191.5 142.5 c 128,-1,33
 1318 207 1318 207 1390 317 c 1,34,-1
 1442 269 l 1,35,36
 1404 178 1404 178 1284 95 c 0,37,38
 1119 -20 1119 -20 870 -20 c 0,39,40
 862 -20 862 -20 854 -20 c 128,-1,41
 846 -20 846 -20 838 -19 c 1,42,-1
 818 -127 l 1,43,44
 827 -126 827 -126 836 -126 c 2,45,-1
 855 -126 l 2,46,47
 1022 -126 1022 -126 1084 -207 c 0,48,49
 1109 -239 1109 -239 1109 -286 c 128,-1,50
 1109 -333 1109 -333 1088 -369.5 c 128,-1,51
 1067 -406 1067 -406 1032 -436 c 0,52,53
 963 -494 963 -494 855 -527 c 128,-1,54
 747 -560 747 -560 653 -560 c 1,55,-1
 645 -485 l 1,56,57
 828 -471 828 -471 902 -402 c 0,58,59
 932 -374 932 -374 932 -332 c 0,0,1
EndSplineSet
EndChar

StartChar: Egrave
Encoding: 200 200 157
Width: 1535
GlyphClass: 2
Flags: W
LayerCount: 2
Fore
SplineSet
71 79 m 1,0,-1
 271 79 l 1,1,-1
 272 1452 l 1,2,-1
 71 1452 l 1,3,-1
 71 1530 l 1,4,-1
 1364 1530 l 1,5,-1
 1364 1094 l 1,6,-1
 1286 1094 l 1,7,8
 1281 1177 1281 1177 1272 1241.5 c 128,-1,9
 1263 1306 1263 1306 1234 1351 c 0,10,11
 1176 1443 1176 1443 998 1452 c 1,12,-1
 541 1452 l 1,13,-1
 541 824 l 1,14,-1
 791 824 l 2,15,16
 876 824 876 824 921.5 851.5 c 128,-1,17
 967 879 967 879 977 948 c 0,18,19
 979 968 979 968 980.5 990.5 c 128,-1,20
 982 1013 982 1013 984 1035 c 1,21,-1
 1068 1035 l 1,22,-1
 1068 519 l 1,23,-1
 984 519 l 1,24,25
 982 542 982 542 980.5 572 c 128,-1,26
 979 602 979 602 977 622 c 0,27,28
 967 691 967 691 920.5 718.5 c 128,-1,29
 874 746 874 746 791 746 c 2,30,-1
 541 746 l 1,31,-1
 541 78 l 1,32,-1
 969 78 l 2,33,34
 1232 78 1232 78 1288 321 c 0,35,36
 1304 391 1304 391 1309 465 c 1,37,-1
 1387 465 l 1,38,-1
 1387 0 l 1,39,-1
 71 0 l 1,40,-1
 71 79 l 1,0,-1
524 1774 m 1,41,42
 459 1796 459 1796 445.5 1856.5 c 128,-1,43
 432 1917 432 1917 461.5 1954 c 128,-1,44
 491 1991 491 1991 531 1997 c 128,-1,45
 571 2003 571 2003 595 1992.5 c 128,-1,46
 619 1982 619 1982 645 1959 c 2,47,-1
 944 1692 l 1,48,-1
 923 1651 l 1,49,-1
 524 1774 l 1,41,42
EndSplineSet
EndChar

StartChar: Eacute
Encoding: 201 201 158
Width: 1535
GlyphClass: 2
Flags: W
LayerCount: 2
Fore
SplineSet
71 79 m 1,0,-1
 271 79 l 1,1,-1
 272 1452 l 1,2,-1
 71 1452 l 1,3,-1
 71 1530 l 1,4,-1
 1364 1530 l 1,5,-1
 1364 1094 l 1,6,-1
 1286 1094 l 1,7,8
 1281 1177 1281 1177 1272 1241.5 c 128,-1,9
 1263 1306 1263 1306 1234 1351 c 0,10,11
 1176 1443 1176 1443 998 1452 c 1,12,-1
 541 1452 l 1,13,-1
 541 824 l 1,14,-1
 791 824 l 2,15,16
 876 824 876 824 921.5 851.5 c 128,-1,17
 967 879 967 879 977 948 c 0,18,19
 979 968 979 968 980.5 990.5 c 128,-1,20
 982 1013 982 1013 984 1035 c 1,21,-1
 1068 1035 l 1,22,-1
 1068 519 l 1,23,-1
 984 519 l 1,24,25
 982 542 982 542 980.5 572 c 128,-1,26
 979 602 979 602 977 622 c 0,27,28
 967 691 967 691 920.5 718.5 c 128,-1,29
 874 746 874 746 791 746 c 2,30,-1
 541 746 l 1,31,-1
 541 78 l 1,32,-1
 969 78 l 2,33,34
 1232 78 1232 78 1288 321 c 0,35,36
 1304 391 1304 391 1309 465 c 1,37,-1
 1387 465 l 1,38,-1
 1387 0 l 1,39,-1
 71 0 l 1,40,-1
 71 79 l 1,0,-1
680 1679 m 1,41,-1
 969 1956 l 1,42,43
 1023 2005 1023 2005 1060 2001 c 0,44,45
 1123 1993 1123 1993 1153 1957.5 c 128,-1,46
 1183 1922 1183 1922 1176 1882 c 0,47,48
 1163 1800 1163 1800 1097 1776 c 1,49,-1
 702 1639 l 1,50,-1
 680 1679 l 1,41,-1
EndSplineSet
EndChar

StartChar: Ecircumflex
Encoding: 202 202 159
Width: 1535
GlyphClass: 2
Flags: W
LayerCount: 2
Fore
SplineSet
71 79 m 1,0,-1
 271 79 l 1,1,-1
 272 1452 l 1,2,-1
 71 1452 l 1,3,-1
 71 1530 l 1,4,-1
 1364 1530 l 1,5,-1
 1364 1094 l 1,6,-1
 1286 1094 l 1,7,8
 1281 1177 1281 1177 1272 1241.5 c 128,-1,9
 1263 1306 1263 1306 1234 1351 c 0,10,11
 1176 1443 1176 1443 998 1452 c 1,12,-1
 541 1452 l 1,13,-1
 541 824 l 1,14,-1
 791 824 l 2,15,16
 876 824 876 824 921.5 851.5 c 128,-1,17
 967 879 967 879 977 948 c 0,18,19
 979 968 979 968 980.5 990.5 c 128,-1,20
 982 1013 982 1013 984 1035 c 1,21,-1
 1068 1035 l 1,22,-1
 1068 519 l 1,23,-1
 984 519 l 1,24,25
 982 542 982 542 980.5 572 c 128,-1,26
 979 602 979 602 977 622 c 0,27,28
 967 691 967 691 920.5 718.5 c 128,-1,29
 874 746 874 746 791 746 c 2,30,-1
 541 746 l 1,31,-1
 541 78 l 1,32,-1
 969 78 l 2,33,34
 1232 78 1232 78 1288 321 c 0,35,36
 1304 391 1304 391 1309 465 c 1,37,-1
 1387 465 l 1,38,-1
 1387 0 l 1,39,-1
 71 0 l 1,40,-1
 71 79 l 1,0,-1
435 1646 m 1,41,-1
 698 1936 l 2,42,43
 756 2000 756 2000 791.5 2000 c 128,-1,44
 827 2000 827 2000 844 1992 c 1,45,46
 876 1979 876 1979 903 1950 c 1,47,-1
 1169 1647 l 1,48,-1
 1141 1610 l 1,49,-1
 807 1794 l 1,50,-1
 463 1610 l 1,51,-1
 435 1646 l 1,41,-1
EndSplineSet
EndChar

StartChar: Edieresis
Encoding: 203 203 160
Width: 1535
GlyphClass: 2
Flags: W
LayerCount: 2
Fore
SplineSet
71 79 m 1,0,-1
 271 79 l 1,1,-1
 272 1452 l 1,2,-1
 71 1452 l 1,3,-1
 71 1530 l 1,4,-1
 1364 1530 l 1,5,-1
 1364 1094 l 1,6,-1
 1286 1094 l 1,7,8
 1281 1177 1281 1177 1272 1241.5 c 128,-1,9
 1263 1306 1263 1306 1234 1351 c 0,10,11
 1176 1443 1176 1443 998 1452 c 1,12,-1
 541 1452 l 1,13,-1
 541 824 l 1,14,-1
 791 824 l 2,15,16
 876 824 876 824 921.5 851.5 c 128,-1,17
 967 879 967 879 977 948 c 0,18,19
 979 968 979 968 980.5 990.5 c 128,-1,20
 982 1013 982 1013 984 1035 c 1,21,-1
 1068 1035 l 1,22,-1
 1068 519 l 1,23,-1
 984 519 l 1,24,25
 982 542 982 542 980.5 572 c 128,-1,26
 979 602 979 602 977 622 c 0,27,28
 967 691 967 691 920.5 718.5 c 128,-1,29
 874 746 874 746 791 746 c 2,30,-1
 541 746 l 1,31,-1
 541 78 l 1,32,-1
 969 78 l 2,33,34
 1232 78 1232 78 1288 321 c 0,35,36
 1304 391 1304 391 1309 465 c 1,37,-1
 1387 465 l 1,38,-1
 1387 0 l 1,39,-1
 71 0 l 1,40,-1
 71 79 l 1,0,-1
1131 1834 m 0,41,42
 1131 1740 1131 1740 1055 1708 c 0,43,44
 1032 1699 1032 1699 1006 1699 c 0,45,46
 956 1699 956 1699 920 1735 c 128,-1,47
 884 1771 884 1771 884 1809 c 0,48,49
 884 1874 884 1874 921 1910 c 128,-1,50
 958 1946 958 1946 995 1946 c 0,51,52
 1058 1946 1058 1946 1094.5 1909.5 c 128,-1,53
 1131 1873 1131 1873 1131 1834 c 0,41,42
715 1834 m 0,54,55
 715 1740 715 1740 639 1708 c 0,56,57
 616 1699 616 1699 590 1699 c 0,58,59
 540 1699 540 1699 504 1735 c 128,-1,60
 468 1771 468 1771 468 1809 c 0,61,62
 468 1874 468 1874 505 1910 c 128,-1,63
 542 1946 542 1946 579 1946 c 0,64,65
 642 1946 642 1946 678.5 1909.5 c 128,-1,66
 715 1873 715 1873 715 1834 c 0,54,55
EndSplineSet
EndChar

StartChar: Igrave
Encoding: 204 204 161
Width: 854
GlyphClass: 2
Flags: W
LayerCount: 2
Fore
SplineSet
95 78 m 1,0,-1
 292 78 l 1,1,-1
 293 1452 l 1,2,-1
 95 1452 l 1,3,-1
 95 1530 l 1,4,-1
 759 1530 l 1,5,-1
 759 1452 l 1,6,-1
 562 1452 l 1,7,-1
 562 78 l 1,8,-1
 759 78 l 1,9,-1
 759 0 l 1,10,-1
 95 0 l 1,11,-1
 95 78 l 1,0,-1
145 1774 m 1,12,13
 80 1796 80 1796 66.5 1856.5 c 128,-1,14
 53 1917 53 1917 82.5 1954 c 128,-1,15
 112 1991 112 1991 152 1997 c 128,-1,16
 192 2003 192 2003 216 1992.5 c 128,-1,17
 240 1982 240 1982 266 1959 c 2,18,-1
 565 1692 l 1,19,-1
 544 1651 l 1,20,-1
 145 1774 l 1,12,13
EndSplineSet
EndChar

StartChar: Iacute
Encoding: 205 205 162
Width: 854
GlyphClass: 2
Flags: W
LayerCount: 2
Fore
SplineSet
95 78 m 1,0,-1
 292 78 l 1,1,-1
 293 1452 l 1,2,-1
 95 1452 l 1,3,-1
 95 1530 l 1,4,-1
 759 1530 l 1,5,-1
 759 1452 l 1,6,-1
 562 1452 l 1,7,-1
 562 78 l 1,8,-1
 759 78 l 1,9,-1
 759 0 l 1,10,-1
 95 0 l 1,11,-1
 95 78 l 1,0,-1
301 1679 m 1,12,-1
 590 1956 l 1,13,14
 644 2005 644 2005 681 2001 c 0,15,16
 744 1993 744 1993 774 1957.5 c 128,-1,17
 804 1922 804 1922 797 1882 c 0,18,19
 784 1800 784 1800 718 1776 c 1,20,-1
 323 1639 l 1,21,-1
 301 1679 l 1,12,-1
EndSplineSet
EndChar

StartChar: Icircumflex
Encoding: 206 206 163
Width: 854
GlyphClass: 2
Flags: W
LayerCount: 2
Fore
SplineSet
95 78 m 1,0,-1
 292 78 l 1,1,-1
 293 1452 l 1,2,-1
 95 1452 l 1,3,-1
 95 1530 l 1,4,-1
 759 1530 l 1,5,-1
 759 1452 l 1,6,-1
 562 1452 l 1,7,-1
 562 78 l 1,8,-1
 759 78 l 1,9,-1
 759 0 l 1,10,-1
 95 0 l 1,11,-1
 95 78 l 1,0,-1
56 1646 m 1,12,-1
 319 1936 l 2,13,14
 377 2000 377 2000 412.5 2000 c 128,-1,15
 448 2000 448 2000 465 1992 c 1,16,17
 497 1979 497 1979 524 1950 c 1,18,-1
 790 1647 l 1,19,-1
 762 1610 l 1,20,-1
 428 1794 l 1,21,-1
 84 1610 l 1,22,-1
 56 1646 l 1,12,-1
EndSplineSet
EndChar

StartChar: Idieresis
Encoding: 207 207 164
Width: 854
GlyphClass: 2
Flags: W
LayerCount: 2
Fore
SplineSet
95 78 m 1,0,-1
 292 78 l 1,1,-1
 293 1452 l 1,2,-1
 95 1452 l 1,3,-1
 95 1530 l 1,4,-1
 759 1530 l 1,5,-1
 759 1452 l 1,6,-1
 562 1452 l 1,7,-1
 562 78 l 1,8,-1
 759 78 l 1,9,-1
 759 0 l 1,10,-1
 95 0 l 1,11,-1
 95 78 l 1,0,-1
752 1834 m 0,12,13
 752 1740 752 1740 676 1708 c 0,14,15
 653 1699 653 1699 627 1699 c 0,16,17
 577 1699 577 1699 541 1735 c 128,-1,18
 505 1771 505 1771 505 1809 c 0,19,20
 505 1874 505 1874 542 1910 c 128,-1,21
 579 1946 579 1946 616 1946 c 0,22,23
 679 1946 679 1946 715.5 1909.5 c 128,-1,24
 752 1873 752 1873 752 1834 c 0,12,13
336 1834 m 0,25,26
 336 1740 336 1740 260 1708 c 0,27,28
 237 1699 237 1699 211 1699 c 0,29,30
 161 1699 161 1699 125 1735 c 128,-1,31
 89 1771 89 1771 89 1809 c 0,32,33
 89 1874 89 1874 126 1910 c 128,-1,34
 163 1946 163 1946 200 1946 c 0,35,36
 263 1946 263 1946 299.5 1909.5 c 128,-1,37
 336 1873 336 1873 336 1834 c 0,25,26
EndSplineSet
EndChar

StartChar: Eth
Encoding: 208 208 165
Width: 1707
GlyphClass: 2
Flags: W
LayerCount: 2
Fore
SplineSet
83 78 m 1,0,-1
 283 78 l 1,1,-1
 283 735 l 1,2,-1
 113 735 l 1,3,-1
 113 813 l 1,4,-1
 283 813 l 1,5,-1
 284 1452 l 1,6,-1
 83 1452 l 1,7,-1
 83 1530 l 1,8,-1
 757 1530 l 2,9,10
 1360 1530 1360 1530 1537 1149 c 0,11,12
 1610 992 1610 992 1610 777 c 0,13,14
 1610 491 1610 491 1444 278 c 0,15,16
 1310 107 1310 107 1055 37 c 0,17,18
 921 0 921 0 743 0 c 2,19,-1
 83 0 l 1,20,-1
 83 78 l 1,0,-1
731 78 m 2,21,22
 1046 78 1046 78 1182 235 c 128,-1,23
 1318 392 1318 392 1318 770 c 2,24,-1
 1318 801 l 1,25,26
 1312 1163 1312 1163 1172.5 1307.5 c 128,-1,27
 1033 1452 1033 1452 744 1452 c 2,28,-1
 553 1452 l 1,29,-1
 553 813 l 1,30,-1
 943 813 l 1,31,-1
 943 735 l 1,32,-1
 553 735 l 1,33,-1
 553 78 l 1,34,-1
 731 78 l 2,21,22
EndSplineSet
EndChar

StartChar: Ntilde
Encoding: 209 209 166
Width: 1707
GlyphClass: 2
Flags: W
LayerCount: 2
Fore
SplineSet
93 78 m 1,0,-1
 267 78 l 1,1,-1
 267 1452 l 1,2,-1
 93 1452 l 1,3,-1
 93 1530 l 1,4,-1
 546 1530 l 1,5,-1
 1356 325 l 1,6,-1
 1356 1452 l 1,7,-1
 1162 1452 l 1,8,-1
 1162 1530 l 1,9,-1
 1637 1530 l 1,10,-1
 1637 1452 l 1,11,-1
 1454 1452 l 1,12,-1
 1454 0 l 1,13,-1
 1268 0 l 1,14,-1
 365 1327 l 1,15,-1
 365 78 l 1,16,-1
 568 78 l 1,17,-1
 568 0 l 1,18,-1
 93 0 l 1,19,-1
 93 78 l 1,0,-1
526 1734 m 1,20,21
 582 1834 582 1834 621 1877 c 0,22,23
 701 1965 701 1965 770.5 1965 c 128,-1,24
 840 1965 840 1965 909 1932 c 2,25,-1
 1012 1882 l 1,26,27
 1046 1867 1046 1867 1082.5 1867 c 128,-1,28
 1119 1867 1119 1867 1151.5 1891.5 c 128,-1,29
 1184 1916 1184 1916 1220 1956 c 1,30,-1
 1266 1923 l 1,31,32
 1210 1823 1210 1823 1171 1780 c 0,33,34
 1091 1692 1091 1692 1010 1692 c 1,35,36
 954 1689 954 1689 887 1723.5 c 128,-1,37
 820 1758 820 1758 784 1774 c 128,-1,38
 748 1790 748 1790 710.5 1790 c 128,-1,39
 673 1790 673 1790 640.5 1765.5 c 128,-1,40
 608 1741 608 1741 572 1701 c 1,41,-1
 526 1734 l 1,20,21
EndSplineSet
EndChar

StartChar: Ograve
Encoding: 210 210 167
Width: 1711
GlyphClass: 2
Flags: W
LayerCount: 2
Fore
SplineSet
119.5 565.5 m 128,-1,1
 98 664 98 664 98 764.5 c 128,-1,2
 98 865 98 865 119.5 961.5 c 128,-1,3
 141 1058 141 1058 183 1145 c 0,4,5
 271 1328 271 1328 442.5 1439 c 128,-1,6
 614 1550 614 1550 855 1550 c 0,7,8
 1221 1550 1221 1550 1428 1306 c 1,9,10
 1613 1086 1613 1086 1613 762 c 128,-1,11
 1613 438 1613 438 1426 218 c 0,12,13
 1298 68 1298 68 1089 10 c 0,14,15
 983 -20 983 -20 856.5 -20 c 128,-1,16
 730 -20 730 -20 625 9.5 c 128,-1,17
 520 39 520 39 436 92 c 128,-1,18
 352 145 352 145 288.5 218.5 c 128,-1,19
 225 292 225 292 183 379.5 c 128,-1,0
 141 467 141 467 119.5 565.5 c 128,-1,1
1216 296 m 0,20,21
 1254 365 1254 365 1289.5 481 c 128,-1,22
 1325 597 1325 597 1325 724.5 c 128,-1,23
 1325 852 1325 852 1313.5 937.5 c 128,-1,24
 1302 1023 1302 1023 1278 1100 c 0,25,26
 1225 1266 1225 1266 1119.5 1366.5 c 128,-1,27
 1014 1467 1014 1467 855 1467 c 0,28,29
 607 1467 607 1467 486 1245 c 0,30,31
 383 1054 383 1054 386.5 770.5 c 128,-1,32
 390 487 390 487 490 296 c 1,33,34
 614 63 614 63 851 63 c 128,-1,35
 1088 63 1088 63 1216 296 c 0,20,21
571 1774 m 1,36,37
 506 1796 506 1796 492.5 1856.5 c 128,-1,38
 479 1917 479 1917 508.5 1954 c 128,-1,39
 538 1991 538 1991 578 1997 c 128,-1,40
 618 2003 618 2003 642 1992.5 c 128,-1,41
 666 1982 666 1982 692 1959 c 2,42,-1
 991 1692 l 1,43,-1
 970 1651 l 1,44,-1
 571 1774 l 1,36,37
EndSplineSet
EndChar

StartChar: Oacute
Encoding: 211 211 168
Width: 1711
GlyphClass: 2
Flags: W
LayerCount: 2
Fore
SplineSet
119.5 565.5 m 128,-1,1
 98 664 98 664 98 764.5 c 128,-1,2
 98 865 98 865 119.5 961.5 c 128,-1,3
 141 1058 141 1058 183 1145 c 0,4,5
 271 1328 271 1328 442.5 1439 c 128,-1,6
 614 1550 614 1550 855 1550 c 0,7,8
 1221 1550 1221 1550 1428 1306 c 1,9,10
 1613 1086 1613 1086 1613 762 c 128,-1,11
 1613 438 1613 438 1426 218 c 0,12,13
 1298 68 1298 68 1089 10 c 0,14,15
 983 -20 983 -20 856.5 -20 c 128,-1,16
 730 -20 730 -20 625 9.5 c 128,-1,17
 520 39 520 39 436 92 c 128,-1,18
 352 145 352 145 288.5 218.5 c 128,-1,19
 225 292 225 292 183 379.5 c 128,-1,0
 141 467 141 467 119.5 565.5 c 128,-1,1
1216 296 m 0,20,21
 1254 365 1254 365 1289.5 481 c 128,-1,22
 1325 597 1325 597 1325 724.5 c 128,-1,23
 1325 852 1325 852 1313.5 937.5 c 128,-1,24
 1302 1023 1302 1023 1278 1100 c 0,25,26
 1225 1266 1225 1266 1119.5 1366.5 c 128,-1,27
 1014 1467 1014 1467 855 1467 c 0,28,29
 607 1467 607 1467 486 1245 c 0,30,31
 383 1054 383 1054 386.5 770.5 c 128,-1,32
 390 487 390 487 490 296 c 1,33,34
 614 63 614 63 851 63 c 128,-1,35
 1088 63 1088 63 1216 296 c 0,20,21
727 1679 m 1,36,-1
 1016 1956 l 1,37,38
 1070 2005 1070 2005 1107 2001 c 0,39,40
 1170 1993 1170 1993 1200 1957.5 c 128,-1,41
 1230 1922 1230 1922 1223 1882 c 0,42,43
 1210 1800 1210 1800 1144 1776 c 1,44,-1
 749 1639 l 1,45,-1
 727 1679 l 1,36,-1
EndSplineSet
EndChar

StartChar: Ocircumflex
Encoding: 212 212 169
Width: 1711
GlyphClass: 2
Flags: W
LayerCount: 2
Fore
SplineSet
119.5 565.5 m 128,-1,1
 98 664 98 664 98 764.5 c 128,-1,2
 98 865 98 865 119.5 961.5 c 128,-1,3
 141 1058 141 1058 183 1145 c 0,4,5
 271 1328 271 1328 442.5 1439 c 128,-1,6
 614 1550 614 1550 855 1550 c 0,7,8
 1221 1550 1221 1550 1428 1306 c 1,9,10
 1613 1086 1613 1086 1613 762 c 128,-1,11
 1613 438 1613 438 1426 218 c 0,12,13
 1298 68 1298 68 1089 10 c 0,14,15
 983 -20 983 -20 856.5 -20 c 128,-1,16
 730 -20 730 -20 625 9.5 c 128,-1,17
 520 39 520 39 436 92 c 128,-1,18
 352 145 352 145 288.5 218.5 c 128,-1,19
 225 292 225 292 183 379.5 c 128,-1,0
 141 467 141 467 119.5 565.5 c 128,-1,1
1216 296 m 0,20,21
 1254 365 1254 365 1289.5 481 c 128,-1,22
 1325 597 1325 597 1325 724.5 c 128,-1,23
 1325 852 1325 852 1313.5 937.5 c 128,-1,24
 1302 1023 1302 1023 1278 1100 c 0,25,26
 1225 1266 1225 1266 1119.5 1366.5 c 128,-1,27
 1014 1467 1014 1467 855 1467 c 0,28,29
 607 1467 607 1467 486 1245 c 0,30,31
 383 1054 383 1054 386.5 770.5 c 128,-1,32
 390 487 390 487 490 296 c 1,33,34
 614 63 614 63 851 63 c 128,-1,35
 1088 63 1088 63 1216 296 c 0,20,21
482 1646 m 1,36,-1
 745 1936 l 2,37,38
 803 2000 803 2000 838.5 2000 c 128,-1,39
 874 2000 874 2000 891 1992 c 1,40,41
 923 1979 923 1979 950 1950 c 1,42,-1
 1216 1647 l 1,43,-1
 1188 1610 l 1,44,-1
 854 1794 l 1,45,-1
 510 1610 l 1,46,-1
 482 1646 l 1,36,-1
EndSplineSet
EndChar

StartChar: Otilde
Encoding: 213 213 170
Width: 1711
GlyphClass: 2
Flags: W
LayerCount: 2
Fore
SplineSet
119.5 565.5 m 128,-1,1
 98 664 98 664 98 764.5 c 128,-1,2
 98 865 98 865 119.5 961.5 c 128,-1,3
 141 1058 141 1058 183 1145 c 0,4,5
 271 1328 271 1328 442.5 1439 c 128,-1,6
 614 1550 614 1550 855 1550 c 0,7,8
 1221 1550 1221 1550 1428 1306 c 1,9,10
 1613 1086 1613 1086 1613 762 c 128,-1,11
 1613 438 1613 438 1426 218 c 0,12,13
 1298 68 1298 68 1089 10 c 0,14,15
 983 -20 983 -20 856.5 -20 c 128,-1,16
 730 -20 730 -20 625 9.5 c 128,-1,17
 520 39 520 39 436 92 c 128,-1,18
 352 145 352 145 288.5 218.5 c 128,-1,19
 225 292 225 292 183 379.5 c 128,-1,0
 141 467 141 467 119.5 565.5 c 128,-1,1
1216 296 m 0,20,21
 1254 365 1254 365 1289.5 481 c 128,-1,22
 1325 597 1325 597 1325 724.5 c 128,-1,23
 1325 852 1325 852 1313.5 937.5 c 128,-1,24
 1302 1023 1302 1023 1278 1100 c 0,25,26
 1225 1266 1225 1266 1119.5 1366.5 c 128,-1,27
 1014 1467 1014 1467 855 1467 c 0,28,29
 607 1467 607 1467 486 1245 c 0,30,31
 383 1054 383 1054 386.5 770.5 c 128,-1,32
 390 487 390 487 490 296 c 1,33,34
 614 63 614 63 851 63 c 128,-1,35
 1088 63 1088 63 1216 296 c 0,20,21
479 1734 m 1,36,37
 535 1834 535 1834 574 1877 c 0,38,39
 654 1965 654 1965 723.5 1965 c 128,-1,40
 793 1965 793 1965 862 1932 c 2,41,-1
 965 1882 l 1,42,43
 999 1867 999 1867 1035.5 1867 c 128,-1,44
 1072 1867 1072 1867 1104.5 1891.5 c 128,-1,45
 1137 1916 1137 1916 1173 1956 c 1,46,-1
 1219 1923 l 1,47,48
 1163 1823 1163 1823 1124 1780 c 0,49,50
 1044 1692 1044 1692 963 1692 c 1,51,52
 907 1689 907 1689 840 1723.5 c 128,-1,53
 773 1758 773 1758 737 1774 c 128,-1,54
 701 1790 701 1790 663.5 1790 c 128,-1,55
 626 1790 626 1790 593.5 1765.5 c 128,-1,56
 561 1741 561 1741 525 1701 c 1,57,-1
 479 1734 l 1,36,37
EndSplineSet
EndChar

StartChar: Odieresis
Encoding: 214 214 171
Width: 1711
GlyphClass: 2
Flags: W
LayerCount: 2
Fore
SplineSet
119.5 565.5 m 128,-1,1
 98 664 98 664 98 764.5 c 128,-1,2
 98 865 98 865 119.5 961.5 c 128,-1,3
 141 1058 141 1058 183 1145 c 0,4,5
 271 1328 271 1328 442.5 1439 c 128,-1,6
 614 1550 614 1550 855 1550 c 0,7,8
 1221 1550 1221 1550 1428 1306 c 1,9,10
 1613 1086 1613 1086 1613 762 c 128,-1,11
 1613 438 1613 438 1426 218 c 0,12,13
 1298 68 1298 68 1089 10 c 0,14,15
 983 -20 983 -20 856.5 -20 c 128,-1,16
 730 -20 730 -20 625 9.5 c 128,-1,17
 520 39 520 39 436 92 c 128,-1,18
 352 145 352 145 288.5 218.5 c 128,-1,19
 225 292 225 292 183 379.5 c 128,-1,0
 141 467 141 467 119.5 565.5 c 128,-1,1
1216 296 m 0,20,21
 1254 365 1254 365 1289.5 481 c 128,-1,22
 1325 597 1325 597 1325 724.5 c 128,-1,23
 1325 852 1325 852 1313.5 937.5 c 128,-1,24
 1302 1023 1302 1023 1278 1100 c 0,25,26
 1225 1266 1225 1266 1119.5 1366.5 c 128,-1,27
 1014 1467 1014 1467 855 1467 c 0,28,29
 607 1467 607 1467 486 1245 c 0,30,31
 383 1054 383 1054 386.5 770.5 c 128,-1,32
 390 487 390 487 490 296 c 1,33,34
 614 63 614 63 851 63 c 128,-1,35
 1088 63 1088 63 1216 296 c 0,20,21
1178 1834 m 0,36,37
 1178 1740 1178 1740 1102 1708 c 0,38,39
 1079 1699 1079 1699 1053 1699 c 0,40,41
 1003 1699 1003 1699 967 1735 c 128,-1,42
 931 1771 931 1771 931 1809 c 0,43,44
 931 1874 931 1874 968 1910 c 128,-1,45
 1005 1946 1005 1946 1042 1946 c 0,46,47
 1105 1946 1105 1946 1141.5 1909.5 c 128,-1,48
 1178 1873 1178 1873 1178 1834 c 0,36,37
762 1834 m 0,49,50
 762 1740 762 1740 686 1708 c 0,51,52
 663 1699 663 1699 637 1699 c 0,53,54
 587 1699 587 1699 551 1735 c 128,-1,55
 515 1771 515 1771 515 1809 c 0,56,57
 515 1874 515 1874 552 1910 c 128,-1,58
 589 1946 589 1946 626 1946 c 0,59,60
 689 1946 689 1946 725.5 1909.5 c 128,-1,61
 762 1873 762 1873 762 1834 c 0,49,50
EndSplineSet
EndChar

StartChar: multiply
Encoding: 215 215 172
Width: 1536
GlyphClass: 2
Flags: W
LayerCount: 2
Fore
SplineSet
697 544 m 1,0,-1
 381 860 l 1,1,-1
 452 931 l 1,2,-1
 768 615 l 1,3,-1
 1085 931 l 1,4,-1
 1156 860 l 1,5,-1
 839 544 l 1,6,-1
 1156 228 l 1,7,-1
 1086 156 l 1,8,-1
 768 473 l 1,9,-1
 451 156 l 1,10,-1
 381 228 l 1,11,-1
 697 544 l 1,0,-1
EndSplineSet
EndChar

StartChar: Oslash
Encoding: 216 216 173
Width: 1711
GlyphClass: 2
Flags: W
LayerCount: 2
Fore
SplineSet
855 -20 m 0,0,1
 573 -20 573 -20 381 130 c 1,2,-1
 266 -9 l 1,3,-1
 174 69 l 1,4,-1
 296 210 l 1,5,6
 98 428 98 428 98 756 c 128,-1,7
 98 1084 98 1084 288 1306 c 0,8,9
 498 1550 498 1550 855 1550 c 0,10,11
 1130 1550 1130 1550 1322 1405 c 1,12,-1
 1433 1540 l 1,13,-1
 1525 1462 l 1,14,-1
 1408 1327 l 1,15,16
 1613 1106 1613 1106 1613 772 c 128,-1,17
 1613 438 1613 438 1426 218 c 0,18,19
 1298 68 1298 68 1089 10 c 0,20,21
 983 -20 983 -20 855 -20 c 0,0,1
1200 1269 m 1,22,23
 1072 1467 1072 1467 855 1467 c 0,24,25
 607 1467 607 1467 486 1245 c 0,26,27
 383 1054 383 1054 386 767 c 0,28,29
 388 550 388 550 452 379 c 1,30,-1
 807 790 l 1,31,-1
 1200 1269 l 1,22,23
505 269 m 1,32,33
 630 63 630 63 859 63 c 128,-1,34
 1088 63 1088 63 1216 296 c 0,35,36
 1325 494 1325 494 1325 740 c 128,-1,37
 1325 986 1325 986 1256 1159 c 1,38,-1
 879 722 l 1,39,-1
 505 269 l 1,32,33
EndSplineSet
EndChar

StartChar: Ugrave
Encoding: 217 217 174
Width: 1539
GlyphClass: 2
Flags: W
LayerCount: 2
Fore
SplineSet
183 1452 m 1,0,-1
 46 1452 l 1,1,-1
 46 1530 l 1,2,-1
 598 1530 l 1,3,-1
 598 1452 l 1,4,-1
 452 1452 l 1,5,-1
 452 525 l 2,6,7
 452 162 452 162 656 95 c 0,8,9
 724 73 724 73 788.5 73 c 128,-1,10
 853 73 853 73 900.5 79 c 128,-1,11
 948 85 948 85 995 102 c 0,12,13
 1100 142 1100 142 1167.5 246 c 128,-1,14
 1235 350 1235 350 1235 543 c 2,15,-1
 1235 1452 l 1,16,-1
 1079 1452 l 1,17,-1
 1079 1530 l 1,18,-1
 1479 1530 l 1,19,-1
 1479 1452 l 1,20,-1
 1333 1452 l 1,21,-1
 1333 529 l 2,22,23
 1333 252 1333 252 1189 116 c 128,-1,24
 1045 -20 1045 -20 798 -20 c 0,25,26
 333 -20 333 -20 214 332 c 0,27,28
 182 426 182 426 182 559 c 2,29,-1
 183 1452 l 1,0,-1
520 1774 m 1,30,31
 455 1796 455 1796 441.5 1856.5 c 128,-1,32
 428 1917 428 1917 457.5 1954 c 128,-1,33
 487 1991 487 1991 527 1997 c 128,-1,34
 567 2003 567 2003 591 1992.5 c 128,-1,35
 615 1982 615 1982 641 1959 c 2,36,-1
 940 1692 l 1,37,-1
 919 1651 l 1,38,-1
 520 1774 l 1,30,31
EndSplineSet
EndChar

StartChar: Uacute
Encoding: 218 218 175
Width: 1539
GlyphClass: 2
Flags: W
LayerCount: 2
Fore
SplineSet
183 1452 m 1,0,-1
 46 1452 l 1,1,-1
 46 1530 l 1,2,-1
 598 1530 l 1,3,-1
 598 1452 l 1,4,-1
 452 1452 l 1,5,-1
 452 525 l 2,6,7
 452 162 452 162 656 95 c 0,8,9
 724 73 724 73 788.5 73 c 128,-1,10
 853 73 853 73 900.5 79 c 128,-1,11
 948 85 948 85 995 102 c 0,12,13
 1100 142 1100 142 1167.5 246 c 128,-1,14
 1235 350 1235 350 1235 543 c 2,15,-1
 1235 1452 l 1,16,-1
 1079 1452 l 1,17,-1
 1079 1530 l 1,18,-1
 1479 1530 l 1,19,-1
 1479 1452 l 1,20,-1
 1333 1452 l 1,21,-1
 1333 529 l 2,22,23
 1333 252 1333 252 1189 116 c 128,-1,24
 1045 -20 1045 -20 798 -20 c 0,25,26
 333 -20 333 -20 214 332 c 0,27,28
 182 426 182 426 182 559 c 2,29,-1
 183 1452 l 1,0,-1
676 1679 m 1,30,-1
 965 1956 l 1,31,32
 1019 2005 1019 2005 1056 2001 c 0,33,34
 1119 1993 1119 1993 1149 1957.5 c 128,-1,35
 1179 1922 1179 1922 1172 1882 c 0,36,37
 1159 1800 1159 1800 1093 1776 c 1,38,-1
 698 1639 l 1,39,-1
 676 1679 l 1,30,-1
EndSplineSet
EndChar

StartChar: Ucircumflex
Encoding: 219 219 176
Width: 1539
GlyphClass: 2
Flags: W
LayerCount: 2
Fore
SplineSet
183 1452 m 1,0,-1
 46 1452 l 1,1,-1
 46 1530 l 1,2,-1
 598 1530 l 1,3,-1
 598 1452 l 1,4,-1
 452 1452 l 1,5,-1
 452 525 l 2,6,7
 452 162 452 162 656 95 c 0,8,9
 724 73 724 73 788.5 73 c 128,-1,10
 853 73 853 73 900.5 79 c 128,-1,11
 948 85 948 85 995 102 c 0,12,13
 1100 142 1100 142 1167.5 246 c 128,-1,14
 1235 350 1235 350 1235 543 c 2,15,-1
 1235 1452 l 1,16,-1
 1079 1452 l 1,17,-1
 1079 1530 l 1,18,-1
 1479 1530 l 1,19,-1
 1479 1452 l 1,20,-1
 1333 1452 l 1,21,-1
 1333 529 l 2,22,23
 1333 252 1333 252 1189 116 c 128,-1,24
 1045 -20 1045 -20 798 -20 c 0,25,26
 333 -20 333 -20 214 332 c 0,27,28
 182 426 182 426 182 559 c 2,29,-1
 183 1452 l 1,0,-1
431 1646 m 1,30,-1
 694 1936 l 2,31,32
 752 2000 752 2000 787.5 2000 c 128,-1,33
 823 2000 823 2000 840 1992 c 1,34,35
 872 1979 872 1979 899 1950 c 1,36,-1
 1165 1647 l 1,37,-1
 1137 1610 l 1,38,-1
 803 1794 l 1,39,-1
 459 1610 l 1,40,-1
 431 1646 l 1,30,-1
EndSplineSet
EndChar

StartChar: Udieresis
Encoding: 220 220 177
Width: 1539
GlyphClass: 2
Flags: W
LayerCount: 2
Fore
SplineSet
183 1452 m 1,0,-1
 46 1452 l 1,1,-1
 46 1530 l 1,2,-1
 598 1530 l 1,3,-1
 598 1452 l 1,4,-1
 452 1452 l 1,5,-1
 452 525 l 2,6,7
 452 162 452 162 656 95 c 0,8,9
 724 73 724 73 788.5 73 c 128,-1,10
 853 73 853 73 900.5 79 c 128,-1,11
 948 85 948 85 995 102 c 0,12,13
 1100 142 1100 142 1167.5 246 c 128,-1,14
 1235 350 1235 350 1235 543 c 2,15,-1
 1235 1452 l 1,16,-1
 1079 1452 l 1,17,-1
 1079 1530 l 1,18,-1
 1479 1530 l 1,19,-1
 1479 1452 l 1,20,-1
 1333 1452 l 1,21,-1
 1333 529 l 2,22,23
 1333 252 1333 252 1189 116 c 128,-1,24
 1045 -20 1045 -20 798 -20 c 0,25,26
 333 -20 333 -20 214 332 c 0,27,28
 182 426 182 426 182 559 c 2,29,-1
 183 1452 l 1,0,-1
1127 1834 m 0,30,31
 1127 1740 1127 1740 1051 1708 c 0,32,33
 1028 1699 1028 1699 1002 1699 c 0,34,35
 952 1699 952 1699 916 1735 c 128,-1,36
 880 1771 880 1771 880 1809 c 0,37,38
 880 1874 880 1874 917 1910 c 128,-1,39
 954 1946 954 1946 991 1946 c 0,40,41
 1054 1946 1054 1946 1090.5 1909.5 c 128,-1,42
 1127 1873 1127 1873 1127 1834 c 0,30,31
711 1834 m 0,43,44
 711 1740 711 1740 635 1708 c 0,45,46
 612 1699 612 1699 586 1699 c 0,47,48
 536 1699 536 1699 500 1735 c 128,-1,49
 464 1771 464 1771 464 1809 c 0,50,51
 464 1874 464 1874 501 1910 c 128,-1,52
 538 1946 538 1946 575 1946 c 0,53,54
 638 1946 638 1946 674.5 1909.5 c 128,-1,55
 711 1873 711 1873 711 1834 c 0,43,44
EndSplineSet
EndChar

StartChar: Yacute
Encoding: 221 221 178
Width: 1539
GlyphClass: 2
Flags: W
LayerCount: 2
Fore
SplineSet
448 78 m 1,0,-1
 646 78 l 1,1,-1
 647 590 l 1,2,-1
 135 1452 l 1,3,-1
 10 1452 l 1,4,-1
 10 1530 l 1,5,-1
 654 1530 l 1,6,-1
 654 1452 l 1,7,-1
 451 1452 l 1,8,-1
 860 733 l 1,9,-1
 1266 1452 l 1,10,-1
 1082 1452 l 1,11,-1
 1082 1530 l 1,12,-1
 1524 1530 l 1,13,-1
 1524 1452 l 1,14,-1
 1373 1452 l 1,15,-1
 916 652 l 1,16,-1
 916 78 l 1,17,-1
 1115 78 l 1,18,-1
 1115 0 l 1,19,-1
 448 0 l 1,20,-1
 448 78 l 1,0,-1
657 1679 m 1,21,-1
 946 1956 l 1,22,23
 1000 2005 1000 2005 1037 2001 c 0,24,25
 1100 1993 1100 1993 1130 1957.5 c 128,-1,26
 1160 1922 1160 1922 1153 1882 c 0,27,28
 1140 1800 1140 1800 1074 1776 c 1,29,-1
 679 1639 l 1,30,-1
 657 1679 l 1,21,-1
EndSplineSet
EndChar

StartChar: Thorn
Encoding: 222 222 179
Width: 1364
GlyphClass: 2
Flags: W
LayerCount: 2
Fore
SplineSet
671 1226 m 2,0,1
 1310 1226 1310 1226 1310 792 c 0,2,3
 1310 578 1310 578 1150 447.5 c 128,-1,4
 990 317 990 317 675 317 c 2,5,-1
 492 317 l 1,6,-1
 492 78 l 1,7,-1
 705 78 l 1,8,-1
 705 0 l 1,9,-1
 51 0 l 1,10,-1
 51 78 l 1,11,-1
 222 78 l 1,12,-1
 223 1452 l 1,13,-1
 51 1452 l 1,14,-1
 51 1530 l 1,15,-1
 705 1530 l 1,16,-1
 705 1452 l 1,17,-1
 492 1452 l 1,18,-1
 492 1226 l 1,19,-1
 671 1226 l 2,0,1
700 386 m 2,20,21
 932 386 932 386 1003 612 c 0,22,23
 1029 695 1029 695 1029 781 c 0,24,25
 1029 958 1029 958 949 1057.5 c 128,-1,26
 869 1157 869 1157 702 1157 c 2,27,-1
 492 1157 l 1,28,-1
 492 386 l 1,29,-1
 700 386 l 2,20,21
EndSplineSet
EndChar

StartChar: germandbls
Encoding: 223 223 180
Width: 1366
GlyphClass: 2
Flags: W
LayerCount: 2
Fore
SplineSet
689 1615 m 0,0,1
 461 1615 461 1615 461 1187 c 2,2,-1
 461 0 l 1,3,-1
 47 0 l 1,4,-1
 47 78 l 1,5,-1
 200 78 l 1,6,-1
 200 945 l 1,7,-1
 22 945 l 1,8,-1
 22 1023 l 1,9,-1
 200 1023 l 1,10,-1
 200 1105 l 2,11,12
 200 1367 200 1367 339.5 1525.5 c 128,-1,13
 479 1684 479 1684 703.5 1684 c 128,-1,14
 928 1684 928 1684 1045.5 1593 c 128,-1,15
 1163 1502 1163 1502 1163 1374 c 0,16,17
 1163 1171 1163 1171 978 1066 c 0,18,19
 856 997 856 997 824 962.5 c 128,-1,20
 792 928 792 928 792 898.5 c 128,-1,21
 792 869 792 869 806.5 851 c 128,-1,22
 821 833 821 833 844.5 814 c 128,-1,23
 868 795 868 795 898 776 c 2,24,-1
 956 740 l 1,25,26
 1026 701 1026 701 1084 672 c 0,27,28
 1219 604 1219 604 1276.5 529.5 c 128,-1,29
 1334 455 1334 455 1334 367 c 0,30,31
 1334 196 1334 196 1224 88 c 128,-1,32
 1114 -20 1114 -20 926 -20 c 0,33,34
 797 -20 797 -20 698.5 31 c 128,-1,35
 600 82 600 82 586 148 c 1,36,37
 588 180 588 180 619 213 c 128,-1,38
 650 246 650 246 684 252 c 1,39,40
 744 135 744 135 859 84 c 0,41,42
 900 65 900 65 944 65 c 0,43,44
 1039 65 1039 65 1099.5 110 c 128,-1,45
 1160 155 1160 155 1160 242.5 c 128,-1,46
 1160 330 1160 330 1006 414 c 1,47,-1
 910 464 l 2,48,49
 784 529 784 529 733 577 c 0,50,51
 632 672 632 672 632 779 c 128,-1,52
 632 886 632 886 704 970 c 0,53,54
 734 1006 734 1006 770 1040 c 0,55,56
 908 1173 908 1173 908 1325 c 128,-1,57
 908 1477 908 1477 846 1546 c 128,-1,58
 784 1615 784 1615 689 1615 c 0,0,1
EndSplineSet
EndChar

StartChar: agrave
Encoding: 224 224 181
Width: 1195
GlyphClass: 2
Flags: W
LayerCount: 2
Fore
SplineSet
765 113 m 1,0,1
 649 -20 649 -20 454 -20 c 0,2,3
 306 -20 306 -20 199 62.5 c 128,-1,4
 92 145 92 145 92 278.5 c 128,-1,5
 92 412 92 412 197 488.5 c 128,-1,6
 302 565 302 565 467.5 565 c 128,-1,7
 633 565 633 565 744 482 c 1,8,-1
 744 720 l 2,9,10
 744 841 744 841 714 884 c 128,-1,11
 684 927 684 927 643.5 944 c 128,-1,12
 603 961 603 961 554 961 c 0,13,14
 477 961 477 961 424 943.5 c 128,-1,15
 371 926 371 926 353 908 c 1,16,17
 399 894 399 894 424 838 c 0,18,19
 432 818 432 818 432 790 c 0,20,21
 432 735 432 735 392 698.5 c 128,-1,22
 352 662 352 662 312 662 c 0,23,24
 242 662 242 662 203 699 c 128,-1,25
 164 736 164 736 164 788 c 128,-1,26
 164 840 164 840 183 873.5 c 128,-1,27
 202 907 202 907 234 934 c 0,28,29
 295 985 295 985 387.5 1012 c 128,-1,30
 480 1039 480 1039 561 1039 c 0,31,32
 786 1039 786 1039 894 948 c 128,-1,33
 1002 857 1002 857 1002 694 c 2,34,-1
 1002 161 l 2,35,36
 1002 78 1002 78 1043 78 c 128,-1,37
 1084 78 1084 78 1122 128 c 1,38,-1
 1174 85 l 1,39,40
 1106 -18 1106 -18 952 -18 c 0,41,42
 898 -18 898 -18 842.5 16 c 128,-1,43
 787 50 787 50 765 113 c 1,0,1
747 393 m 1,44,45
 662 476 662 476 561 476 c 128,-1,46
 460 476 460 476 409 428.5 c 128,-1,47
 358 381 358 381 358 276 c 0,48,49
 358 121 358 121 467 88 c 0,50,51
 498 78 498 78 530 78 c 0,52,53
 621 78 621 78 704 148 c 0,54,55
 728 169 728 169 747 193 c 1,56,-1
 747 393 l 1,44,45
291 1406 m 2,57,58
 232 1442 232 1442 237 1517 c 1,59,60
 239 1566 239 1566 277 1594 c 128,-1,61
 315 1622 315 1622 355.5 1617.5 c 128,-1,62
 396 1613 396 1613 416 1597.5 c 128,-1,63
 436 1582 436 1582 456 1552 c 2,64,-1
 676 1218 l 1,65,-1
 645 1184 l 1,66,-1
 291 1406 l 2,57,58
EndSplineSet
EndChar

StartChar: aacute
Encoding: 225 225 182
Width: 1195
GlyphClass: 2
Flags: W
LayerCount: 2
Fore
SplineSet
765 113 m 1,0,1
 649 -20 649 -20 454 -20 c 0,2,3
 306 -20 306 -20 199 62.5 c 128,-1,4
 92 145 92 145 92 278.5 c 128,-1,5
 92 412 92 412 197 488.5 c 128,-1,6
 302 565 302 565 467.5 565 c 128,-1,7
 633 565 633 565 744 482 c 1,8,-1
 744 720 l 2,9,10
 744 841 744 841 714 884 c 128,-1,11
 684 927 684 927 643.5 944 c 128,-1,12
 603 961 603 961 554 961 c 0,13,14
 477 961 477 961 424 943.5 c 128,-1,15
 371 926 371 926 353 908 c 1,16,17
 399 894 399 894 424 838 c 0,18,19
 432 818 432 818 432 790 c 0,20,21
 432 735 432 735 392 698.5 c 128,-1,22
 352 662 352 662 312 662 c 0,23,24
 242 662 242 662 203 699 c 128,-1,25
 164 736 164 736 164 788 c 128,-1,26
 164 840 164 840 183 873.5 c 128,-1,27
 202 907 202 907 234 934 c 0,28,29
 295 985 295 985 387.5 1012 c 128,-1,30
 480 1039 480 1039 561 1039 c 0,31,32
 786 1039 786 1039 894 948 c 128,-1,33
 1002 857 1002 857 1002 694 c 2,34,-1
 1002 161 l 2,35,36
 1002 78 1002 78 1043 78 c 128,-1,37
 1084 78 1084 78 1122 128 c 1,38,-1
 1174 85 l 1,39,40
 1106 -18 1106 -18 952 -18 c 0,41,42
 898 -18 898 -18 842.5 16 c 128,-1,43
 787 50 787 50 765 113 c 1,0,1
747 393 m 1,44,45
 662 476 662 476 561 476 c 128,-1,46
 460 476 460 476 409 428.5 c 128,-1,47
 358 381 358 381 358 276 c 0,48,49
 358 121 358 121 467 88 c 0,50,51
 498 78 498 78 530 78 c 0,52,53
 621 78 621 78 704 148 c 0,54,55
 728 169 728 169 747 193 c 1,56,-1
 747 393 l 1,44,45
478 1218 m 1,57,-1
 698 1552 l 2,58,59
 737 1610 737 1610 775 1615 c 0,60,61
 839 1623 839 1623 876 1595 c 128,-1,62
 913 1567 913 1567 916 1527 c 0,63,64
 922 1443 922 1443 863 1406 c 2,65,-1
 509 1184 l 1,66,-1
 478 1218 l 1,57,-1
EndSplineSet
EndChar

StartChar: acircumflex
Encoding: 226 226 183
Width: 1195
GlyphClass: 2
Flags: W
LayerCount: 2
Fore
SplineSet
765 113 m 1,0,1
 649 -20 649 -20 454 -20 c 0,2,3
 306 -20 306 -20 199 62.5 c 128,-1,4
 92 145 92 145 92 278.5 c 128,-1,5
 92 412 92 412 197 488.5 c 128,-1,6
 302 565 302 565 467.5 565 c 128,-1,7
 633 565 633 565 744 482 c 1,8,-1
 744 720 l 2,9,10
 744 841 744 841 714 884 c 128,-1,11
 684 927 684 927 643.5 944 c 128,-1,12
 603 961 603 961 554 961 c 0,13,14
 477 961 477 961 424 943.5 c 128,-1,15
 371 926 371 926 353 908 c 1,16,17
 399 894 399 894 424 838 c 0,18,19
 432 818 432 818 432 790 c 0,20,21
 432 735 432 735 392 698.5 c 128,-1,22
 352 662 352 662 312 662 c 0,23,24
 242 662 242 662 203 699 c 128,-1,25
 164 736 164 736 164 788 c 128,-1,26
 164 840 164 840 183 873.5 c 128,-1,27
 202 907 202 907 234 934 c 0,28,29
 295 985 295 985 387.5 1012 c 128,-1,30
 480 1039 480 1039 561 1039 c 0,31,32
 786 1039 786 1039 894 948 c 128,-1,33
 1002 857 1002 857 1002 694 c 2,34,-1
 1002 161 l 2,35,36
 1002 78 1002 78 1043 78 c 128,-1,37
 1084 78 1084 78 1122 128 c 1,38,-1
 1174 85 l 1,39,40
 1106 -18 1106 -18 952 -18 c 0,41,42
 898 -18 898 -18 842.5 16 c 128,-1,43
 787 50 787 50 765 113 c 1,0,1
747 393 m 1,44,45
 662 476 662 476 561 476 c 128,-1,46
 460 476 460 476 409 428.5 c 128,-1,47
 358 381 358 381 358 276 c 0,48,49
 358 121 358 121 467 88 c 0,50,51
 498 78 498 78 530 78 c 0,52,53
 621 78 621 78 704 148 c 0,54,55
 728 169 728 169 747 193 c 1,56,-1
 747 393 l 1,44,45
208 1212 m 1,57,-1
 474 1535 l 1,58,59
 521 1599 521 1599 585 1599 c 128,-1,60
 649 1599 649 1599 699 1528 c 1,61,-1
 950 1210 l 1,62,-1
 917 1179 l 1,63,-1
 583 1383 l 1,64,-1
 239 1179 l 1,65,-1
 208 1212 l 1,57,-1
EndSplineSet
EndChar

StartChar: atilde
Encoding: 227 227 184
Width: 1195
GlyphClass: 2
Flags: W
LayerCount: 2
Fore
SplineSet
765 113 m 1,0,1
 649 -20 649 -20 454 -20 c 0,2,3
 306 -20 306 -20 199 62.5 c 128,-1,4
 92 145 92 145 92 278.5 c 128,-1,5
 92 412 92 412 197 488.5 c 128,-1,6
 302 565 302 565 467.5 565 c 128,-1,7
 633 565 633 565 744 482 c 1,8,-1
 744 720 l 2,9,10
 744 841 744 841 714 884 c 128,-1,11
 684 927 684 927 643.5 944 c 128,-1,12
 603 961 603 961 554 961 c 0,13,14
 477 961 477 961 424 943.5 c 128,-1,15
 371 926 371 926 353 908 c 1,16,17
 399 894 399 894 424 838 c 0,18,19
 432 818 432 818 432 790 c 0,20,21
 432 735 432 735 392 698.5 c 128,-1,22
 352 662 352 662 312 662 c 0,23,24
 242 662 242 662 203 699 c 128,-1,25
 164 736 164 736 164 788 c 128,-1,26
 164 840 164 840 183 873.5 c 128,-1,27
 202 907 202 907 234 934 c 0,28,29
 295 985 295 985 387.5 1012 c 128,-1,30
 480 1039 480 1039 561 1039 c 0,31,32
 786 1039 786 1039 894 948 c 128,-1,33
 1002 857 1002 857 1002 694 c 2,34,-1
 1002 161 l 2,35,36
 1002 78 1002 78 1043 78 c 128,-1,37
 1084 78 1084 78 1122 128 c 1,38,-1
 1174 85 l 1,39,40
 1106 -18 1106 -18 952 -18 c 0,41,42
 898 -18 898 -18 842.5 16 c 128,-1,43
 787 50 787 50 765 113 c 1,0,1
747 393 m 1,44,45
 662 476 662 476 561 476 c 128,-1,46
 460 476 460 476 409 428.5 c 128,-1,47
 358 381 358 381 358 276 c 0,48,49
 358 121 358 121 467 88 c 0,50,51
 498 78 498 78 530 78 c 0,52,53
 621 78 621 78 704 148 c 0,54,55
 728 169 728 169 747 193 c 1,56,-1
 747 393 l 1,44,45
944 1475 m 1,57,58
 833 1239 833 1239 683 1239 c 0,59,60
 627 1239 627 1239 560.5 1274.5 c 128,-1,61
 494 1310 494 1310 459 1326 c 128,-1,62
 424 1342 424 1342 387 1342 c 128,-1,63
 350 1342 350 1342 317.5 1317.5 c 128,-1,64
 285 1293 285 1293 249 1253 c 1,65,-1
 203 1286 l 1,66,67
 259 1386 259 1386 298 1429 c 0,68,69
 378 1517 378 1517 447 1517 c 128,-1,70
 516 1517 516 1517 582 1483.5 c 128,-1,71
 648 1450 648 1450 681 1434.5 c 128,-1,72
 714 1419 714 1419 745 1419 c 0,73,74
 824 1419 824 1419 871 1473 c 0,75,76
 885 1489 885 1489 897 1506 c 1,77,-1
 944 1475 l 1,57,58
EndSplineSet
EndChar

StartChar: adieresis
Encoding: 228 228 185
Width: 1195
GlyphClass: 2
Flags: W
LayerCount: 2
Fore
SplineSet
765 113 m 1,0,1
 649 -20 649 -20 454 -20 c 0,2,3
 306 -20 306 -20 199 62.5 c 128,-1,4
 92 145 92 145 92 278.5 c 128,-1,5
 92 412 92 412 197 488.5 c 128,-1,6
 302 565 302 565 467.5 565 c 128,-1,7
 633 565 633 565 744 482 c 1,8,-1
 744 720 l 2,9,10
 744 841 744 841 714 884 c 128,-1,11
 684 927 684 927 643.5 944 c 128,-1,12
 603 961 603 961 554 961 c 0,13,14
 477 961 477 961 424 943.5 c 128,-1,15
 371 926 371 926 353 908 c 1,16,17
 399 894 399 894 424 838 c 0,18,19
 432 818 432 818 432 790 c 0,20,21
 432 735 432 735 392 698.5 c 128,-1,22
 352 662 352 662 312 662 c 0,23,24
 242 662 242 662 203 699 c 128,-1,25
 164 736 164 736 164 788 c 128,-1,26
 164 840 164 840 183 873.5 c 128,-1,27
 202 907 202 907 234 934 c 0,28,29
 295 985 295 985 387.5 1012 c 128,-1,30
 480 1039 480 1039 561 1039 c 0,31,32
 786 1039 786 1039 894 948 c 128,-1,33
 1002 857 1002 857 1002 694 c 2,34,-1
 1002 161 l 2,35,36
 1002 78 1002 78 1043 78 c 128,-1,37
 1084 78 1084 78 1122 128 c 1,38,-1
 1174 85 l 1,39,40
 1106 -18 1106 -18 952 -18 c 0,41,42
 898 -18 898 -18 842.5 16 c 128,-1,43
 787 50 787 50 765 113 c 1,0,1
747 393 m 1,44,45
 662 476 662 476 561 476 c 128,-1,46
 460 476 460 476 409 428.5 c 128,-1,47
 358 381 358 381 358 276 c 0,48,49
 358 121 358 121 467 88 c 0,50,51
 498 78 498 78 530 78 c 0,52,53
 621 78 621 78 704 148 c 0,54,55
 728 169 728 169 747 193 c 1,56,-1
 747 393 l 1,44,45
929 1377 m 0,57,58
 929 1285 929 1285 853 1254 c 0,59,60
 830 1244 830 1244 804 1244 c 0,61,62
 755 1244 755 1244 718.5 1278.5 c 128,-1,63
 682 1313 682 1313 682 1352 c 0,64,65
 682 1416 682 1416 718 1452 c 1,66,67
 755 1487 755 1487 792 1487 c 0,68,69
 857 1487 857 1487 893 1451 c 128,-1,70
 929 1415 929 1415 929 1377 c 0,57,58
473 1377 m 0,71,72
 473 1285 473 1285 397 1254 c 0,73,74
 374 1244 374 1244 348 1244 c 0,75,76
 299 1244 299 1244 262.5 1278.5 c 128,-1,77
 226 1313 226 1313 226 1352 c 0,78,79
 226 1416 226 1416 262 1452 c 1,80,81
 299 1487 299 1487 336 1487 c 0,82,83
 401 1487 401 1487 437 1451 c 128,-1,84
 473 1415 473 1415 473 1377 c 0,71,72
EndSplineSet
EndChar

StartChar: aring
Encoding: 229 229 186
Width: 1195
GlyphClass: 2
Flags: W
LayerCount: 2
Fore
SplineSet
765 113 m 1,0,1
 649 -20 649 -20 454 -20 c 0,2,3
 306 -20 306 -20 199 62.5 c 128,-1,4
 92 145 92 145 92 278.5 c 128,-1,5
 92 412 92 412 197 488.5 c 128,-1,6
 302 565 302 565 467.5 565 c 128,-1,7
 633 565 633 565 744 482 c 1,8,-1
 744 720 l 2,9,10
 744 841 744 841 714 884 c 128,-1,11
 684 927 684 927 643.5 944 c 128,-1,12
 603 961 603 961 554 961 c 0,13,14
 477 961 477 961 424 943.5 c 128,-1,15
 371 926 371 926 353 908 c 1,16,17
 399 894 399 894 424 838 c 0,18,19
 432 818 432 818 432 790 c 0,20,21
 432 735 432 735 392 698.5 c 128,-1,22
 352 662 352 662 312 662 c 0,23,24
 242 662 242 662 203 699 c 128,-1,25
 164 736 164 736 164 788 c 128,-1,26
 164 840 164 840 183 873.5 c 128,-1,27
 202 907 202 907 234 934 c 0,28,29
 295 985 295 985 387.5 1012 c 128,-1,30
 480 1039 480 1039 561 1039 c 0,31,32
 786 1039 786 1039 894 948 c 128,-1,33
 1002 857 1002 857 1002 694 c 2,34,-1
 1002 161 l 2,35,36
 1002 78 1002 78 1043 78 c 128,-1,37
 1084 78 1084 78 1122 128 c 1,38,-1
 1174 85 l 1,39,40
 1106 -18 1106 -18 952 -18 c 0,41,42
 898 -18 898 -18 842.5 16 c 128,-1,43
 787 50 787 50 765 113 c 1,0,1
747 393 m 1,44,45
 662 476 662 476 561 476 c 128,-1,46
 460 476 460 476 409 428.5 c 128,-1,47
 358 381 358 381 358 276 c 0,48,49
 358 121 358 121 467 88 c 0,50,51
 498 78 498 78 530 78 c 0,52,53
 621 78 621 78 704 148 c 0,54,55
 728 169 728 169 747 193 c 1,56,-1
 747 393 l 1,44,45
374 1210 m 1,57,58
 295 1271 295 1271 295 1369 c 128,-1,59
 295 1467 295 1467 374 1527 c 128,-1,60
 453 1587 453 1587 575 1587 c 128,-1,61
 697 1587 697 1587 774 1527.5 c 128,-1,62
 851 1468 851 1468 851 1369 c 128,-1,63
 851 1270 851 1270 774 1210.5 c 128,-1,64
 697 1151 697 1151 575.5 1151 c 128,-1,65
 454 1151 454 1151 374 1210 c 1,57,58
447 1368 m 128,-1,67
 447 1218 447 1218 573.5 1218 c 128,-1,68
 700 1218 700 1218 700 1368 c 128,-1,69
 700 1518 700 1518 573.5 1518 c 128,-1,66
 447 1518 447 1518 447 1368 c 128,-1,67
EndSplineSet
EndChar

StartChar: ae
Encoding: 230 230 187
Width: 1707
GlyphClass: 2
Flags: W
LayerCount: 2
Fore
SplineSet
1248 75 m 0,0,1
 1422 75 1422 75 1566 223 c 1,2,-1
 1619 175 l 1,3,4
 1510 40 1510 40 1337 -5 c 0,5,6
 1279 -20 1279 -20 1206 -20 c 0,7,8
 1054 -20 1054 -20 949.5 21.5 c 128,-1,9
 845 63 845 63 779 152 c 1,10,11
 746 79 746 79 647.5 29.5 c 128,-1,12
 549 -20 549 -20 450 -20 c 0,13,14
 268 -20 268 -20 166 61 c 128,-1,15
 64 142 64 142 64 277 c 128,-1,16
 64 412 64 412 169 488.5 c 128,-1,17
 274 565 274 565 428 565 c 128,-1,18
 582 565 582 565 686 502 c 1,19,-1
 686 720 l 2,20,21
 686 841 686 841 656 884 c 128,-1,22
 626 927 626 927 585.5 944 c 128,-1,23
 545 961 545 961 496 961 c 0,24,25
 419 961 419 961 366 943.5 c 128,-1,26
 313 926 313 926 295 908 c 1,27,28
 341 894 341 894 366 838 c 0,29,30
 374 818 374 818 374 790 c 0,31,32
 374 735 374 735 334 698.5 c 128,-1,33
 294 662 294 662 254 662 c 0,34,35
 184 662 184 662 145 699 c 128,-1,36
 106 736 106 736 106 788 c 128,-1,37
 106 840 106 840 125 873.5 c 128,-1,38
 144 907 144 907 176 934 c 0,39,40
 237 985 237 985 329.5 1012 c 128,-1,41
 422 1039 422 1039 503 1039 c 0,42,43
 759 1039 759 1039 868 916 c 1,44,45
 991 1039 991 1039 1202.5 1039 c 128,-1,46
 1414 1039 1414 1039 1526.5 909.5 c 128,-1,47
 1639 780 1639 780 1639 544 c 1,48,-1
 944 544 l 1,49,-1
 944 495 l 1,50,51
 950 200 950 200 1117 106 c 0,52,53
 1173 75 1173 75 1248 75 c 0,0,1
1372 626 m 1,54,55
 1370 787 1370 787 1325.5 871 c 128,-1,56
 1281 955 1281 955 1184 955 c 0,57,58
 979 955 979 955 949 626 c 1,59,-1
 1372 626 l 1,54,55
330 276 m 0,60,61
 330 120 330 120 430 88 c 0,62,63
 460 78 460 78 502 78 c 0,64,65
 578 78 578 78 628 106.5 c 128,-1,66
 678 135 678 135 689 160 c 1,67,-1
 689 407 l 1,68,-1
 686 420 l 1,69,70
 611 476 611 476 521.5 476 c 128,-1,71
 432 476 432 476 381 428.5 c 128,-1,72
 330 381 330 381 330 276 c 0,60,61
EndSplineSet
EndChar

StartChar: ccedilla
Encoding: 231 231 188
Width: 1026
GlyphClass: 2
Flags: W
LayerCount: 2
Fore
SplineSet
670 -332 m 0,0,1
 670 -247 670 -247 524 -247 c 0,2,3
 516 -247 516 -247 504 -248 c 1,4,-1
 480 -248 l 1,5,6
 459 -249 459 -249 435 -252 c 1,7,-1
 485 -5 l 1,8,9
 295 34 295 34 181 170.5 c 128,-1,10
 67 307 67 307 67 532.5 c 128,-1,11
 67 758 67 758 224.5 899 c 128,-1,12
 382 1040 382 1040 624 1040 c 0,13,14
 762 1040 762 1040 879.5 978.5 c 128,-1,15
 997 917 997 917 997 805 c 0,16,17
 997 745 997 745 959 707 c 128,-1,18
 921 669 921 669 878 669 c 0,19,20
 807 669 807 669 768 702 c 128,-1,21
 729 735 729 735 729 791 c 0,22,23
 729 882 729 882 802 917 c 1,24,25
 728 963 728 963 631 963 c 0,26,27
 343 963 343 963 343 514 c 0,28,29
 343 198 343 198 517 106 c 0,30,31
 575 76 575 76 652 76 c 0,32,33
 834 76 834 76 946 192 c 1,34,-1
 998 144 l 1,35,36
 915 38 915 38 757 -4 c 0,37,38
 699 -20 699 -20 651 -20 c 128,-1,39
 603 -20 603 -20 577 -18 c 1,40,-1
 556 -127 l 1,41,42
 565 -126 565 -126 574 -126 c 2,43,-1
 593 -126 l 2,44,45
 760 -126 760 -126 822 -207 c 0,46,47
 847 -239 847 -239 847 -286 c 128,-1,48
 847 -333 847 -333 826 -369.5 c 128,-1,49
 805 -406 805 -406 770 -436 c 0,50,51
 701 -494 701 -494 593 -527 c 128,-1,52
 485 -560 485 -560 391 -560 c 1,53,-1
 383 -485 l 1,54,55
 566 -471 566 -471 640 -402 c 0,56,57
 670 -374 670 -374 670 -332 c 0,0,1
EndSplineSet
EndChar

StartChar: egrave
Encoding: 232 232 189
Width: 1194
GlyphClass: 2
Flags: W
LayerCount: 2
Fore
SplineSet
1072 175 m 1,0,1
 915 -20 915 -20 625 -20 c 0,2,3
 529 -20 529 -20 425 20.5 c 128,-1,4
 321 61 321 61 248 132 c 1,5,6
 97 282 97 282 97 514.5 c 128,-1,7
 97 747 97 747 249 893 c 128,-1,8
 401 1039 401 1039 635 1039 c 0,9,10
 979 1039 979 1039 1068 751 c 0,11,12
 1097 659 1097 659 1097 544 c 1,13,-1
 373 544 l 1,14,-1
 373 514 l 2,15,16
 373 205 373 205 548 108 c 0,17,18
 607 75 607 75 689 75 c 0,19,20
 871 75 871 75 1019 223 c 1,21,-1
 1072 175 l 1,0,1
828 626 m 1,22,23
 826 786 826 786 779 870.5 c 128,-1,24
 732 955 732 955 625 955 c 0,25,26
 408 955 408 955 378 626 c 1,27,-1
 828 626 l 1,22,23
316 1406 m 2,28,29
 257 1442 257 1442 262 1517 c 1,30,31
 264 1566 264 1566 302 1594 c 128,-1,32
 340 1622 340 1622 380.5 1617.5 c 128,-1,33
 421 1613 421 1613 441 1597.5 c 128,-1,34
 461 1582 461 1582 481 1552 c 2,35,-1
 701 1218 l 1,36,-1
 670 1184 l 1,37,-1
 316 1406 l 2,28,29
EndSplineSet
EndChar

StartChar: eacute
Encoding: 233 233 190
Width: 1194
GlyphClass: 2
Flags: W
LayerCount: 2
Fore
SplineSet
1072 175 m 1,0,1
 915 -20 915 -20 625 -20 c 0,2,3
 529 -20 529 -20 425 20.5 c 128,-1,4
 321 61 321 61 248 132 c 1,5,6
 97 282 97 282 97 514.5 c 128,-1,7
 97 747 97 747 249 893 c 128,-1,8
 401 1039 401 1039 635 1039 c 0,9,10
 979 1039 979 1039 1068 751 c 0,11,12
 1097 659 1097 659 1097 544 c 1,13,-1
 373 544 l 1,14,-1
 373 514 l 2,15,16
 373 205 373 205 548 108 c 0,17,18
 607 75 607 75 689 75 c 0,19,20
 871 75 871 75 1019 223 c 1,21,-1
 1072 175 l 1,0,1
828 626 m 1,22,23
 826 786 826 786 779 870.5 c 128,-1,24
 732 955 732 955 625 955 c 0,25,26
 408 955 408 955 378 626 c 1,27,-1
 828 626 l 1,22,23
503 1218 m 1,28,-1
 723 1552 l 2,29,30
 762 1610 762 1610 800 1615 c 0,31,32
 864 1623 864 1623 901 1595 c 128,-1,33
 938 1567 938 1567 941 1527 c 0,34,35
 947 1443 947 1443 888 1406 c 2,36,-1
 534 1184 l 1,37,-1
 503 1218 l 1,28,-1
EndSplineSet
EndChar

StartChar: ecircumflex
Encoding: 234 234 191
Width: 1194
GlyphClass: 2
Flags: W
LayerCount: 2
Fore
SplineSet
1072 175 m 1,0,1
 915 -20 915 -20 625 -20 c 0,2,3
 529 -20 529 -20 425 20.5 c 128,-1,4
 321 61 321 61 248 132 c 1,5,6
 97 282 97 282 97 514.5 c 128,-1,7
 97 747 97 747 249 893 c 128,-1,8
 401 1039 401 1039 635 1039 c 0,9,10
 979 1039 979 1039 1068 751 c 0,11,12
 1097 659 1097 659 1097 544 c 1,13,-1
 373 544 l 1,14,-1
 373 514 l 2,15,16
 373 205 373 205 548 108 c 0,17,18
 607 75 607 75 689 75 c 0,19,20
 871 75 871 75 1019 223 c 1,21,-1
 1072 175 l 1,0,1
828 626 m 1,22,23
 826 786 826 786 779 870.5 c 128,-1,24
 732 955 732 955 625 955 c 0,25,26
 408 955 408 955 378 626 c 1,27,-1
 828 626 l 1,22,23
233 1212 m 1,28,-1
 499 1535 l 1,29,30
 546 1599 546 1599 610 1599 c 128,-1,31
 674 1599 674 1599 724 1528 c 1,32,-1
 975 1210 l 1,33,-1
 942 1179 l 1,34,-1
 608 1383 l 1,35,-1
 264 1179 l 1,36,-1
 233 1212 l 1,28,-1
EndSplineSet
EndChar

StartChar: edieresis
Encoding: 235 235 192
Width: 1194
GlyphClass: 2
Flags: W
LayerCount: 2
Fore
SplineSet
1072 175 m 1,0,1
 915 -20 915 -20 625 -20 c 0,2,3
 529 -20 529 -20 425 20.5 c 128,-1,4
 321 61 321 61 248 132 c 1,5,6
 97 282 97 282 97 514.5 c 128,-1,7
 97 747 97 747 249 893 c 128,-1,8
 401 1039 401 1039 635 1039 c 0,9,10
 979 1039 979 1039 1068 751 c 0,11,12
 1097 659 1097 659 1097 544 c 1,13,-1
 373 544 l 1,14,-1
 373 514 l 2,15,16
 373 205 373 205 548 108 c 0,17,18
 607 75 607 75 689 75 c 0,19,20
 871 75 871 75 1019 223 c 1,21,-1
 1072 175 l 1,0,1
828 626 m 1,22,23
 826 786 826 786 779 870.5 c 128,-1,24
 732 955 732 955 625 955 c 0,25,26
 408 955 408 955 378 626 c 1,27,-1
 828 626 l 1,22,23
954 1377 m 0,28,29
 954 1285 954 1285 878 1254 c 0,30,31
 855 1244 855 1244 829 1244 c 0,32,33
 780 1244 780 1244 743.5 1278.5 c 128,-1,34
 707 1313 707 1313 707 1352 c 0,35,36
 707 1416 707 1416 743 1452 c 1,37,38
 780 1487 780 1487 817 1487 c 0,39,40
 882 1487 882 1487 918 1451 c 128,-1,41
 954 1415 954 1415 954 1377 c 0,28,29
498 1377 m 0,42,43
 498 1285 498 1285 422 1254 c 0,44,45
 399 1244 399 1244 373 1244 c 0,46,47
 324 1244 324 1244 287.5 1278.5 c 128,-1,48
 251 1313 251 1313 251 1352 c 0,49,50
 251 1416 251 1416 287 1452 c 1,51,52
 324 1487 324 1487 361 1487 c 0,53,54
 426 1487 426 1487 462 1451 c 128,-1,55
 498 1415 498 1415 498 1377 c 0,42,43
EndSplineSet
EndChar

StartChar: igrave
Encoding: 236 236 193
Width: 683
GlyphClass: 2
Flags: W
LayerCount: 2
Fore
SplineSet
61 78 m 1,0,-1
 223 78 l 1,1,-1
 223 945 l 1,2,-1
 75 945 l 1,3,-1
 75 1023 l 1,4,-1
 488 1023 l 1,5,-1
 488 78 l 1,6,-1
 650 78 l 1,7,-1
 650 0 l 1,8,-1
 61 0 l 1,9,-1
 61 78 l 1,0,-1
61 1406 m 2,10,11
 2 1442 2 1442 7 1517 c 1,12,13
 9 1566 9 1566 47 1594 c 128,-1,14
 85 1622 85 1622 125.5 1617.5 c 128,-1,15
 166 1613 166 1613 186 1597.5 c 128,-1,16
 206 1582 206 1582 226 1552 c 2,17,-1
 446 1218 l 1,18,-1
 415 1184 l 1,19,-1
 61 1406 l 2,10,11
EndSplineSet
EndChar

StartChar: iacute
Encoding: 237 237 194
Width: 683
GlyphClass: 2
Flags: W
LayerCount: 2
Fore
SplineSet
61 78 m 1,0,-1
 223 78 l 1,1,-1
 223 945 l 1,2,-1
 75 945 l 1,3,-1
 75 1023 l 1,4,-1
 488 1023 l 1,5,-1
 488 78 l 1,6,-1
 650 78 l 1,7,-1
 650 0 l 1,8,-1
 61 0 l 1,9,-1
 61 78 l 1,0,-1
248 1218 m 1,10,-1
 468 1552 l 2,11,12
 507 1610 507 1610 545 1615 c 0,13,14
 609 1623 609 1623 646 1595 c 128,-1,15
 683 1567 683 1567 686 1527 c 0,16,17
 692 1443 692 1443 633 1406 c 2,18,-1
 279 1184 l 1,19,-1
 248 1218 l 1,10,-1
EndSplineSet
EndChar

StartChar: icircumflex
Encoding: 238 238 195
Width: 683
GlyphClass: 2
Flags: W
LayerCount: 2
Fore
SplineSet
61 78 m 1,0,-1
 223 78 l 1,1,-1
 223 945 l 1,2,-1
 75 945 l 1,3,-1
 75 1023 l 1,4,-1
 488 1023 l 1,5,-1
 488 78 l 1,6,-1
 650 78 l 1,7,-1
 650 0 l 1,8,-1
 61 0 l 1,9,-1
 61 78 l 1,0,-1
-22 1212 m 1,10,-1
 244 1535 l 1,11,12
 291 1599 291 1599 355 1599 c 128,-1,13
 419 1599 419 1599 469 1528 c 1,14,-1
 720 1210 l 1,15,-1
 687 1179 l 1,16,-1
 353 1383 l 1,17,-1
 9 1179 l 1,18,-1
 -22 1212 l 1,10,-1
EndSplineSet
EndChar

StartChar: idieresis
Encoding: 239 239 196
Width: 683
GlyphClass: 2
Flags: W
LayerCount: 2
Fore
SplineSet
656 1377 m 0,0,1
 656 1285 656 1285 580 1254 c 0,2,3
 557 1244 557 1244 532 1244 c 0,4,5
 482 1244 482 1244 445.5 1278.5 c 128,-1,6
 409 1313 409 1313 409 1352 c 0,7,8
 409 1416 409 1416 445 1452 c 1,9,10
 482 1487 482 1487 520 1487 c 0,11,12
 583 1487 583 1487 620 1452 c 1,13,14
 656 1415 656 1415 656 1377 c 0,0,1
294 1377 m 0,15,16
 294 1285 294 1285 218 1254 c 0,17,18
 195 1244 195 1244 170 1244 c 0,19,20
 120 1244 120 1244 83.5 1278.5 c 128,-1,21
 47 1313 47 1313 47 1352 c 0,22,23
 47 1416 47 1416 83 1452 c 1,24,25
 120 1487 120 1487 158 1487 c 0,26,27
 221 1487 221 1487 258 1452 c 1,28,29
 294 1415 294 1415 294 1377 c 0,15,16
61 78 m 1,30,-1
 223 78 l 1,31,-1
 223 945 l 1,32,-1
 75 945 l 1,33,-1
 75 1023 l 1,34,-1
 488 1023 l 1,35,-1
 488 78 l 1,36,-1
 650 78 l 1,37,-1
 650 0 l 1,38,-1
 61 0 l 1,39,-1
 61 78 l 1,30,-1
EndSplineSet
EndChar

StartChar: eth
Encoding: 240 240 197
Width: 1362
GlyphClass: 2
Flags: W
LayerCount: 2
Fore
SplineSet
1217 598 m 1,0,-1
 1216 560 l 1,1,2
 1207 264 1207 264 1060.5 122 c 128,-1,3
 914 -20 914 -20 683.5 -20 c 128,-1,4
 453 -20 453 -20 299 128.5 c 128,-1,5
 145 277 145 277 145 512.5 c 128,-1,6
 145 748 145 748 299.5 894 c 128,-1,7
 454 1040 454 1040 680 1040 c 0,8,9
 818 1040 818 1040 910 990 c 1,10,11
 855 1247 855 1247 667 1418 c 1,12,-1
 458 1237 l 1,13,-1
 397 1306 l 1,14,-1
 594 1477 l 1,15,16
 457 1575 457 1575 295 1605 c 1,17,-1
 315 1684 l 1,18,19
 519 1657 519 1657 688 1558 c 1,20,-1
 911 1751 l 1,21,-1
 971 1682 l 1,22,-1
 769 1506 l 1,23,24
 983 1352 983 1352 1100 1106.5 c 128,-1,25
 1217 861 1217 861 1217 598 c 1,0,-1
423 515 m 0,26,27
 423 65 423 65 680 65 c 0,28,29
 952 65 952 65 952 505 c 0,30,31
 952 852 952 852 780 934 c 0,32,33
 738 955 738 955 672 955 c 0,34,35
 541 955 541 955 482 839 c 128,-1,36
 423 723 423 723 423 515 c 0,26,27
EndSplineSet
EndChar

StartChar: ntilde
Encoding: 241 241 198
Width: 1365
GlyphClass: 2
Flags: W
LayerCount: 2
Fore
SplineSet
774 945 m 0,0,1
 611 945 611 945 479 794 c 1,2,-1
 479 78 l 1,3,-1
 661 78 l 1,4,-1
 661 0 l 1,5,-1
 57 0 l 1,6,-1
 57 78 l 1,7,-1
 219 78 l 1,8,-1
 219 945 l 1,9,-1
 56 945 l 1,10,-1
 56 1023 l 1,11,-1
 479 1023 l 1,12,-1
 479 895 l 1,13,14
 629 1040 629 1040 822 1040 c 0,15,16
 955 1040 955 1040 1058 972 c 0,17,18
 1191 884 1191 884 1191 692 c 2,19,-1
 1191 78 l 1,20,-1
 1353 78 l 1,21,-1
 1353 0 l 1,22,-1
 749 0 l 1,23,-1
 749 78 l 1,24,-1
 931 78 l 1,25,-1
 931 712 l 2,26,27
 931 829 931 829 906.5 871 c 128,-1,28
 882 913 882 913 851.5 929 c 128,-1,29
 821 945 821 945 774 945 c 0,0,1
1072 1475 m 1,30,31
 961 1239 961 1239 811 1239 c 0,32,33
 755 1239 755 1239 688.5 1274.5 c 128,-1,34
 622 1310 622 1310 587 1326 c 128,-1,35
 552 1342 552 1342 515 1342 c 128,-1,36
 478 1342 478 1342 445.5 1317.5 c 128,-1,37
 413 1293 413 1293 377 1253 c 1,38,-1
 331 1286 l 1,39,40
 387 1386 387 1386 426 1429 c 0,41,42
 506 1517 506 1517 575 1517 c 128,-1,43
 644 1517 644 1517 710 1483.5 c 128,-1,44
 776 1450 776 1450 809 1434.5 c 128,-1,45
 842 1419 842 1419 873 1419 c 0,46,47
 952 1419 952 1419 999 1473 c 0,48,49
 1013 1489 1013 1489 1025 1506 c 1,50,-1
 1072 1475 l 1,30,31
EndSplineSet
EndChar

StartChar: ograve
Encoding: 242 242 199
Width: 1194
GlyphClass: 2
Flags: W
LayerCount: 2
Fore
SplineSet
222 894 m 128,-1,1
 372 1040 372 1040 599.5 1040 c 128,-1,2
 827 1040 827 1040 974.5 894.5 c 128,-1,3
 1122 749 1122 749 1122 512.5 c 128,-1,4
 1122 276 1122 276 975.5 128 c 128,-1,5
 829 -20 829 -20 600 -20 c 128,-1,6
 371 -20 371 -20 221.5 128 c 128,-1,7
 72 276 72 276 72 512 c 128,-1,0
 72 748 72 748 222 894 c 128,-1,1
597 63 m 0,8,9
 799 63 799 63 834 338 c 0,10,11
 844 420 844 420 844 514 c 0,12,13
 844 725 844 725 796 830 c 1,14,15
 737 956 737 956 597 956 c 0,16,17
 395 956 395 956 360 690 c 0,18,19
 350 609 350 609 350 514 c 0,20,21
 350 302 350 302 398 194 c 1,22,23
 458 63 458 63 597 63 c 0,8,9
310 1406 m 2,24,25
 251 1442 251 1442 256 1517 c 1,26,27
 258 1566 258 1566 296 1594 c 128,-1,28
 334 1622 334 1622 374.5 1617.5 c 128,-1,29
 415 1613 415 1613 435 1597.5 c 128,-1,30
 455 1582 455 1582 475 1552 c 2,31,-1
 695 1218 l 1,32,-1
 664 1184 l 1,33,-1
 310 1406 l 2,24,25
EndSplineSet
EndChar

StartChar: oacute
Encoding: 243 243 200
Width: 1194
GlyphClass: 2
Flags: W
LayerCount: 2
Fore
SplineSet
222 894 m 128,-1,1
 372 1040 372 1040 599.5 1040 c 128,-1,2
 827 1040 827 1040 974.5 894.5 c 128,-1,3
 1122 749 1122 749 1122 512.5 c 128,-1,4
 1122 276 1122 276 975.5 128 c 128,-1,5
 829 -20 829 -20 600 -20 c 128,-1,6
 371 -20 371 -20 221.5 128 c 128,-1,7
 72 276 72 276 72 512 c 128,-1,0
 72 748 72 748 222 894 c 128,-1,1
597 63 m 0,8,9
 799 63 799 63 834 338 c 0,10,11
 844 420 844 420 844 514 c 0,12,13
 844 725 844 725 796 830 c 1,14,15
 737 956 737 956 597 956 c 0,16,17
 395 956 395 956 360 690 c 0,18,19
 350 609 350 609 350 514 c 0,20,21
 350 302 350 302 398 194 c 1,22,23
 458 63 458 63 597 63 c 0,8,9
497 1218 m 1,24,-1
 717 1552 l 2,25,26
 756 1610 756 1610 794 1615 c 0,27,28
 858 1623 858 1623 895 1595 c 128,-1,29
 932 1567 932 1567 935 1527 c 0,30,31
 941 1443 941 1443 882 1406 c 2,32,-1
 528 1184 l 1,33,-1
 497 1218 l 1,24,-1
EndSplineSet
EndChar

StartChar: ocircumflex
Encoding: 244 244 201
Width: 1194
GlyphClass: 2
Flags: W
LayerCount: 2
Fore
SplineSet
222 894 m 128,-1,1
 372 1040 372 1040 599.5 1040 c 128,-1,2
 827 1040 827 1040 974.5 894.5 c 128,-1,3
 1122 749 1122 749 1122 512.5 c 128,-1,4
 1122 276 1122 276 975.5 128 c 128,-1,5
 829 -20 829 -20 600 -20 c 128,-1,6
 371 -20 371 -20 221.5 128 c 128,-1,7
 72 276 72 276 72 512 c 128,-1,0
 72 748 72 748 222 894 c 128,-1,1
597 63 m 0,8,9
 799 63 799 63 834 338 c 0,10,11
 844 420 844 420 844 514 c 0,12,13
 844 725 844 725 796 830 c 1,14,15
 737 956 737 956 597 956 c 0,16,17
 395 956 395 956 360 690 c 0,18,19
 350 609 350 609 350 514 c 0,20,21
 350 302 350 302 398 194 c 1,22,23
 458 63 458 63 597 63 c 0,8,9
227 1212 m 1,24,-1
 493 1535 l 1,25,26
 540 1599 540 1599 604 1599 c 128,-1,27
 668 1599 668 1599 718 1528 c 1,28,-1
 969 1210 l 1,29,-1
 936 1179 l 1,30,-1
 602 1383 l 1,31,-1
 258 1179 l 1,32,-1
 227 1212 l 1,24,-1
EndSplineSet
EndChar

StartChar: otilde
Encoding: 245 245 202
Width: 1194
GlyphClass: 2
Flags: W
LayerCount: 2
Fore
SplineSet
222 894 m 128,-1,1
 372 1040 372 1040 599.5 1040 c 128,-1,2
 827 1040 827 1040 974.5 894.5 c 128,-1,3
 1122 749 1122 749 1122 512.5 c 128,-1,4
 1122 276 1122 276 975.5 128 c 128,-1,5
 829 -20 829 -20 600 -20 c 128,-1,6
 371 -20 371 -20 221.5 128 c 128,-1,7
 72 276 72 276 72 512 c 128,-1,0
 72 748 72 748 222 894 c 128,-1,1
597 63 m 0,8,9
 799 63 799 63 834 338 c 0,10,11
 844 420 844 420 844 514 c 0,12,13
 844 725 844 725 796 830 c 1,14,15
 737 956 737 956 597 956 c 0,16,17
 395 956 395 956 360 690 c 0,18,19
 350 609 350 609 350 514 c 0,20,21
 350 302 350 302 398 194 c 1,22,23
 458 63 458 63 597 63 c 0,8,9
963 1475 m 1,24,25
 852 1239 852 1239 702 1239 c 0,26,27
 646 1239 646 1239 579.5 1274.5 c 128,-1,28
 513 1310 513 1310 478 1326 c 128,-1,29
 443 1342 443 1342 406 1342 c 128,-1,30
 369 1342 369 1342 336.5 1317.5 c 128,-1,31
 304 1293 304 1293 268 1253 c 1,32,-1
 222 1286 l 1,33,34
 278 1386 278 1386 317 1429 c 0,35,36
 397 1517 397 1517 466 1517 c 128,-1,37
 535 1517 535 1517 601 1483.5 c 128,-1,38
 667 1450 667 1450 700 1434.5 c 128,-1,39
 733 1419 733 1419 764 1419 c 0,40,41
 843 1419 843 1419 890 1473 c 0,42,43
 904 1489 904 1489 916 1506 c 1,44,-1
 963 1475 l 1,24,25
EndSplineSet
EndChar

StartChar: odieresis
Encoding: 246 246 203
Width: 1194
GlyphClass: 2
Flags: W
LayerCount: 2
Fore
SplineSet
222 894 m 128,-1,1
 372 1040 372 1040 599.5 1040 c 128,-1,2
 827 1040 827 1040 974.5 894.5 c 128,-1,3
 1122 749 1122 749 1122 512.5 c 128,-1,4
 1122 276 1122 276 975.5 128 c 128,-1,5
 829 -20 829 -20 600 -20 c 128,-1,6
 371 -20 371 -20 221.5 128 c 128,-1,7
 72 276 72 276 72 512 c 128,-1,0
 72 748 72 748 222 894 c 128,-1,1
597 63 m 0,8,9
 799 63 799 63 834 338 c 0,10,11
 844 420 844 420 844 514 c 0,12,13
 844 725 844 725 796 830 c 1,14,15
 737 956 737 956 597 956 c 0,16,17
 395 956 395 956 360 690 c 0,18,19
 350 609 350 609 350 514 c 0,20,21
 350 302 350 302 398 194 c 1,22,23
 458 63 458 63 597 63 c 0,8,9
948 1377 m 0,24,25
 948 1285 948 1285 872 1254 c 0,26,27
 849 1244 849 1244 823 1244 c 0,28,29
 774 1244 774 1244 737.5 1278.5 c 128,-1,30
 701 1313 701 1313 701 1352 c 0,31,32
 701 1416 701 1416 737 1452 c 1,33,34
 774 1487 774 1487 811 1487 c 0,35,36
 876 1487 876 1487 912 1451 c 128,-1,37
 948 1415 948 1415 948 1377 c 0,24,25
492 1377 m 0,38,39
 492 1285 492 1285 416 1254 c 0,40,41
 393 1244 393 1244 367 1244 c 0,42,43
 318 1244 318 1244 281.5 1278.5 c 128,-1,44
 245 1313 245 1313 245 1352 c 0,45,46
 245 1416 245 1416 281 1452 c 1,47,48
 318 1487 318 1487 355 1487 c 0,49,50
 420 1487 420 1487 456 1451 c 128,-1,51
 492 1415 492 1415 492 1377 c 0,38,39
EndSplineSet
EndChar

StartChar: divide
Encoding: 247 247 204
Width: 1536
GlyphClass: 2
Flags: W
LayerCount: 2
Fore
SplineSet
817 846 m 0,0,1
 794 836 794 836 754.5 836 c 128,-1,2
 715 836 715 836 677.5 872 c 128,-1,3
 640 908 640 908 640 963.5 c 128,-1,4
 640 1019 640 1019 667 1045 c 0,5,6
 715 1091 715 1091 767.5 1091 c 128,-1,7
 820 1091 820 1091 857 1054 c 128,-1,8
 894 1017 894 1017 894 964 c 0,9,10
 894 879 894 879 817 846 c 0,0,1
270 646 m 1,11,-1
 1266 646 l 1,12,-1
 1266 546 l 1,13,-1
 270 546 l 1,14,-1
 270 646 l 1,11,-1
818 105 m 0,15,16
 795 95 795 95 755.5 95 c 128,-1,17
 716 95 716 95 678.5 131 c 128,-1,18
 641 167 641 167 641 222.5 c 128,-1,19
 641 278 641 278 668 304 c 0,20,21
 716 350 716 350 768.5 350 c 128,-1,22
 821 350 821 350 858 313 c 128,-1,23
 895 276 895 276 895 223 c 0,24,25
 895 138 895 138 818 105 c 0,15,16
EndSplineSet
EndChar

StartChar: oslash
Encoding: 248 248 205
Width: 1194
GlyphClass: 2
Flags: W
LayerCount: 2
Fore
SplineSet
235 115 m 1,0,-1
 126 3 l 1,1,-1
 61 66 l 1,2,-1
 177 179 l 1,3,4
 72 318 72 318 72 515 c 0,5,6
 72 748 72 748 222 894 c 128,-1,7
 372 1040 372 1040 582.5 1040 c 128,-1,8
 793 1040 793 1040 932 932 c 1,9,-1
 1040 1039 l 1,10,-1
 1114 976 l 1,11,-1
 999 868 l 1,12,13
 1122 726 1122 726 1122 501 c 128,-1,14
 1122 276 1122 276 975.5 128 c 128,-1,15
 829 -20 829 -20 605.5 -20 c 128,-1,16
 382 -20 382 -20 235 115 c 1,0,-1
802 814 m 1,17,18
 746 956 746 956 597 956 c 0,19,20
 395 956 395 956 360 690 c 0,21,22
 350 609 350 609 350 510.5 c 128,-1,23
 350 412 350 412 361 335 c 1,24,-1
 559 543 l 1,25,-1
 802 814 l 1,17,18
382 238 m 1,26,27
 436 63 436 63 597 63 c 0,28,29
 799 63 799 63 834 338 c 0,30,31
 844 420 844 420 844 526 c 128,-1,32
 844 632 844 632 829 716 c 1,33,-1
 608 485 l 1,34,-1
 382 238 l 1,26,27
EndSplineSet
EndChar

StartChar: ugrave
Encoding: 249 249 206
Width: 1366
GlyphClass: 2
Flags: W
LayerCount: 2
Fore
SplineSet
888 98 m 1,0,1
 755 -20 755 -20 600.5 -20 c 128,-1,2
 446 -20 446 -20 339 42 c 0,3,4
 191 129 191 129 191 333 c 2,5,-1
 191 945 l 1,6,-1
 49 945 l 1,7,-1
 49 1023 l 1,8,-1
 451 1023 l 1,9,-1
 451 287 l 2,10,11
 451 76 451 76 646 76 c 0,12,13
 781 76 781 76 888 200 c 1,14,-1
 888 945 l 1,15,-1
 715 945 l 1,16,-1
 715 1023 l 1,17,-1
 1146 1023 l 1,18,-1
 1146 78 l 1,19,-1
 1275 78 l 1,20,-1
 1275 0 l 1,21,-1
 888 0 l 1,22,-1
 888 98 l 1,0,1
325 1406 m 2,23,24
 266 1442 266 1442 271 1517 c 1,25,26
 273 1566 273 1566 311 1594 c 128,-1,27
 349 1622 349 1622 389.5 1617.5 c 128,-1,28
 430 1613 430 1613 450 1597.5 c 128,-1,29
 470 1582 470 1582 490 1552 c 2,30,-1
 710 1218 l 1,31,-1
 679 1184 l 1,32,-1
 325 1406 l 2,23,24
EndSplineSet
EndChar

StartChar: uacute
Encoding: 250 250 207
Width: 1366
GlyphClass: 2
Flags: W
LayerCount: 2
Fore
SplineSet
888 98 m 1,0,1
 755 -20 755 -20 600.5 -20 c 128,-1,2
 446 -20 446 -20 339 42 c 0,3,4
 191 129 191 129 191 333 c 2,5,-1
 191 945 l 1,6,-1
 49 945 l 1,7,-1
 49 1023 l 1,8,-1
 451 1023 l 1,9,-1
 451 287 l 2,10,11
 451 76 451 76 646 76 c 0,12,13
 781 76 781 76 888 200 c 1,14,-1
 888 945 l 1,15,-1
 715 945 l 1,16,-1
 715 1023 l 1,17,-1
 1146 1023 l 1,18,-1
 1146 78 l 1,19,-1
 1275 78 l 1,20,-1
 1275 0 l 1,21,-1
 888 0 l 1,22,-1
 888 98 l 1,0,1
512 1218 m 1,23,-1
 732 1552 l 2,24,25
 771 1610 771 1610 809 1615 c 0,26,27
 873 1623 873 1623 910 1595 c 128,-1,28
 947 1567 947 1567 950 1527 c 0,29,30
 956 1443 956 1443 897 1406 c 2,31,-1
 543 1184 l 1,32,-1
 512 1218 l 1,23,-1
EndSplineSet
EndChar

StartChar: ucircumflex
Encoding: 251 251 208
Width: 1366
GlyphClass: 2
Flags: W
LayerCount: 2
Fore
SplineSet
888 98 m 1,0,1
 755 -20 755 -20 600.5 -20 c 128,-1,2
 446 -20 446 -20 339 42 c 0,3,4
 191 129 191 129 191 333 c 2,5,-1
 191 945 l 1,6,-1
 49 945 l 1,7,-1
 49 1023 l 1,8,-1
 451 1023 l 1,9,-1
 451 287 l 2,10,11
 451 76 451 76 646 76 c 0,12,13
 781 76 781 76 888 200 c 1,14,-1
 888 945 l 1,15,-1
 715 945 l 1,16,-1
 715 1023 l 1,17,-1
 1146 1023 l 1,18,-1
 1146 78 l 1,19,-1
 1275 78 l 1,20,-1
 1275 0 l 1,21,-1
 888 0 l 1,22,-1
 888 98 l 1,0,1
242 1212 m 1,23,-1
 508 1535 l 1,24,25
 555 1599 555 1599 619 1599 c 128,-1,26
 683 1599 683 1599 733 1528 c 1,27,-1
 984 1210 l 1,28,-1
 951 1179 l 1,29,-1
 617 1383 l 1,30,-1
 273 1179 l 1,31,-1
 242 1212 l 1,23,-1
EndSplineSet
EndChar

StartChar: udieresis
Encoding: 252 252 209
Width: 1366
GlyphClass: 2
Flags: W
LayerCount: 2
Fore
SplineSet
888 98 m 1,0,1
 755 -20 755 -20 600.5 -20 c 128,-1,2
 446 -20 446 -20 339 42 c 0,3,4
 191 129 191 129 191 333 c 2,5,-1
 191 945 l 1,6,-1
 49 945 l 1,7,-1
 49 1023 l 1,8,-1
 451 1023 l 1,9,-1
 451 287 l 2,10,11
 451 76 451 76 646 76 c 0,12,13
 781 76 781 76 888 200 c 1,14,-1
 888 945 l 1,15,-1
 715 945 l 1,16,-1
 715 1023 l 1,17,-1
 1146 1023 l 1,18,-1
 1146 78 l 1,19,-1
 1275 78 l 1,20,-1
 1275 0 l 1,21,-1
 888 0 l 1,22,-1
 888 98 l 1,0,1
963 1377 m 0,23,24
 963 1285 963 1285 887 1254 c 0,25,26
 864 1244 864 1244 838 1244 c 0,27,28
 789 1244 789 1244 752.5 1278.5 c 128,-1,29
 716 1313 716 1313 716 1352 c 0,30,31
 716 1416 716 1416 752 1452 c 1,32,33
 789 1487 789 1487 826 1487 c 0,34,35
 891 1487 891 1487 927 1451 c 128,-1,36
 963 1415 963 1415 963 1377 c 0,23,24
507 1377 m 0,37,38
 507 1285 507 1285 431 1254 c 0,39,40
 408 1244 408 1244 382 1244 c 0,41,42
 333 1244 333 1244 296.5 1278.5 c 128,-1,43
 260 1313 260 1313 260 1352 c 0,44,45
 260 1416 260 1416 296 1452 c 1,46,47
 333 1487 333 1487 370 1487 c 0,48,49
 435 1487 435 1487 471 1451 c 128,-1,50
 507 1415 507 1415 507 1377 c 0,37,38
EndSplineSet
EndChar

StartChar: yacute
Encoding: 253 253 210
Width: 1195
GlyphClass: 2
Flags: W
LayerCount: 2
Fore
SplineSet
144.5 -283.5 m 128,-1,1
 169 -273 169 -273 215.5 -273 c 128,-1,2
 262 -273 262 -273 295.5 -308.5 c 128,-1,3
 329 -344 329 -344 329 -386 c 128,-1,4
 329 -428 329 -428 304 -462 c 1,5,6
 342 -456 342 -456 381 -403.5 c 128,-1,7
 420 -351 420 -351 473 -242 c 1,8,-1
 565 -20 l 1,9,-1
 103 945 l 1,10,-1
 -4 945 l 1,11,-1
 -4 1023 l 1,12,-1
 535 1023 l 1,13,-1
 535 945 l 1,14,-1
 396 945 l 1,15,-1
 698 259 l 1,16,-1
 968 945 l 1,17,-1
 793 945 l 1,18,-1
 793 1023 l 1,19,-1
 1168 1023 l 1,20,-1
 1168 945 l 1,21,-1
 1066 945 l 1,22,-1
 670 -20 l 1,23,-1
 549 -292 l 1,24,25
 478 -433 478 -433 428.5 -480 c 128,-1,26
 379 -527 379 -527 339 -543.5 c 128,-1,27
 299 -560 299 -560 256 -560 c 0,28,29
 175 -560 175 -560 121 -515.5 c 128,-1,30
 67 -471 67 -471 67 -410 c 128,-1,31
 67 -349 67 -349 93.5 -321.5 c 128,-1,0
 120 -294 120 -294 144.5 -283.5 c 128,-1,1
526 1218 m 1,32,-1
 746 1552 l 2,33,34
 785 1610 785 1610 823 1615 c 0,35,36
 887 1623 887 1623 924 1595 c 128,-1,37
 961 1567 961 1567 964 1527 c 0,38,39
 970 1443 970 1443 911 1406 c 2,40,-1
 557 1184 l 1,41,-1
 526 1218 l 1,32,-1
EndSplineSet
EndChar

StartChar: thorn
Encoding: 254 254 211
Width: 1365
GlyphClass: 2
Flags: W
LayerCount: 2
Fore
SplineSet
472 -482 m 1,0,-1
 652 -482 l 1,1,-1
 652 -560 l 1,2,-1
 61 -560 l 1,3,-1
 61 -482 l 1,4,-1
 211 -482 l 1,5,-1
 212 1604 l 1,6,-1
 62 1604 l 1,7,-1
 62 1684 l 1,8,-1
 472 1684 l 1,9,-1
 472 915 l 1,10,11
 592 1040 592 1040 803 1040 c 128,-1,12
 1014 1040 1014 1040 1146.5 906.5 c 128,-1,13
 1279 773 1279 773 1279 520 c 128,-1,14
 1279 267 1279 267 1134 123.5 c 128,-1,15
 989 -20 989 -20 780 -20 c 0,16,17
 647 -20 647 -20 534 34 c 0,18,19
 499 51 499 51 472 72 c 1,20,-1
 472 -482 l 1,0,-1
738 66 m 0,21,22
 999 66 999 66 999 506 c 0,23,24
 999 833 999 833 858 918 c 0,25,26
 809 948 809 948 733.5 947 c 128,-1,27
 658 946 658 946 588 904.5 c 128,-1,28
 518 863 518 863 472 794 c 1,29,-1
 472 179 l 1,30,31
 550 98 550 98 668 74 c 0,32,33
 704 66 704 66 738 66 c 0,21,22
EndSplineSet
EndChar

StartChar: ydieresis
Encoding: 255 255 212
Width: 1195
GlyphClass: 2
Flags: W
LayerCount: 2
Fore
SplineSet
144.5 -283.5 m 128,-1,1
 169 -273 169 -273 215.5 -273 c 128,-1,2
 262 -273 262 -273 295.5 -308.5 c 128,-1,3
 329 -344 329 -344 329 -386 c 128,-1,4
 329 -428 329 -428 304 -462 c 1,5,6
 342 -456 342 -456 381 -403.5 c 128,-1,7
 420 -351 420 -351 473 -242 c 1,8,-1
 565 -20 l 1,9,-1
 103 945 l 1,10,-1
 -4 945 l 1,11,-1
 -4 1023 l 1,12,-1
 535 1023 l 1,13,-1
 535 945 l 1,14,-1
 396 945 l 1,15,-1
 698 259 l 1,16,-1
 968 945 l 1,17,-1
 793 945 l 1,18,-1
 793 1023 l 1,19,-1
 1168 1023 l 1,20,-1
 1168 945 l 1,21,-1
 1066 945 l 1,22,-1
 670 -20 l 1,23,-1
 549 -292 l 1,24,25
 478 -433 478 -433 428.5 -480 c 128,-1,26
 379 -527 379 -527 339 -543.5 c 128,-1,27
 299 -560 299 -560 256 -560 c 0,28,29
 175 -560 175 -560 121 -515.5 c 128,-1,30
 67 -471 67 -471 67 -410 c 128,-1,31
 67 -349 67 -349 93.5 -321.5 c 128,-1,0
 120 -294 120 -294 144.5 -283.5 c 128,-1,1
977 1377 m 0,32,33
 977 1285 977 1285 901 1254 c 0,34,35
 878 1244 878 1244 852 1244 c 0,36,37
 803 1244 803 1244 766.5 1278.5 c 128,-1,38
 730 1313 730 1313 730 1352 c 0,39,40
 730 1416 730 1416 766 1452 c 1,41,42
 803 1487 803 1487 840 1487 c 0,43,44
 905 1487 905 1487 941 1451 c 128,-1,45
 977 1415 977 1415 977 1377 c 0,32,33
521 1377 m 0,46,47
 521 1285 521 1285 445 1254 c 0,48,49
 422 1244 422 1244 396 1244 c 0,50,51
 347 1244 347 1244 310.5 1278.5 c 128,-1,52
 274 1313 274 1313 274 1352 c 0,53,54
 274 1416 274 1416 310 1452 c 1,55,56
 347 1487 347 1487 384 1487 c 0,57,58
 449 1487 449 1487 485 1451 c 128,-1,59
 521 1415 521 1415 521 1377 c 0,46,47
EndSplineSet
EndChar

StartChar: Amacron
Encoding: 256 256 213
Width: 1534
GlyphClass: 2
Flags: W
LayerCount: 2
Fore
SplineSet
21 78 m 1,0,-1
 129 78 l 1,1,-1
 693 1530 l 1,2,-1
 809 1530 l 1,3,-1
 1412 78 l 1,4,-1
 1514 78 l 1,5,-1
 1514 0 l 1,6,-1
 969 0 l 1,7,-1
 969 78 l 1,8,-1
 1119 78 l 1,9,-1
 975 427 l 1,10,-1
 368 427 l 1,11,-1
 236 78 l 1,12,-1
 416 78 l 1,13,-1
 416 0 l 1,14,-1
 21 0 l 1,15,-1
 21 78 l 1,0,-1
943 505 m 1,16,-1
 659 1196 l 1,17,-1
 398 505 l 1,18,-1
 943 505 l 1,16,-1
428 1993 m 1,19,-1
 1085 1993 l 1,20,-1
 1085 1870 l 1,21,-1
 428 1870 l 1,22,-1
 428 1993 l 1,19,-1
EndSplineSet
EndChar

StartChar: amacron
Encoding: 257 257 214
Width: 1195
GlyphClass: 2
Flags: W
LayerCount: 2
Fore
SplineSet
765 113 m 1,0,1
 649 -20 649 -20 454 -20 c 0,2,3
 306 -20 306 -20 199 62.5 c 128,-1,4
 92 145 92 145 92 278.5 c 128,-1,5
 92 412 92 412 197 488.5 c 128,-1,6
 302 565 302 565 467.5 565 c 128,-1,7
 633 565 633 565 744 482 c 1,8,-1
 744 720 l 2,9,10
 744 841 744 841 714 884 c 128,-1,11
 684 927 684 927 643.5 944 c 128,-1,12
 603 961 603 961 554 961 c 0,13,14
 477 961 477 961 424 943.5 c 128,-1,15
 371 926 371 926 353 908 c 1,16,17
 399 894 399 894 424 838 c 0,18,19
 432 818 432 818 432 790 c 0,20,21
 432 735 432 735 392 698.5 c 128,-1,22
 352 662 352 662 312 662 c 0,23,24
 242 662 242 662 203 699 c 128,-1,25
 164 736 164 736 164 788 c 128,-1,26
 164 840 164 840 183 873.5 c 128,-1,27
 202 907 202 907 234 934 c 0,28,29
 295 985 295 985 387.5 1012 c 128,-1,30
 480 1039 480 1039 561 1039 c 0,31,32
 786 1039 786 1039 894 948 c 128,-1,33
 1002 857 1002 857 1002 694 c 2,34,-1
 1002 161 l 2,35,36
 1002 78 1002 78 1043 78 c 128,-1,37
 1084 78 1084 78 1122 128 c 1,38,-1
 1174 85 l 1,39,40
 1106 -18 1106 -18 952 -18 c 0,41,42
 898 -18 898 -18 842.5 16 c 128,-1,43
 787 50 787 50 765 113 c 1,0,1
747 393 m 1,44,45
 662 476 662 476 561 476 c 128,-1,46
 460 476 460 476 409 428.5 c 128,-1,47
 358 381 358 381 358 276 c 0,48,49
 358 121 358 121 467 88 c 0,50,51
 498 78 498 78 530 78 c 0,52,53
 621 78 621 78 704 148 c 0,54,55
 728 169 728 169 747 193 c 1,56,-1
 747 393 l 1,44,45
262 1414 m 1,57,-1
 919 1414 l 1,58,-1
 919 1291 l 1,59,-1
 262 1291 l 1,60,-1
 262 1414 l 1,57,-1
EndSplineSet
EndChar

StartChar: Abreve
Encoding: 258 258 215
Width: 1534
GlyphClass: 2
Flags: W
LayerCount: 2
Fore
SplineSet
21 78 m 1,0,-1
 129 78 l 1,1,-1
 693 1530 l 1,2,-1
 809 1530 l 1,3,-1
 1412 78 l 1,4,-1
 1514 78 l 1,5,-1
 1514 0 l 1,6,-1
 969 0 l 1,7,-1
 969 78 l 1,8,-1
 1119 78 l 1,9,-1
 975 427 l 1,10,-1
 368 427 l 1,11,-1
 236 78 l 1,12,-1
 416 78 l 1,13,-1
 416 0 l 1,14,-1
 21 0 l 1,15,-1
 21 78 l 1,0,-1
943 505 m 1,16,-1
 659 1196 l 1,17,-1
 398 505 l 1,18,-1
 943 505 l 1,16,-1
1069 2000 m 1,19,20
 1074 1965 1074 1965 1074 1923 c 128,-1,21
 1074 1881 1074 1881 1051.5 1827 c 128,-1,22
 1029 1773 1029 1773 987 1733 c 0,23,24
 895 1647 895 1647 748 1647 c 256,25,26
 601 1647 601 1647 511.5 1731 c 128,-1,27
 422 1815 422 1815 422 1943 c 0,28,29
 422 1965 422 1965 427 2000 c 1,30,-1
 484 2000 l 1,31,32
 556 1820 556 1820 748 1820 c 256,33,34
 940 1820 940 1820 1012 2000 c 1,35,-1
 1069 2000 l 1,19,20
EndSplineSet
EndChar

StartChar: abreve
Encoding: 259 259 216
Width: 1195
GlyphClass: 2
Flags: W
LayerCount: 2
Fore
SplineSet
765 113 m 1,0,1
 649 -20 649 -20 454 -20 c 0,2,3
 306 -20 306 -20 199 62.5 c 128,-1,4
 92 145 92 145 92 278.5 c 128,-1,5
 92 412 92 412 197 488.5 c 128,-1,6
 302 565 302 565 467.5 565 c 128,-1,7
 633 565 633 565 744 482 c 1,8,-1
 744 720 l 2,9,10
 744 841 744 841 714 884 c 128,-1,11
 684 927 684 927 643.5 944 c 128,-1,12
 603 961 603 961 554 961 c 0,13,14
 477 961 477 961 424 943.5 c 128,-1,15
 371 926 371 926 353 908 c 1,16,17
 399 894 399 894 424 838 c 0,18,19
 432 818 432 818 432 790 c 0,20,21
 432 735 432 735 392 698.5 c 128,-1,22
 352 662 352 662 312 662 c 0,23,24
 242 662 242 662 203 699 c 128,-1,25
 164 736 164 736 164 788 c 128,-1,26
 164 840 164 840 183 873.5 c 128,-1,27
 202 907 202 907 234 934 c 0,28,29
 295 985 295 985 387.5 1012 c 128,-1,30
 480 1039 480 1039 561 1039 c 0,31,32
 786 1039 786 1039 894 948 c 128,-1,33
 1002 857 1002 857 1002 694 c 2,34,-1
 1002 161 l 2,35,36
 1002 78 1002 78 1043 78 c 128,-1,37
 1084 78 1084 78 1122 128 c 1,38,-1
 1174 85 l 1,39,40
 1106 -18 1106 -18 952 -18 c 0,41,42
 898 -18 898 -18 842.5 16 c 128,-1,43
 787 50 787 50 765 113 c 1,0,1
747 393 m 1,44,45
 662 476 662 476 561 476 c 128,-1,46
 460 476 460 476 409 428.5 c 128,-1,47
 358 381 358 381 358 276 c 0,48,49
 358 121 358 121 467 88 c 0,50,51
 498 78 498 78 530 78 c 0,52,53
 621 78 621 78 704 148 c 0,54,55
 728 169 728 169 747 193 c 1,56,-1
 747 393 l 1,44,45
901 1576 m 1,57,58
 906 1541 906 1541 906 1498 c 128,-1,59
 906 1455 906 1455 883.5 1400.5 c 128,-1,60
 861 1346 861 1346 819 1305 c 0,61,62
 727 1217 727 1217 580 1217 c 256,63,64
 433 1217 433 1217 343.5 1303 c 128,-1,65
 254 1389 254 1389 254 1518 c 0,66,67
 254 1541 254 1541 259 1576 c 1,68,-1
 316 1576 l 1,69,70
 390 1389 390 1389 580 1389 c 256,71,72
 770 1389 770 1389 844 1576 c 1,73,-1
 901 1576 l 1,57,58
EndSplineSet
EndChar

StartChar: Aogonek
Encoding: 260 260 217
Width: 1534
GlyphClass: 2
Flags: W
LayerCount: 2
Fore
SplineSet
1166 -555 m 0,0,1
 893 -555 893 -555 893 -352 c 0,2,3
 893 -252 893 -252 986 -157 c 128,-1,4
 1079 -62 1079 -62 1201 0 c 1,5,-1
 969 0 l 1,6,-1
 969 78 l 1,7,-1
 1119 78 l 1,8,-1
 975 427 l 1,9,-1
 368 427 l 1,10,-1
 236 78 l 1,11,-1
 416 78 l 1,12,-1
 416 0 l 1,13,-1
 21 0 l 1,14,-1
 21 78 l 1,15,-1
 129 78 l 1,16,-1
 693 1530 l 1,17,-1
 809 1530 l 1,18,-1
 1412 78 l 1,19,-1
 1514 78 l 1,20,-1
 1514 0 l 1,21,-1
 1370 0 l 1,22,23
 1209 -97 1209 -97 1154 -215 c 0,24,25
 1137 -253 1137 -253 1137 -288 c 0,26,27
 1137 -356 1137 -356 1171 -397.5 c 128,-1,28
 1205 -439 1205 -439 1246 -439 c 0,29,30
 1312 -439 1312 -439 1364 -407 c 128,-1,31
 1416 -375 1416 -375 1444 -338 c 1,32,-1
 1491 -390 l 1,33,34
 1465 -434 1465 -434 1398 -475 c 0,35,36
 1268 -555 1268 -555 1166 -555 c 0,0,1
943 505 m 1,37,-1
 659 1196 l 1,38,-1
 398 505 l 1,39,-1
 943 505 l 1,37,-1
EndSplineSet
EndChar

StartChar: aogonek
Encoding: 261 261 218
Width: 1195
GlyphClass: 2
Flags: W
LayerCount: 2
Fore
SplineSet
765 113 m 1,0,1
 649 -20 649 -20 454 -20 c 0,2,3
 306 -20 306 -20 199 62.5 c 128,-1,4
 92 145 92 145 92 278.5 c 128,-1,5
 92 412 92 412 197 488.5 c 128,-1,6
 302 565 302 565 467.5 565 c 128,-1,7
 633 565 633 565 744 482 c 1,8,-1
 744 720 l 2,9,10
 744 841 744 841 714 884 c 128,-1,11
 684 927 684 927 643.5 944 c 128,-1,12
 603 961 603 961 554 961 c 0,13,14
 477 961 477 961 424 943.5 c 128,-1,15
 371 926 371 926 353 908 c 1,16,17
 399 894 399 894 424 838 c 0,18,19
 432 818 432 818 432 790 c 0,20,21
 432 735 432 735 392 698.5 c 128,-1,22
 352 662 352 662 312 662 c 0,23,24
 242 662 242 662 203 699 c 128,-1,25
 164 736 164 736 164 788 c 128,-1,26
 164 840 164 840 183 873.5 c 128,-1,27
 202 907 202 907 234 934 c 0,28,29
 295 985 295 985 387.5 1012 c 128,-1,30
 480 1039 480 1039 561 1039 c 0,31,32
 786 1039 786 1039 894 948 c 128,-1,33
 1002 857 1002 857 1002 694 c 2,34,-1
 1002 161 l 2,35,36
 1002 78 1002 78 1043 78 c 128,-1,37
 1084 78 1084 78 1122 128 c 1,38,-1
 1174 85 l 1,39,40
 1150 48 1150 48 1105 20 c 1,41,-1
 1106 20 l 1,42,43
 994 -39 994 -39 932.5 -100 c 128,-1,44
 871 -161 871 -161 845.5 -204 c 128,-1,45
 820 -247 820 -247 820 -284 c 0,46,47
 820 -357 820 -357 854 -398 c 128,-1,48
 888 -439 888 -439 930 -439 c 0,49,50
 993 -439 993 -439 1046 -407 c 128,-1,51
 1099 -375 1099 -375 1127 -338 c 1,52,-1
 1174 -390 l 1,53,54
 1148 -434 1148 -434 1081 -475 c 0,55,56
 951 -555 951 -555 849 -555 c 0,57,58
 576 -555 576 -555 576 -352 c 0,59,60
 576 -255 576 -255 672.5 -162.5 c 128,-1,61
 769 -70 769 -70 896 -7 c 1,62,63
 797 22 797 22 765 113 c 1,0,1
747 393 m 1,64,65
 662 476 662 476 561 476 c 128,-1,66
 460 476 460 476 409 428.5 c 128,-1,67
 358 381 358 381 358 276 c 0,68,69
 358 121 358 121 467 88 c 0,70,71
 498 78 498 78 530 78 c 0,72,73
 621 78 621 78 704 148 c 0,74,75
 728 169 728 169 747 193 c 1,76,-1
 747 393 l 1,64,65
EndSplineSet
EndChar

StartChar: Cacute
Encoding: 262 262 219
Width: 1534
GlyphClass: 2
Flags: W
LayerCount: 2
Fore
SplineSet
1307 1422 m 1,0,1
 1347 1469 1347 1469 1349 1530 c 1,2,-1
 1431 1530 l 1,3,-1
 1431 1111 l 1,4,-1
 1346 1111 l 1,5,6
 1317 1277 1317 1277 1187.5 1372 c 128,-1,7
 1058 1467 1058 1467 906 1467 c 0,8,9
 400 1467 400 1467 404 760 c 1,10,11
 407 479 407 479 516 293 c 0,12,13
 642 78 642 78 882 78 c 0,14,15
 1065 78 1065 78 1191.5 142.5 c 128,-1,16
 1318 207 1318 207 1390 317 c 1,17,-1
 1442 269 l 1,18,19
 1404 178 1404 178 1284 95 c 0,20,21
 1119 -20 1119 -20 870 -20 c 0,22,23
 516 -20 516 -20 306 200.5 c 128,-1,24
 96 421 96 421 96 762 c 128,-1,25
 96 1103 96 1103 305.5 1326.5 c 128,-1,26
 515 1550 515 1550 888 1550 c 0,27,28
 1090 1550 1090 1550 1240 1468 c 0,29,30
 1282 1445 1282 1445 1307 1422 c 1,0,1
750 1679 m 1,31,-1
 1039 1956 l 1,32,33
 1093 2005 1093 2005 1130 2001 c 0,34,35
 1193 1993 1193 1993 1223 1957.5 c 128,-1,36
 1253 1922 1253 1922 1246 1882 c 0,37,38
 1233 1800 1233 1800 1167 1776 c 1,39,-1
 772 1639 l 1,40,-1
 750 1679 l 1,31,-1
EndSplineSet
EndChar

StartChar: cacute
Encoding: 263 263 220
Width: 1026
GlyphClass: 2
Flags: W
LayerCount: 2
Fore
SplineSet
998 144 m 1,0,1
 870 -20 870 -20 604 -20 c 0,2,3
 510 -20 510 -20 407 16 c 128,-1,4
 304 52 304 52 228 121 c 0,5,6
 67 269 67 269 67 513.5 c 128,-1,7
 67 758 67 758 224.5 899 c 128,-1,8
 382 1040 382 1040 624 1040 c 0,9,10
 762 1040 762 1040 879.5 978.5 c 128,-1,11
 997 917 997 917 997 805 c 0,12,13
 997 745 997 745 959 707 c 128,-1,14
 921 669 921 669 878 669 c 0,15,16
 807 669 807 669 768 702 c 128,-1,17
 729 735 729 735 729 791 c 0,18,19
 729 882 729 882 802 917 c 1,20,21
 728 963 728 963 631 963 c 0,22,23
 343 963 343 963 343 514 c 0,24,25
 343 198 343 198 517 106 c 0,26,27
 575 76 575 76 652 76 c 0,28,29
 834 76 834 76 946 192 c 1,30,-1
 998 144 l 1,0,1
475 1218 m 1,31,-1
 695 1552 l 2,32,33
 734 1610 734 1610 772 1615 c 0,34,35
 836 1623 836 1623 873 1595 c 128,-1,36
 910 1567 910 1567 913 1527 c 0,37,38
 919 1443 919 1443 860 1406 c 2,39,-1
 506 1184 l 1,40,-1
 475 1218 l 1,31,-1
EndSplineSet
EndChar

StartChar: Ccircumflex
Encoding: 264 264 221
Width: 1534
GlyphClass: 2
Flags: W
LayerCount: 2
Fore
SplineSet
1307 1422 m 1,0,1
 1347 1469 1347 1469 1349 1530 c 1,2,-1
 1431 1530 l 1,3,-1
 1431 1111 l 1,4,-1
 1346 1111 l 1,5,6
 1317 1277 1317 1277 1187.5 1372 c 128,-1,7
 1058 1467 1058 1467 906 1467 c 0,8,9
 400 1467 400 1467 404 760 c 1,10,11
 407 479 407 479 516 293 c 0,12,13
 642 78 642 78 882 78 c 0,14,15
 1065 78 1065 78 1191.5 142.5 c 128,-1,16
 1318 207 1318 207 1390 317 c 1,17,-1
 1442 269 l 1,18,19
 1404 178 1404 178 1284 95 c 0,20,21
 1119 -20 1119 -20 870 -20 c 0,22,23
 516 -20 516 -20 306 200.5 c 128,-1,24
 96 421 96 421 96 762 c 128,-1,25
 96 1103 96 1103 305.5 1326.5 c 128,-1,26
 515 1550 515 1550 888 1550 c 0,27,28
 1090 1550 1090 1550 1240 1468 c 0,29,30
 1282 1445 1282 1445 1307 1422 c 1,0,1
505 1646 m 1,31,-1
 768 1936 l 2,32,33
 826 2000 826 2000 861.5 2000 c 128,-1,34
 897 2000 897 2000 914 1992 c 1,35,36
 946 1979 946 1979 973 1950 c 1,37,-1
 1239 1647 l 1,38,-1
 1211 1610 l 1,39,-1
 877 1794 l 1,40,-1
 533 1610 l 1,41,-1
 505 1646 l 1,31,-1
EndSplineSet
EndChar

StartChar: ccircumflex
Encoding: 265 265 222
Width: 1026
GlyphClass: 2
Flags: W
LayerCount: 2
Fore
SplineSet
998 144 m 1,0,1
 870 -20 870 -20 604 -20 c 0,2,3
 510 -20 510 -20 407 16 c 128,-1,4
 304 52 304 52 228 121 c 0,5,6
 67 269 67 269 67 513.5 c 128,-1,7
 67 758 67 758 224.5 899 c 128,-1,8
 382 1040 382 1040 624 1040 c 0,9,10
 762 1040 762 1040 879.5 978.5 c 128,-1,11
 997 917 997 917 997 805 c 0,12,13
 997 745 997 745 959 707 c 128,-1,14
 921 669 921 669 878 669 c 0,15,16
 807 669 807 669 768 702 c 128,-1,17
 729 735 729 735 729 791 c 0,18,19
 729 882 729 882 802 917 c 1,20,21
 728 963 728 963 631 963 c 0,22,23
 343 963 343 963 343 514 c 0,24,25
 343 198 343 198 517 106 c 0,26,27
 575 76 575 76 652 76 c 0,28,29
 834 76 834 76 946 192 c 1,30,-1
 998 144 l 1,0,1
205 1212 m 1,31,-1
 471 1535 l 1,32,33
 518 1599 518 1599 582 1599 c 128,-1,34
 646 1599 646 1599 696 1528 c 1,35,-1
 947 1210 l 1,36,-1
 914 1179 l 1,37,-1
 580 1383 l 1,38,-1
 236 1179 l 1,39,-1
 205 1212 l 1,31,-1
EndSplineSet
EndChar

StartChar: Cdotaccent
Encoding: 266 266 223
Width: 1534
GlyphClass: 2
Flags: W
LayerCount: 2
Fore
SplineSet
1307 1422 m 1,0,1
 1347 1469 1347 1469 1349 1530 c 1,2,-1
 1431 1530 l 1,3,-1
 1431 1111 l 1,4,-1
 1346 1111 l 1,5,6
 1317 1277 1317 1277 1187.5 1372 c 128,-1,7
 1058 1467 1058 1467 906 1467 c 0,8,9
 400 1467 400 1467 404 760 c 1,10,11
 407 479 407 479 516 293 c 0,12,13
 642 78 642 78 882 78 c 0,14,15
 1065 78 1065 78 1191.5 142.5 c 128,-1,16
 1318 207 1318 207 1390 317 c 1,17,-1
 1442 269 l 1,18,19
 1404 178 1404 178 1284 95 c 0,20,21
 1119 -20 1119 -20 870 -20 c 0,22,23
 516 -20 516 -20 306 200.5 c 128,-1,24
 96 421 96 421 96 762 c 128,-1,25
 96 1103 96 1103 305.5 1326.5 c 128,-1,26
 515 1550 515 1550 888 1550 c 0,27,28
 1090 1550 1090 1550 1240 1468 c 0,29,30
 1282 1445 1282 1445 1307 1422 c 1,0,1
971 1923 m 128,-1,32
 1010 1884 1010 1884 1010 1830.5 c 128,-1,33
 1010 1777 1010 1777 971.5 1738.5 c 128,-1,34
 933 1700 933 1700 878.5 1700 c 128,-1,35
 824 1700 824 1700 786 1738 c 128,-1,36
 748 1776 748 1776 748 1830.5 c 128,-1,37
 748 1885 748 1885 776 1913 c 0,38,39
 825 1962 825 1962 878.5 1962 c 128,-1,31
 932 1962 932 1962 971 1923 c 128,-1,32
EndSplineSet
EndChar

StartChar: cdotaccent
Encoding: 267 267 224
Width: 1026
GlyphClass: 2
Flags: W
LayerCount: 2
Fore
SplineSet
998 144 m 1,0,1
 870 -20 870 -20 604 -20 c 0,2,3
 510 -20 510 -20 407 16 c 128,-1,4
 304 52 304 52 228 121 c 0,5,6
 67 269 67 269 67 513.5 c 128,-1,7
 67 758 67 758 224.5 899 c 128,-1,8
 382 1040 382 1040 624 1040 c 0,9,10
 762 1040 762 1040 879.5 978.5 c 128,-1,11
 997 917 997 917 997 805 c 0,12,13
 997 745 997 745 959 707 c 128,-1,14
 921 669 921 669 878 669 c 0,15,16
 807 669 807 669 768 702 c 128,-1,17
 729 735 729 735 729 791 c 0,18,19
 729 882 729 882 802 917 c 1,20,21
 728 963 728 963 631 963 c 0,22,23
 343 963 343 963 343 514 c 0,24,25
 343 198 343 198 517 106 c 0,26,27
 575 76 575 76 652 76 c 0,28,29
 834 76 834 76 946 192 c 1,30,-1
 998 144 l 1,0,1
707 1356 m 256,31,32
 707 1302 707 1302 668 1264.5 c 128,-1,33
 629 1227 629 1227 575.5 1227 c 128,-1,34
 522 1227 522 1227 493 1254 c 0,35,36
 445 1301 445 1301 445 1356 c 256,37,38
 445 1411 445 1411 473 1439 c 0,39,40
 522 1488 522 1488 575.5 1488 c 128,-1,41
 629 1488 629 1488 668 1449 c 128,-1,42
 707 1410 707 1410 707 1356 c 256,31,32
EndSplineSet
EndChar

StartChar: Ccaron
Encoding: 268 268 225
Width: 1534
GlyphClass: 2
Flags: W
LayerCount: 2
Fore
SplineSet
1307 1422 m 1,0,1
 1347 1469 1347 1469 1349 1530 c 1,2,-1
 1431 1530 l 1,3,-1
 1431 1111 l 1,4,-1
 1346 1111 l 1,5,6
 1317 1277 1317 1277 1187.5 1372 c 128,-1,7
 1058 1467 1058 1467 906 1467 c 0,8,9
 400 1467 400 1467 404 760 c 1,10,11
 407 479 407 479 516 293 c 0,12,13
 642 78 642 78 882 78 c 0,14,15
 1065 78 1065 78 1191.5 142.5 c 128,-1,16
 1318 207 1318 207 1390 317 c 1,17,-1
 1442 269 l 1,18,19
 1404 178 1404 178 1284 95 c 0,20,21
 1119 -20 1119 -20 870 -20 c 0,22,23
 516 -20 516 -20 306 200.5 c 128,-1,24
 96 421 96 421 96 762 c 128,-1,25
 96 1103 96 1103 305.5 1326.5 c 128,-1,26
 515 1550 515 1550 888 1550 c 0,27,28
 1090 1550 1090 1550 1240 1468 c 0,29,30
 1282 1445 1282 1445 1307 1422 c 1,0,1
769 1694 m 1,31,-1
 510 1964 l 1,32,-1
 538 2000 l 1,33,-1
 878 1836 l 1,34,-1
 1216 2000 l 1,35,-1
 1244 1963 l 1,36,-1
 994 1701 l 1,37,38
 951 1653 951 1653 924.5 1641.5 c 128,-1,39
 898 1630 898 1630 862.5 1630 c 128,-1,40
 827 1630 827 1630 769 1694 c 1,31,-1
EndSplineSet
EndChar

StartChar: ccaron
Encoding: 269 269 226
Width: 1026
GlyphClass: 2
Flags: W
LayerCount: 2
Fore
SplineSet
998 144 m 1,0,1
 870 -20 870 -20 604 -20 c 0,2,3
 510 -20 510 -20 407 16 c 128,-1,4
 304 52 304 52 228 121 c 0,5,6
 67 269 67 269 67 513.5 c 128,-1,7
 67 758 67 758 224.5 899 c 128,-1,8
 382 1040 382 1040 624 1040 c 0,9,10
 762 1040 762 1040 879.5 978.5 c 128,-1,11
 997 917 997 917 997 805 c 0,12,13
 997 745 997 745 959 707 c 128,-1,14
 921 669 921 669 878 669 c 0,15,16
 807 669 807 669 768 702 c 128,-1,17
 729 735 729 735 729 791 c 0,18,19
 729 882 729 882 802 917 c 1,20,21
 728 963 728 963 631 963 c 0,22,23
 343 963 343 963 343 514 c 0,24,25
 343 198 343 198 517 106 c 0,26,27
 575 76 575 76 652 76 c 0,28,29
 834 76 834 76 946 192 c 1,30,-1
 998 144 l 1,0,1
466 1248 m 1,31,-1
 200 1571 l 1,32,-1
 231 1604 l 1,33,-1
 575 1392 l 1,34,-1
 909 1604 l 1,35,-1
 942 1573 l 1,36,-1
 691 1255 l 1,37,38
 641 1184 641 1184 577 1184 c 128,-1,39
 513 1184 513 1184 466 1248 c 1,31,-1
EndSplineSet
EndChar

StartChar: Dcaron
Encoding: 270 270 227
Width: 1707
GlyphClass: 2
Flags: W
LayerCount: 2
Fore
SplineSet
83 78 m 1,0,-1
 283 78 l 1,1,-1
 284 1452 l 1,2,-1
 83 1452 l 1,3,-1
 83 1530 l 1,4,-1
 757 1530 l 2,5,6
 1360 1530 1360 1530 1537 1149 c 0,7,8
 1610 992 1610 992 1610 777 c 0,9,10
 1610 491 1610 491 1444 278 c 0,11,12
 1310 107 1310 107 1055 37 c 0,13,14
 921 0 921 0 743 0 c 2,15,-1
 83 0 l 1,16,-1
 83 78 l 1,0,-1
731 78 m 2,17,18
 1046 78 1046 78 1182 235 c 128,-1,19
 1318 392 1318 392 1318 770 c 2,20,-1
 1318 801 l 1,21,22
 1312 1163 1312 1163 1172.5 1307.5 c 128,-1,23
 1033 1452 1033 1452 744 1452 c 2,24,-1
 553 1452 l 1,25,-1
 553 78 l 1,26,-1
 731 78 l 2,17,18
727 1694 m 1,27,-1
 468 1964 l 1,28,-1
 496 2000 l 1,29,-1
 836 1836 l 1,30,-1
 1174 2000 l 1,31,-1
 1202 1963 l 1,32,-1
 952 1701 l 1,33,34
 909 1653 909 1653 882.5 1641.5 c 128,-1,35
 856 1630 856 1630 820.5 1630 c 128,-1,36
 785 1630 785 1630 727 1694 c 1,27,-1
EndSplineSet
EndChar

StartChar: dcaron
Encoding: 271 271 228
Width: 1532
GlyphClass: 2
Flags: W
LayerCount: 2
Fore
SplineSet
1305 1086 m 1,0,1
 1411 1181 1411 1181 1433 1377 c 1,2,3
 1428 1376 1428 1376 1424 1376 c 2,4,-1
 1415 1376 l 2,5,6
 1347 1376 1347 1376 1303.5 1425 c 128,-1,7
 1260 1474 1260 1474 1260 1545 c 0,8,9
 1260 1652 1260 1652 1351 1691 c 0,10,11
 1381 1704 1381 1704 1422 1704 c 0,12,13
 1496 1704 1496 1704 1533.5 1654 c 128,-1,14
 1571 1604 1571 1604 1571 1532 c 0,15,16
 1571 1394 1571 1394 1516 1256 c 128,-1,17
 1461 1118 1461 1118 1361 1039 c 1,18,-1
 1305 1086 l 1,0,1
925 104 m 1,19,20
 807 -20 807 -20 572 -20 c 0,21,22
 494 -20 494 -20 408.5 10.5 c 128,-1,23
 323 41 323 41 258.5 106 c 128,-1,24
 194 171 194 171 156.5 271.5 c 128,-1,25
 119 372 119 372 119 504 c 0,26,27
 119 752 119 752 264 896 c 128,-1,28
 409 1040 409 1040 618 1040 c 0,29,30
 750 1040 750 1040 862 986 c 0,31,32
 898 969 898 969 925 948 c 1,33,-1
 925 1606 l 1,34,-1
 718 1606 l 1,35,-1
 718 1684 l 1,36,-1
 1185 1684 l 1,37,-1
 1185 78 l 1,38,-1
 1333 78 l 1,39,-1
 1333 0 l 1,40,-1
 925 0 l 1,41,-1
 925 104 l 1,19,20
660 954 m 0,42,43
 399 954 399 954 399 514 c 0,44,45
 399 187 399 187 540 102 c 0,46,47
 589 72 589 72 664.5 72.5 c 128,-1,48
 740 73 740 73 809.5 114 c 128,-1,49
 879 155 879 155 925 224 c 1,50,-1
 925 842 l 1,51,52
 848 922 848 922 729 946 c 0,53,54
 693 954 693 954 660 954 c 0,42,43
EndSplineSet
EndChar

StartChar: Dcroat
Encoding: 272 272 229
Width: 1707
GlyphClass: 2
Flags: W
LayerCount: 2
Fore
SplineSet
83 78 m 1,0,-1
 283 78 l 1,1,-1
 283 735 l 1,2,-1
 113 735 l 1,3,-1
 113 813 l 1,4,-1
 283 813 l 1,5,-1
 284 1452 l 1,6,-1
 83 1452 l 1,7,-1
 83 1530 l 1,8,-1
 757 1530 l 2,9,10
 1360 1530 1360 1530 1537 1149 c 0,11,12
 1610 992 1610 992 1610 777 c 0,13,14
 1610 491 1610 491 1444 278 c 0,15,16
 1310 107 1310 107 1055 37 c 0,17,18
 921 0 921 0 743 0 c 2,19,-1
 83 0 l 1,20,-1
 83 78 l 1,0,-1
731 78 m 2,21,22
 1046 78 1046 78 1182 235 c 128,-1,23
 1318 392 1318 392 1318 770 c 2,24,-1
 1318 801 l 1,25,26
 1312 1163 1312 1163 1172.5 1307.5 c 128,-1,27
 1033 1452 1033 1452 744 1452 c 2,28,-1
 553 1452 l 1,29,-1
 553 813 l 1,30,-1
 943 813 l 1,31,-1
 943 735 l 1,32,-1
 553 735 l 1,33,-1
 553 78 l 1,34,-1
 731 78 l 2,21,22
EndSplineSet
EndChar

StartChar: dcroat
Encoding: 273 273 230
Width: 1365
GlyphClass: 2
Flags: W
LayerCount: 2
Fore
SplineSet
925 104 m 1,0,1
 807 -20 807 -20 572 -20 c 0,2,3
 494 -20 494 -20 408.5 10.5 c 128,-1,4
 323 41 323 41 258.5 106 c 128,-1,5
 194 171 194 171 156.5 271.5 c 128,-1,6
 119 372 119 372 119 504 c 0,7,8
 119 752 119 752 264 896 c 128,-1,9
 409 1040 409 1040 618 1040 c 0,10,11
 750 1040 750 1040 862 986 c 0,12,13
 898 969 898 969 925 948 c 1,14,-1
 925 1247 l 1,15,-1
 685 1247 l 1,16,-1
 685 1325 l 1,17,-1
 925 1325 l 1,18,-1
 925 1606 l 1,19,-1
 718 1606 l 1,20,-1
 718 1684 l 1,21,-1
 1185 1684 l 1,22,-1
 1185 1325 l 1,23,-1
 1332 1325 l 1,24,-1
 1332 1247 l 1,25,-1
 1185 1247 l 1,26,-1
 1185 78 l 1,27,-1
 1333 78 l 1,28,-1
 1333 0 l 1,29,-1
 925 0 l 1,30,-1
 925 104 l 1,0,1
660 954 m 0,31,32
 399 954 399 954 399 514 c 0,33,34
 399 187 399 187 540 102 c 0,35,36
 589 72 589 72 664.5 72.5 c 128,-1,37
 740 73 740 73 809.5 114 c 128,-1,38
 879 155 879 155 925 224 c 1,39,-1
 925 842 l 1,40,41
 848 922 848 922 729 946 c 0,42,43
 693 954 693 954 660 954 c 0,31,32
EndSplineSet
EndChar

